<mxfile host="app.diagrams.net" modified="2024-01-02T16:15:06.313Z" agent="Mozilla/5.0 (Windows NT 10.0; Win64; x64) AppleWebKit/537.36 (KHTML, like Gecko) Chrome/120.0.0.0 Safari/537.36" etag="GHWMkRdkWZdiXgRmRPng" version="22.1.16" type="github">
  <diagram name="Page-1" id="frW-CMuXBVXbo780vZ_1">
    <mxGraphModel dx="2922" dy="1734" grid="1" gridSize="10" guides="1" tooltips="1" connect="1" arrows="1" fold="1" page="1" pageScale="1" pageWidth="850" pageHeight="1100" math="0" shadow="0">
      <root>
        <mxCell id="0" />
        <mxCell id="1" parent="0" />
        <mxCell id="UgRBFtctamIXkeDdi4D6-13" value="" style="rounded=0;whiteSpace=wrap;html=1;" vertex="1" parent="1">
          <mxGeometry x="-10" y="-15" width="710" height="485" as="geometry" />
        </mxCell>
        <mxCell id="UgRBFtctamIXkeDdi4D6-11" value="" style="rounded=0;whiteSpace=wrap;html=1;strokeColor=#ff6600;" vertex="1" parent="1">
          <mxGeometry x="20" y="20" width="640" height="250" as="geometry" />
        </mxCell>
        <mxCell id="UgRBFtctamIXkeDdi4D6-4" value="" style="group" vertex="1" connectable="0" parent="1">
          <mxGeometry x="90" y="100" width="78" height="130" as="geometry" />
        </mxCell>
        <mxCell id="UgRBFtctamIXkeDdi4D6-2" value="" style="sketch=0;points=[[0,0,0],[0.25,0,0],[0.5,0,0],[0.75,0,0],[1,0,0],[0,1,0],[0.25,1,0],[0.5,1,0],[0.75,1,0],[1,1,0],[0,0.25,0],[0,0.5,0],[0,0.75,0],[1,0.25,0],[1,0.5,0],[1,0.75,0]];outlineConnect=0;fontColor=#232F3E;fillColor=#ED7100;strokeColor=#ffffff;dashed=0;verticalLabelPosition=bottom;verticalAlign=top;align=center;html=1;fontSize=12;fontStyle=0;aspect=fixed;shape=mxgraph.aws4.resourceIcon;resIcon=mxgraph.aws4.ec2;movable=1;resizable=1;rotatable=1;deletable=1;editable=1;locked=0;connectable=1;" vertex="1" parent="UgRBFtctamIXkeDdi4D6-4">
          <mxGeometry width="78" height="78" as="geometry" />
        </mxCell>
        <mxCell id="UgRBFtctamIXkeDdi4D6-3" value="Nginx Reverse Proxy EC2 Instance" style="text;html=1;strokeColor=none;fillColor=none;align=center;verticalAlign=middle;whiteSpace=wrap;rounded=0;movable=1;resizable=1;rotatable=1;deletable=1;editable=1;locked=0;connectable=1;" vertex="1" parent="UgRBFtctamIXkeDdi4D6-4">
          <mxGeometry x="9" y="100" width="60" height="30" as="geometry" />
        </mxCell>
        <mxCell id="UgRBFtctamIXkeDdi4D6-6" value="" style="group" vertex="1" connectable="0" parent="1">
          <mxGeometry x="510" y="100" width="78" height="120" as="geometry" />
        </mxCell>
        <mxCell id="UgRBFtctamIXkeDdi4D6-1" value="" style="sketch=0;points=[[0,0,0],[0.25,0,0],[0.5,0,0],[0.75,0,0],[1,0,0],[0,1,0],[0.25,1,0],[0.5,1,0],[0.75,1,0],[1,1,0],[0,0.25,0],[0,0.5,0],[0,0.75,0],[1,0.25,0],[1,0.5,0],[1,0.75,0]];outlineConnect=0;fontColor=#232F3E;fillColor=#ED7100;strokeColor=#ffffff;dashed=0;verticalLabelPosition=bottom;verticalAlign=top;align=center;html=1;fontSize=12;fontStyle=0;aspect=fixed;shape=mxgraph.aws4.resourceIcon;resIcon=mxgraph.aws4.ec2;" vertex="1" parent="UgRBFtctamIXkeDdi4D6-6">
          <mxGeometry width="78" height="78" as="geometry" />
        </mxCell>
        <mxCell id="UgRBFtctamIXkeDdi4D6-5" value="Node.js application Instance" style="text;html=1;strokeColor=none;fillColor=none;align=center;verticalAlign=middle;whiteSpace=wrap;rounded=0;" vertex="1" parent="UgRBFtctamIXkeDdi4D6-6">
          <mxGeometry x="9" y="90" width="60" height="30" as="geometry" />
        </mxCell>
        <mxCell id="UgRBFtctamIXkeDdi4D6-7" value="" style="endArrow=classic;html=1;rounded=0;exitX=1;exitY=0.5;exitDx=0;exitDy=0;exitPerimeter=0;entryX=0;entryY=0.5;entryDx=0;entryDy=0;entryPerimeter=0;" edge="1" parent="1" source="UgRBFtctamIXkeDdi4D6-2" target="UgRBFtctamIXkeDdi4D6-1">
          <mxGeometry relative="1" as="geometry">
            <mxPoint x="360" y="210" as="sourcePoint" />
            <mxPoint x="460" y="210" as="targetPoint" />
          </mxGeometry>
        </mxCell>
        <mxCell id="UgRBFtctamIXkeDdi4D6-8" value="Label" style="edgeLabel;resizable=0;html=1;align=center;verticalAlign=middle;" connectable="0" vertex="1" parent="UgRBFtctamIXkeDdi4D6-7">
          <mxGeometry relative="1" as="geometry" />
        </mxCell>
        <mxCell id="UgRBFtctamIXkeDdi4D6-9" value="Direct Connect (Tunneling)" style="edgeLabel;html=1;align=center;verticalAlign=middle;resizable=0;points=[];" vertex="1" connectable="0" parent="UgRBFtctamIXkeDdi4D6-7">
          <mxGeometry x="0.086" relative="1" as="geometry">
            <mxPoint as="offset" />
          </mxGeometry>
        </mxCell>
        <mxCell id="UgRBFtctamIXkeDdi4D6-12" value="&lt;b&gt;&lt;font color=&quot;#ff6600&quot;&gt;sg-0a2891d9407532d71&lt;/font&gt;&lt;/b&gt;" style="text;html=1;strokeColor=none;fillColor=none;align=center;verticalAlign=middle;whiteSpace=wrap;rounded=0;" vertex="1" parent="1">
          <mxGeometry y="20" width="190" height="30" as="geometry" />
        </mxCell>
        <mxCell id="UgRBFtctamIXkeDdi4D6-15" value="&lt;b&gt;vpc-013bda1a78ef8412f / jenkins-vpc-getty&lt;/b&gt;" style="text;html=1;strokeColor=none;fillColor=none;align=center;verticalAlign=middle;whiteSpace=wrap;rounded=0;" vertex="1" parent="1">
          <mxGeometry x="-10" y="-15" width="260" height="30" as="geometry" />
        </mxCell>
        <mxCell id="UgRBFtctamIXkeDdi4D6-18" value="" style="group" vertex="1" connectable="0" parent="1">
          <mxGeometry x="330" y="330" width="75" height="100" as="geometry" />
        </mxCell>
        <mxCell id="UgRBFtctamIXkeDdi4D6-14" value="rtb-08bc33312e701ee6c" style="text;html=1;strokeColor=none;fillColor=none;align=center;verticalAlign=middle;whiteSpace=wrap;rounded=0;" vertex="1" parent="UgRBFtctamIXkeDdi4D6-18">
          <mxGeometry x="15" y="70" width="60" height="30" as="geometry" />
        </mxCell>
        <mxCell id="UgRBFtctamIXkeDdi4D6-16" value="" style="outlineConnect=0;dashed=0;verticalLabelPosition=bottom;verticalAlign=top;align=center;html=1;shape=mxgraph.aws3.route_table;fillColor=#F58536;gradientColor=none;" vertex="1" parent="UgRBFtctamIXkeDdi4D6-18">
          <mxGeometry width="75" height="69" as="geometry" />
        </mxCell>
        <mxCell id="UgRBFtctamIXkeDdi4D6-20" value="" style="shape=image;verticalLabelPosition=bottom;labelBackgroundColor=default;verticalAlign=top;aspect=fixed;imageAspect=0;image=data:image/png,iVBORw0KGgoAAAANSUhEUgAABhkAAAC5CAYAAAA1QF7OAAAAAXNSR0IArs4c6QAAAARnQU1BAACxjwv8YQUAAAAJcEhZcwAAFiUAABYlAUlSJPAAAFysSURBVHhe7d0JnE/V/8fxt2WMdSwxlsxkJ0tZ62dQmeRvaRHa6CclCZX8kmQpSihKEkqR/CwppMWSZMkgyYxlhuzM2JoRM2OZ+Zpp+t9zv3fGd8aMZTLM+L2ej2733nPuvd/7vbjne8/nnnNyxZ48+bcAAAAAAAAAAAAuU25nDgAAAAAAAAAAcFkIMgAAAAAAAAAAgEzJFfnnn3SXBAAAAAAAAAAALksuM509e5YgAwAAAAAAAAAAuCzbdu2muyQAAAAAAAAAAHD5XK6zBBkAAAAAAAAAAEDmEGQAAAAAAAAAAACZQpABAAAAAAAAAABkCkEGAAAAAAAAAACQKQQZAAAAAAAAAABAphBkAAAAAAAAAAAAmUKQAQAAAAAAAAAAZEqus2fP/u0sAwAAAAAAAMB1Y/1vIfpm4VKdOn3aSUGywoUK6YG2LXV7w3pOSvpWBa3T7C+/VuzJU04KciKfIoX12MMP6s6mjZ2UKyMkdBtBBgAAAAAAAADXp4HD3tZzz3TVTf7lnRQkOxB+UB9OnqYRr7/ipKTv2Rf6a+DLfVS5UgUnBTnRnr37NWL0OH30wTtOypVhggx0lwQAAAAAAADgumRaMBBgSJ+5LpfSwsO0YCDAkPOZP8Osao1CkAEAAAAAAAAAAGQKQQYAAAAAAAAAAJApBBmywtFgffXFXH2/Ld5JuARnI7T8y7mavmKvEpwkAAAAAAAAAACysywJMriObNOadevOn7YdlCvR2ei6dUqr5y/Q6u15ValGfifNknhCO1f/oCkTx2vwW5P00dertPlPj4uRz0+1ShzRb4u/0cJwJw0AAAAAAAAAgGwsS4IMsb9O0COPdjl/at1cle/urWnbXM6WWSg2RLM/nqKPP16pq1pn//syfb9fKt+ihWo6Vzdh1w9667Wx+vC7Ndr2Z5yUFKVt637SlNHvafa2c4GG0nfcae1zQsuXb6E1AwAAAAAAAAAg28vi7pLuUteBAzTEnrqptRmEfP9SDe4yUWuyOs6wZ51eHjFKb47YpignKesl6rdfghUnPzWuW9hJk44fOCKvRh01aPgbendIfw0f8pre7lJTBZJOad3KjYp1tlO+W9S4tjXftkarY9xJAAAAAAAAAHIm15EwBa3ZLar6/rmEP7YqOHi9gg8kX80ERe5er9CDXN1rLYuDDPX0YI9u6mFPA/ThqF4qZZKjJmrNFnuDcxJdCt+W3LVSiHYdd9I9uGJjFWtPnhEKl5NmTR7J4fvCnCWXYtLJNzy7ddq4J6Wq34NLUSnntM76C3uRyEjSTm3+3ZqXq6aaRdxJRunArur/4C0qnc9JsBSo3USNi1oL+/dpnzvJVrNGNev/R7Q59JQ7AQAAAAAAAEDW2jxdHR7t5EyvaOjE6Zq/8Z+/uhyzfrw6PLREu5x1JNuq2S/1U+90ptk7nE3SOLH5K41871ONXLHHnbB7lvoP/VTDBsxSqDsF10gWBxlS865QRQ2d5fDIc/9IXdumqMu/aiugdXLXSg+reb0APTIh5Nxb/orS4gENVLOONQ1Yeq51wpGlesmkWdNLS0zqNn3QsKoC+i5152uiuqTKtyQe1IKXm6vyvx5I6crpgcAGCnh56bmulQ6u1OB2tVUv5Zy6qFWT2ur+zQVuLnt2ameSVMDPTzc4Sbb0rnLSCf1pgmy+ZVXGnWLzquin8tZ835697gQAAAAAAAAAWSsxVkE/+6nt88+p7/MPqGm5SM3r1kY9v7tAXWBaGz9U6R7fKNJZvdLeGTtBDz3e/YLT0LfGOFtndwk680eMItOZzlxqP/Llm+rRxv6q/3BTVXSSIpe+Zl+HKdcw6pAdzuFqu6pBhqjgdVpsL9VUnYp2mwZ3kKDLKC23/r2WavyQXhg4QC881lilFKU17zysl+YfdG93GXxqNFYD0zWTrbwaNGusJtbkX8isu7RxYm8996V13HqPa/Tn0zXn8xHqWk8K/7K3xv9gwhqxWv5Rd00LsRbrPaThk80272n4C4+rqn2M9MVGRinOmpcp4+tOuIDYdeu12ZqXrltTpd1JbjeUcgcojkTpDzsBAAAAAAAAQNbz0y1NAtTUmlq066eRL1fV/O/Xpg4aJLoUExGmrRGxcp0batUWc/wi4YXTsQoPC1P4aWf9Mh37M52uX9KIi493lnKK+np9xif6ymPqZrqTTxYfrp3B67Xz8BmddZJSePmrWZcX9EKLGkqusj24/4g9P3UyRqdPnlHCX/Zqan8lWHlWvhPMSDhzbtmWcEz7tq1X8LY9ik4b8Ig3x405d9y/zriP5REZueA5JB97d/j55+Z8V5OX6nxygCwOMnylNx7vokfM9Ggrtez1lZ3a4KWh6lrTXlTowglaYAcEH9KIiSPUv0c39R/1oUY8bGdr8Sc/XGZzl5rqOmO6XuvgrFrHfc1an2NNQ1qUMrX7+vrdbVZ6Yw1/93U9dldjNbnrIT3TpaW99ezVwbJuEYp1/s3WbvaQHvs/s8196vrS6+pvjpGBuDj3P2KfoufGY0jX0VX66LsIqXgTdQpMe7xSKm2iDH9G6ag7AQAAAAAAAMBVZgcRvL3dKxbX7jnqe0d1tej1lob2aiv/hp30/kbTvXqU5veooGpPTJe+66M65SqodLkP9Zt7N0uo5g3tpKaPPqu+A55Vo6rNNDITA9b26t5VuXNnXJ1r8p5/9ilnLec7HTpJ3Z9+U4Pe+1SD+vdR/9nuyvsUx5dqRM9+6vrOUkXqiJYM7a6RP7uzgiZY6T1H6af04jLOft0/W6Alo3qp0zP9NGKF+9iRQe+q+5Ovqv+ITzVyxChruY/GBJ373NAvzHH7afp2J2H75/b6pZxD5LI31Sn52EOt5R5vaonzlrmd53xXk9f1yUk5qguoLA4yHNTG1eu0xkzr9lj/3CrrsdFL9N8X6sn9zzNKu4NNhb+lbWM1LOFelHzUsKm70l/bgrU7zd+ff2TPNk2zF7y1e9kUffyxe/pitdNi4vhJuVRKtW6rZ6+GfvCw/tXyP/rgmxBFXf6//fPFbdOUj3+yrkxZ3fvk/6liOn8C+fI4CwAAAAAAAACukghtWbNWQWtWaP7EV/Tix36a9J/mcvdZEqapfV9RZI9l2vDdLM37brU2DC2lKd3GK8hVSu0/3q+tE1tJ943T1sP79cfh51K6jZeKqlGvWQqy91uoqY9E6P1fk8eTvXQVbvJTh3ZtnbXzdWx3r8rfWM5Zyym2apzHeAxjfj7mTo5fr0/fDVa0yqr90JGaNmmI+jQ1A9xmpKTqP/yQAp0uY2p3fFqv/uch1fcYNzethJ+Xal5SDbVqebsalPSSDn+lER/9rmgvfz1mfeaEoS1VzeuM1n80Scm98F/YBc7BHHtauFT/IU34/BN99U5bVYsP1/TFwVbmVn03M1wJpW/Xq2PHWN91jMZan2261M8psjjI0EvTt27Utt+m6wW75cIebT0a6wQYrrWVmjZilN50pg/mO8GO8iXlY82qdv1US4bdp6qlpKgd3+mdFx5WvSZd9EHIP4g0JEVp6cdfaHNccTXu+qRaeg7G4OFses14AAAAAAAAAGShSO3aHKatm3frD/nIP/9GzVsUJrs2MGyt5m1spQ6BVewtDf/Wj6hD5IdabfpEvyA/+af0ru6j0v7OYiZ0eCD9QIIJQLR/IOMARI6zd6vWmy6Dbm2u+6uUVKEi/qroV9Cdly4v+daso4pOUKF8ldtVv34d+eZ3r6erSlu9NfAFdevytNrXL6nobb/rkJVcqOVDam99pm+Vh/RYc7PhEevP2Al+XFDG55B87Orli+rg5vUKPnpG+az1hP1HrL91ReVrAhN/BOuLb4O070xBa9/KKmYOkkNkcZDBW0V9fORTqrGefelxmY6BQt8dqWlOfb6R0uIoNt4ezyBZXFZVtOcxHRIZj2v61l06eCDNNLCxEwTxUe2u72nFLxu14vPX9VhjE21Yp3cGzsiwqUqBAu6/tbExp+x5KklRWv3JJ/r+cH7d+nhPPVYjo7/hUfrjT2t2Q6lUA0IDAAAAAAAAyEoN1KFXd/W0p0GaNLeffIf30CQTRIh3aavZJK/5n8M7v10RvOvwZQwO/Q/lyZNbfXo9narbJLNs0kxezlNHfd4downO1O+Oku7kpATZwxKUKpoy3kJWO2t9pnHjDedaTPiWKetecPIyK/nYod9+qpGmS6T3VrjrmAsVtL6fv+7r/7Tuqy4dXLFAw17qpd7jVygyB72IftX+5vm06Kb+d5mlEL354Xdy/9MrpVqN7URp9VIt3+NeNN0srflmqXux2V2q7/xZpoiNUbSzqL/SH8zEu6Az6IP1STGeg6lUr6fH7CjDDM1eks6g0skDtiTP8/qo6l2Pa/RLD7nXt7nc0ct0+PiWUgFr/ufxE+6EZEkntG76J/pqX1417PIfdat9gRDan1EyMQaVLZV6QGgAAAAAAAAAV08JX/maF4IjY+0XgpuaNM/Bnl3xdh1l1XLuV5qvFtNqwXSNlOyhB3NiN0kXkdtLXmZuv+l/dRQq6G4pse/wub77I53lwk5eZuWzvo9R+5kxqQa5/url5u4gSonb1WXIRM2a8JK63FpQketn6bsd9i45wlUMb5VX+xf7yh4cfOFIfbTaXVXv37aX+tvDH6zU4EdauQeJbvmwXl5p0kqpR4/75W5BVEp+NZx/sKuH6Yl2ZkDphxXQZKAWu1NT8a9Q31maoS41m+uBds3V/Zsoybux2jzrHm9hsfWHGGAfx5laBqj8xBArJ0oLXghQ80e76OURZsyGUereb6K9jx6uoqrupfNVrqZq1hWNjTgs69bjSNS2Lydp9rZ4eZW0/rGHfq/pX8xNNX2/zaPlQ8QRmdBHxcqV3OsAAAAAAAAAri5XrLbO/Fyz1EqNavtIFQLUIXCJpswNVoyzSfiC6Zrk+5ya3eok5PGW9kboD89ARBYxXSNVq1pZ9W6trQfvz8ndJIXru+mfaorHFGQqR6vfrlam26HdCzRm+lIFBy/Vd6suNnBvSRV3qo9/WfaVgtYFaedJ9/qlKFTndtX3khJWfaUpP69X8M+favoqK8OrsprVST0exC9BC+1zmv3t705KsvTPoVijpvaxQ6e/q+nm2MFmWqr5QeHWlnu0fK75jr/r4Fkv07ghx7mqbWi86z2u/v82VzlKH4+YqI2mhUGhenph6nT1v6u8lbzHPUj0jijrH+5d6jHlSw1pdm4Ehwbth+qxCu7l8BBru4hSenTyl/rw3+40T6blxPSnGztdIx3UxhCXijkNCGo/fW68Bfs4yYNTH/dRu/JmD2+VqlFLrnXrNPtjM2bDFC3ebwIiA/TNqy3tMRvSlbuabq1hzfdv0eaUv8AndPCgu7VFQuRO/Ra85bxp8+FzHUVtDjV9SZXVrbULuxMAAAAAAAAAXAVj1LZcBZU2U8W71XOpr4b9PE7t7V5W/NRp5GdqtLaHqjnbNBonjZz5vJo61Ze+TR7Ri8U+Vwt/K7/uh+7ulbKI6RrprdcHaODLfXJoN0nJjil46Xot8Zh2mOYheeqoQ/+WMh3C7Fv6lUaOX6oTZfzdrRsy5KXb722ritY+0b8t1bgJK7T3cno5KtpcLwxorop5jmnJ5E81cvJ67ctTVu0HvKDkMaer39ZUvtZJRActsM/p0K313S/Vp8jgHJKPrSP6zhzb7jLpK30bYUJWZ3TwJ+s7vveu+vYdpUnrzsi3ZU89mtxRTw6Q6+zZs387y9ecKzY2pSsibx+f9AeITnQp9ozZyls+PulukZqzffrHs/JiUz7x/OOlfJZxiZ/3+wK9MjVYN9zXX/2bXWag4OwWffTaXG2r0VHvdr3lIv9oAAAAAAAAAFzIC/1f06SxI521K8PUYcbLjEV7CXWF2VzPvq/qg3fecNbS1+nJXnbXPtdGghJOJkgFC8orj5N0KRKsfbwyW7tqPvOMzspLhYqk06wg4YxOx0v5LnZO6Z5D8rHN/kVT7x8fo9MmIJG/qAplUcXwQ49316zPnB57rpCQ0G1XtyXDxZhAgI8zZfhPNK+p7DfbXOI/Ymf79LdOPlYGx0v5rMv4vBotdG8F6eCyZdqW5KRdoj9+XmXtU1yBgQQYAAAAAAAAgOzI1GFeDwGGnMFLXkUuM8BgZDrAYJjPLJp+gMHwKmjnXfSc0j2H5GOnCTAYJrhg8nJgxXBObkuTTRVWs/bt1OzmRO39Pf1BqdN1NkJhx8uqYesH1NY9CAUAAAAAAAAAANkaQYasUKa+Hnq0o+6t6QwCcSny+Snw4Y7q0rwSrRgAAAAAAAAAADkCQQYAAAAAAAAAAJApBBkAAAAAAAAAAECmEGQAAAAAAAAAAACZQpABAAAAAAAAwHWpcKFCOhB+0FmDJ3NdzPW5GJ8ihbVn735nDTmV+TM0f5ZZIdfZs2f/dpYBAAAAAAAA4Lqx/rcQfbNwqU6dPu2kIJkJMDzQtqVub1jPSUnfqqB1mv3l14o9ecpJQU5kAgyPPfyg7mza2Em5MkJCtxFkAAAAAAAAAAAAl88EGeguCQAAAAAAAAAAZApBBgAAAAAAAAAAkCkEGQAAAAAAAAAAQKYQZAAAAAAAAAAAAJlCkAEAAAAAAAAAAGRKrrNnz/7tLF8R638L0TcLl+rU6dNOCgAAAP4XFS5USA+0banbG9ZzUgAAAADgf0/0yZMqVqSIs3Z9CQndduWDDAOHva3nnumqm/zLOykAAAD4X3Qg/KA+nDxNI15/xUkBAAAAgP8913uQ4Yp3l2RaMBBgAAAAgPlNSOtWAAAAALi+MSYDAAAAAAAAAADIFIIMAAAAAAAAAAAgUwgyAAAAAAAAAACATCHIAAAAAAAAAADItPizZ7UnIsJZy7l2h4fb3yW7e7H/a+r0ZC97MsvX2jUPMvy4/GeNfO9DPddvsD2ZZZMGAAAAAAAAAMje4l1ntfq3jdq6c5f2HzrspOY8+w4eUuiu3QraGJztAg1xcfF6Z+wEfbdoqX5auVqRUcecHNnLK35eo28X/qDR709SfHy8k3P1XLMgw7E/j9sBhfnfLVZ4xCH99ddf9mSWTZrJM9tcHYk6un2TQo8kOusAAAAAAAAAgAsxlfGrN27U6bg4FSpQQGVLlXRycp5yvqXs73DqzBk7aJJdAg1nzybojZHvadOWMM3+aoGmfD7bTn/soXZ6qP199vInn83UF3O/UcjmrRr+9jglJF7deu48Q4YMGeosXxGLf1yhe1u1cNYyNu6jKXZAwd/vRnV66EF1eayDWt/TXBX8/RR57Jidt2ffATVrfJuzx+WLWDpeI2b8pGWrVntMB1Sw0S3K9dM7GvDRdhVvWl/++fZpwdj/ake5QN12Iz1IAQAAXCkLf/jJ/o0HAAAA4PpiBxh+OxdguKNhA3nny+fkXmGJsQr9cYpGDx2vKWHFddedFVTIybpS8ubJo/KlS+tIVJT9ncy8fOkydvo/Za5Vfm9vZ+3yfPbfL+wAQ1EfH1WueJNuLFdGjz/aUXc1C9DN1avqJv/yOmOd7w0listlfc7RPyJ18uQp1a9bxzlC1joaGXVtWjKY7pCSAwz9nu+hW2rfLC8vL3syyybN5JltMt91UqLC9x9WbIm66nhfG4/pDtWx/gYWLV9bjf6vmeqbv43HwhUeV1x+fnndu1r2LhihVxaEO2vZVbjmDRuheQecVQAAAAAAAADIYlczwBC+cJi63N1ArZ4Zq9mr12nNkZNOzpVnvoP5LuY7me8WFLxRrrMJTu61YerJjca3N9DgV15U/769UwUQGta/Va/85zm98tJzqlunlp12k797n6vlmgQZftu0xZ63bXm3HVhIy6SZPCN528t3QPv2S5XqNlOj+nU9Jn/5WLk+ddroqZbVVcBseuSQIlROZUubFSNcIZtPqrK/v7PuITFexw7sUOiBE0pIctI8ueIVG3fh5igJcScV53JWLAmnD2vHjsOp0i7JgVD9Gu1v/UVz1j3Yxwzeo4hU55KouGPh2mGd+8XOEQAAAAAAAADSuqotGCxRe1Yq5rZuGj2ql5o4aVnJM9Bw8vSZax5oKFG8uD33HIfBtG54qmdfezLLhmlxEbZ9h72cvM/Vck2CDIcOH7XnN1evYs/Tk5yXvO1ls1snFFEl/yJOgqcdmvrSq5oc7F47evCwdOONqmhdjdjVk9Sz7yQti5ZC/vuqtXyupUBs2LcaNvgtjZ42T1M/fEevzN4h+69X8Az1HLlUG5aO1wsDhmn0yvPHkji6+B31nLpOG2aO0AsDR+i/YVZi4mEtfm+IXhj6iabOnKT/WPtO3po8MEfqczQSfp2mngPnWTkntWq8dW7vr1aswuzteg5bpL1mI+uYyz4aoZdGTtPUBdM0YvAkLY600l179MVbQ/TK+zM0ddokDX3NSj/39xIAAAAAAAAALshUtl/NAIPR4IUV+mb0AD12VxX75fGrIbsEGvq8PETvjf/YXm7UoK49N0EF0/tPfLzLnsyyScuVK5cevL+Nvc2YcZPU95XX7eWr4fodgMBunVBAMQc3aUOwe0oZ2DnysCKSiqtMWbOSqD0RJ6Sy5WSGJfFp1lOT/l3LujJ11XvsSE0aO1AdbrIyDizS6KkHdFufN/X26wP1VvvKigs/rD+trL3h4dYx12mN2ui1Ea/rtXt8zYE9OJ8Rtlpbq3fVeyPe1JN147Vm6nh969VSb779ut5+40293tJHIbMXyo43HTmgfUm+8itvH8C2d/8BqcJNqqQiuvP5kXrKtIpp2NU6R+s8X29jpbuPuajAA3p7+EDrmN11ZwHru/4hxf66VKsSG+vFN6x06/zfe/t5tc6547AAAAAAAAAAuIpMf/9BwcF2gKFwwYJq1iDrAwzXkvlu5jua7+oONARf9UDDiegYFS9W1B7g+c6mje201WvX2/Phr71iT0ZyWuCdTdT+gTYqVtRHMTGxdtrVcE2CDGZwCmP7jt32PD3JecnbXi67dULu49qxbJHmfueeNh13xlw4eEhHc9+kSnaQ4bCOHpEq+Zezsww7aFDWV+c++aSWzVutAvd3VWtrn4ToTfrvwj3ya1TL2iZRRyJPqsBtj+rFlpVVskB+eZ0b2sHh/gy/+3vqqYblVKBAXnkdWa4l28upw7+bqaTzp1CmfCnJ+kd6xqwcidSx3OXklxKvOGGdV7xK+vnL3cFUuMIjrGOW9ghobF+oefsb6ql/11KBpERFLP5Gq1RXAdVkfWYBKfp3rQ076W59cf2GlwAAAAAAAABccbmcueSV97wK0OvWtf6uJtBQqKDd6f8lKViggKKvYoDBuCZVzQ3r3mLPFy79SQkJ50d/TJrJM5K3vTxOy4H6j9tv7SdPj7vHvUgdRDh5SHujPbtVOqmIiJMq4O9vt2ywnQxVSER+FTy8QhPeG6aXRq1QwXb99XILU8HvHvuhcuXK7m3T43xG9Qrnum46tn2PjhWrrErFnATDXIrcXnYQwT7HCv46NyrEYUUc8ggq2MfML3+/c/1r7dgaqriScdoxbZKGDBymDyNq68VXHlFtb+sfQ8NH9XLrEto6zXSl9K1C45ydAAAAAAAAAOAivPN5qWn9+ipSqKBOxMZq9UbThdBZJ/f6Y76b+Y7mu5rvbL67uQZXU/HiRe35tBlf6uc1v9jLzQJut+eD33jbnozktJU/r9WML+bZy0WLXq3Opa5RkOGewDvsUbHDIw5pzPiPtSV0ux1YMJNZNmkmL1++fPrXbfWdvS6H03LA8y3/FE7Lg+QgQni49qqcyqQ0WzisPSZoUMH0keSIi9cZealg6Vq6v8cgfTCqrx5vWNzdosAe+6G4/PwuENGyPyP1AM2JSYlSvgIq6KwboTv2mMEoVN05R5Uoca6fsb17tMc6T7/kqIN9zJtUsYKzbjljnady+6j63Y9q4PA39fYzzVU9Ja6RX5VaPq23hz6tAK3ThPnuQUAAAAAAAAAA4FK4Aw0N7Ep3023Sz79dn4EG853MdzPf0R1gMF1DXd0AgzHunTf1VJdH7eUNGzfZ8yf//ahdv54/v7c9mWWTZvzqbNPticc09u1h9vLVcM06zen+RKeUQMOkKdP1Qv/X7MksJwcYzlp/mBM++VwnT51y9rpE6bzlf47T8sAJIhw7EimVKCd/b3tVOn1csUlOM5ikRCWYYRwK5FdBJahg2cryK+ROP7ojXHajE3vsh3IqW9qspO/oocNSSV/5eVztG0pY5xYZqhBn8OXY4Bma+quPWretKy9Z5/Cn9bHO9rG7F2n05HWKzW0dw2leERd90vp/Xtl/t13WeVqzgtZ5Kqm4/G8qrgLWaSZE79GOI1ZGYrzinOEoVORG+flYxz6/TycAAAAAAAAAuKDkQIMZFPl6DDRklwBDsqSkv+15njx57LlhggpTJ421p+QAg5Enj7tC+W/3LldNniFDhgx1lq+IxT+u0L2tWjhrGStYsICaNb7N+gPKZ/+BnTp9Rrlz55Zf+XK6+86m6tKpo3bu2acD4Qft+a11atrbXpLdazUjuJDu7FhX/mnr0o9t1vfLI1WhxZ2qWcw6j4Q/tHrNai1bul/Fm9aXfyFvndr2m5av/lELl63WjoL11KRaRRU98Yvmfb9Uq3/5Rd99v0y/nSqpW2+9SXGblmhVfA21b1IxVasET9tXfauQknfp0VvOjbScp0w5FTlgHfPrpVq68kf9sCWXmjzdUx0qmhMupCKu7Vq2crUW/vCTfo2trQ4NXdqQWF0db/eTiYd45T+tLb+s1aolP2nh6j0qWLeRbrspj7b8sEjf/vyrVi5fqgU/hytPtdq6+ejXenn0bC1ea6X/sFQb4uvqqW7NVPba/dsAAAD/I8xvmdb3NHfWAAAAAFwP8ubJoxtLl9aRqCi7btfMy1vrJj3LnNqp7z79Qbur/Z+ebVtdhZzkKymrAgzx1nHzeye/5X55lq9ao/0HIhQXF6+Ig4e1/rcQ+RQprJI3lLDzf9+5W3PmfatNm0P1+45dio93qUTx4qpft46dn9WORkYp19mzZ69oXMNujTB2pLP2z5gWDKYlgwk03ORfXr27P6EihQs7uVdfwumTijOtHAoUsVsKXAkJcdYxE71UoEh+Z0Dnc+zPy11APpfzYYnxio1LkMx+ptVFsqRExZ2OU0LadAAAgCzUs++r+uCdN5w1AAAAANcTU3m+2qmUNy0b7mhoKuUv8UXxbMYzwOD+Lg2vSIDBiD55UsWKnBuv93KYIQZeGz7ariNPZl7W79PraSUmJmrC5GlKSkpycqRKFW7S64NeumoDVoeEbrt23SVdChNQMIEFE2AwF3FVkHtwi2vFq1AR+Vh/Ga5UgMEwAQufdAIMhv15l/thefPb53heICF3XhVILx0AAAAAAAAAMiF/vnxq1qCBChd0j9FgWjTkVIcj3a0yzHdpZgdLskc3MF5eXnptwH90S+2aeuDeVvZ4CyaoMPbDyRr/0VR7+ZknH1e7+1qp7i21NPiVPlctwJAsW7dkSGZaNJgAw6V0wwQAAIDsg5YMAAAAwPUv3nVWhyL/UGU/PyclZ9odHq7yZcrYwZMr6Z+0ZEjPC/0G69ifx+1l31Il9f41fOYyLRlyRJABAAAAORNBBgAAAAD/6650kCE7yfbdJQEAAAAAAAAAgOyLIAMAAAAAAAAAAMgUggwAAAAAAAAAACBTrniQoXChQjoQftBZAwAAwP8q85vQ/DYEAAAAAFy/rvjAz+t/C9E3C5fq1OnTTgoAAAD+F5kAwwNtW+r2hvWcFAAAAAD433O9D/x8xYMMAAAAAAAAAADg+meCDIzJAAAAAAAAAAAAMoUgAwAAAAAAAAAAyBSCDAAAAAAAAAAAIFMIMgAAAAAAAAAAgEwhyAAAAAAAAAAAADKFIAMAAAAAAAAAAMgUggwAAAAAAAAAACBTCDIAAAAAAAAAAIBMIcgAAAAAAAAAAAAyJVfkn3/+7SwDAAAAAAAAAABckn0HIpTr7NmzBBkAAAAAAAAAAMBlCQndRndJAAAAAAAAAAAgcwgyAAAAAAAAAACATCHIAAAAAAAAAAAAMoUgAwAAAAAAAAAAyBSCDACAFC/0f81ZAgCAcgEAkBrlAgAgPQQZAAAAAAAAAABAphBkAAAAAAAAAAAAmUKQAQAAAAAAAAAAZMr1E2Q4FaGwTTsUleSsZ5Ezh0K1ac+fzhoAAAAAAABw5SREhmrTpg3aFB7rpABA9pbr7NmzfzvLV8ifWjlxtL4+4KwWLKlaVfxUoVaAmt7ip4JZEtaI1ZqxAzRhi1S182sa1qKMk36FnVqld56fo00qo66jX1PLkk46AFwnzEBuH7zzhrOWOSsnDjhXBpynrB4c0Ed3FXdWAQDZ2pUoF2yndmjl3Pn6emOEok55qZjvDapQt7WefKyRSjmbAACyvytTLqSpN1JRVbulkqrWbaGWtW5w0v63RS17Q31mHpWaP6NZXeo6qQCQPYWEbsuKIMNRLR3+hqbtcVY9eFW9X2MGtFKpfxhoCJveS2+tSF3RHx02QxMWnlHLrs+oka877Z/ZpGlPTtbSyvdr3GDrnO20WIXNnqAFrjv1TJeAf/w9AOByffL5LG0N+91ZS1/VyhX1fI8nnbXLcyUeGpYO75VuGeB27YK0yT/UW/abqK61nEQAyOFyQrmgpB2a2W+cFp6wngeK+qiYt0lMUHRkdfX/7BnZt+RjS/T6y99q1+VUpmRmHwC4zuWIcsGj3qhgSR8Vym3KhDirZMjiF0evkivx3EGQAcCVktXlgmGCDFlYTW4qkiZq1mfWNL6PHq5qPUrs+lavz93h5DuS4nRozwZt2r5X0aZE8eSK0C7TPGxPhM6k5B3VfrvyKkFnTsVaU5ydWqzK/erb61HVTa64Soiz8xJM90nJn7HnqHs9WZI5hvMZaT8/Mlw7zTzhjE6bz3GZzAKqdl9v9e1YL02AIUEJR3bYTdl2HXGfT4pLOQ8AuEQnomOcpYzFu1zO0rXRcrBz7//sNXWtbFI8ygMrzQ4wWPfDM8f2Ksy5x6e6J6a6b5r7tLNsxJh9QrU/xronm2NY9+e099MEe5vz78eHDlg/0i32Pd3zmACQg+WEckE71mrpCWvu30pj3h+lcW+b6V19PsUJMBiHw7XLzF1n7Ht7ym//C5UX6e1jlxvW8rmHB+vnvLnvpy4vksuKsPA/KQ8AXFdyRLmQoowefsUpE95upapWyq4vFyvMZCXfz53buX0vT7m1X6AOxnM/pw4mvXu9OZ5dP5P8bJHWRZ47LrT/hZ47MnpWsTl1YCbvrJMEAP/U1SoXsrAlQ5q3VffM0NPD1+pM4QANG/+4XXicCftMr47boKjk+7GXj1r2eV1daxVQ1IqR6jfdepBwsqS6GvTZbdpgWhc4KW4m/RnJbt2glEhxctS3aqPqijZjNTgHsltTDDQtE0I189mJWuh5Da3Pb2cVcA/HT1anMZucRIcdPZa7dYPzmfZD0RnrOG9bxwm3t7J5+Qdo8CvWdyx4KecBAJfu0OGjGv3BR/bygL69Vaa0+y6SUfrlumLdYtgyKA9OLNNbr8xXmOdvce/q6v12HzUpeu6+eddj9ytq/rcKc7n3r7fVs1zw0o1l8+qQ9QM85Q2hJOvz3hupaR4H9qpl3Wv/U1chI9K2sEtzTgCQQ+WIciHlOaCSOr/0jNpW8HEy3FLe1vRgv8naIDTD8qLahgz2qbvJ3bohpTXyubdl3eVFnMJmDtM7y2LPPWekarkMADlbznheSO85welNQn7q+t6ravmXu7Xa/qat1PnET/ZvfPs+H3DsgnUwya3c9pf0UbGY2HN1MP53avDAR1TVW9o1u49eX+pZuEil7u+jcQ9Wt5dT10ed/9yR8f5FU8qcc5zvWCKjZxWr/Mlt6scmq9+YTYpOzvOSEsymtGQA8A9ldblgZHFLhjTKV1I9Mz91VJGnrLlrgz4zAQbfAA0ab1o7PKm7vGO19OtVilKoFs62bui+jdR/9Ch9On6URg9uoRtVSXf1udN548lHd3V9Uv37mPSMHXL56Zlho6wHhzvtwEbCrhCFmDepVFR1H++j0daxzfHHda8tr4RYLfwl1DrXFur/YCWzkeRbV8/0sT7nLmc9lQRtmOku3IoFPG4d61X1DiighPC1envuJo8AyYXOAwAu3Y3lyuj/7r5TSUlJ+nz2V/bcc9nk/ZOC4arw8lPLXv00zrn/Drv/BqtM2KGlwakH1V85/0epbiO1bFFdvvGrNMOUC9a+na176afj++meEmlaKvwwwf7RXrfrm5r12TiNfriMEsK+1cLtN6heh/a6y+lKr9aDpuxor3pF3OsAkJPliHKhYgu7VbNO7dXMYQP0xPNvaPKyTYpy3uwsdkt7PXOnE3iodad1j35SD99ilQ0XKC8y3OdiTqzSlybAUOt+5zngTY14vK6KOdkAkNPlrOcFp9WBNUVt/FVBJqmwnyp6jN+WEPSTFiRVt54JGqleyVyXXAeTEO+vh81zw2inZ43wVZq8PMLOK3jLfRo2wl22fDr6ETXxkqIWr3W3oDh18eeOjPfP+Lkj42cVa0O7fswEGMqo3eA3reO+qucCUgfkASCzrla5cPWCDN4FVcheSNBpc+ffG6pfrXmxiiWVsHuDNu2Ose7UVvqecEWqqEqZm3LkJn35/VrtO1NAN1auZP3491GFutWdoEJBVajVSHXrmvSM3VgnQLXK+qhU5eqqaKdYH/qXmfupVlPrWFZhYBS6qbwqWPOEvxKlopVUt7JzQy/ir1p1rc/xT+8Gv0NhG8y8kjo/FqAbrcKwScd73K00gkLc3S05Mj4PALg8yQWAiTovXf6zfvhplY7+EZVScGR7haurkbl3OyVQhYp+7oW/PB8LpKodX9agZ59U186PqG7MDm0w2be3UFvrflzQut/emGr8nT8VFmKCFH6qUHivNm3apKgEU6hI+478qVI311YFJ6hwY2VTdtRWKbtPcADI+bJ9uZC7jFoOeFP976+kG617b8Kpo1o5c7L69JussDOSl29t1SrvvmfLt7p1j26kWr7Wj/QLlBcZ7nMxBW+QvdnOlZr5Y6gi/7KeLyqU0SXsCQA5Rs55XvhTXw4boKefH6A+H27SGdO7xbMd7DqVFJVba1j/XtYzwZNqVzfqkutgVLqSqpW1nhtKVle7e90tAQ6FhNktBW6s1UJVSzt3/oKVVMHfmtvNBiwHLvbccaH9vTJ47rjQs8rRlPox3XKn7q18g/2ZFZLLOAC4Aq5GuXD1ggzJYxx4ldGNJiqdlGBHmaODvtU74z6zpvlaGWklFC6ofNaNt+1LT6qtVVIcWvWt3nqlj/pMXJXyttMVkXRUayYO0BPPugu0pwcvcffpelkS7ViBaVVRrLCdIBUv4w4iJBdQAHCF5c6dW0889pA9X7R0uRb/uCJVWrZ3JtR6mOijJ3q7779PjEvTPd2FmHbD6bLuuXYZEaEFH5oyxZq+3mvnFCrID3QA17ccUS7kvkF1H+yn0R+N08TB96uReR44sUlfrk/dii2Vf1JeZMS7kZ4ceL+alIzTpm9naOCL/TTw61CdcbIB4HqQI8oFW3IPFWbqo3ETRtndZ2csk3UwPkXdL6dazwtmq6i149Tn2ZfcdUG9R2pmqu6NHBk+d1zi/qlc5FnFqR/TDUXtd28B4Eq7GuXCVSpd4hS2ZJX2W0tejWqrmknK7WW/MVSwZS9nMFBncsZrUPFG6jxwnD5/v48631JAURvmaGGaMaP/iYSN8zVhQ6yKte3j/tzR96eOll+SAvKyC7ajOnTMTpCOHdU+M7eDJQCQNdJGm1u1uOuKNG+7Gg4tm6EF+xPUqPso9/233yX0MZq/oPsH9869OmQnpGWVKHaJ5qdn3vcoU6ypP02NAfwPyDnlgpeKVW6lB5s5lUhpWrF5ylR5cQkKVmil3iOs54y3n1TLsgna/+13CqIbUwDXmZxRLiT3UGGm6iqVcb2+I3N1MAlRf7rHOjDjNLjW6stPdiiq+J0aMcU8L7ymrpXtzdwu9txxsf3TdZFnFad+TOFHFWXmAJAFsrpcyMIgQ4zWfPOZps2crHcGDtBbK+Ks+6qfOj/YyH3zrB6glsWlMytmaOzitdq0yYzKv1ZLV5g3ifZq5dfLrPUdOpTgpUKpAtlWoWA3VTuqlT9Y2wRtyqDC6cISEtzvK52O+VNRp/7UruDQ1McpVtI9+Fv4Gi0M2qCVYe6++1KrrtvsB6SjWvDFfK2xzn/hFz/aLSKKNWuUiaAFAFw6UzhUvMlPNWtUVcvAO5zU7O9MvLtCKTrmmM6citCmjendX9Oo3EIPmx/vh5Zp4MAxmjBugN5Z4c5yu0G33VXJKl8i9Nn7M7TSLlOsKci6N9s39xtU3Bnk+dcVVtr6tdplxgcCgOtIti0Xji2z7tuTNW2h+X1v/a5eOE6TF5v+rQuoWsUy9ibFijo36U2rtNC6R2/YE3vR8iK9fVKEh2jF+g1as+xbrfQYHFQnNmjhMuvZY/teRf/lJS9eGQVwHcupzwsZu4w6mPA1+trc79fP14ezQ+2kJo0aySshQafNypkYRR2PVdSeX7XpDzvb7WLPHRfbP93njos8q1RvpJYmeLLnW42dacrKZVq4+qh9DAC4krKyXMjCIEOcdgVt0NJlm7TpmHRj3TvV/+1X1dK52Sp3dXUe8IgaFY3Vhi9nOF0mzdDMTX/qrM7o0PL51vo4vfzyGE1eH6dSLZ7RwzebHSvprofr2hHu/cusbaaHpIy+fzkKNmiltta5nAmaoT7PD9GHu71SDyB9Yws93tTHKoD+1NIpn+mzTTFORmqmz/DejXx0eqN5eLLOf6N1ro0e0bCO1Z0tACBrmCZtfXt317NP/fuKNW+7GqoGtlYtb2nXl2P09PNj9OWpou6g7gWVUcv/9FPX28uo2F/HFF20hdo2cLIcxQJ6a/D9ZazCYa0m22WKNU1fpf12TNlLjdq0UgXrc6PN/fqjVdqX8cuzAJAjZdtyIY+XTm/fpKVzze/7zzR57g7tz+2jJt1fVmfn7U8v67d55wrWD/wTOzTzoxn6PjzhouVFevuoZF01r2WlJURowUfWZ60pqNtStWg7o7C51rPHO2PUZ+BkLdzjpVpdnrRffgKA601OfV64kEuug7HKj/0/WPf7j5ZpwwkvVbi/l55sYJUPhQPUtqWPvE5t0tiXB6jfR/vkVdrZx3aR546L7p/+c8cFn1Vy19aDL7Wwyzy7nmviMp0o7ed+QRcArqCsLBdynT179m9n+ZpJOBOrBNM/nbePCnreRV2xOmMqgdKmOxISEuR1gX7yLi5BCafilOBVQAW9MziO3Teel7wudt0T4nTGZZ1sBucKADnBC/1f0wfvvOGsZSHr3nrmTNw/uGfGauWYAZocVkBtB7+bUkllS7Lux3bh4aWChVM1hXMz/bX+o7IDAP53XMlyIeU3f0b3ZyPtb+9LKS/O+71+8d/4yefiVdDn4r/zAQAprtrzwsVkVAdzbIlef/lb7ap8v8YNbqVi1v1e+dO519v1TRcoj1Jk8NxxKfun99xxwWcVU34lSgULUDYByFFCQrdlZUuGS2d+3BcsnM6Dgyks0kt3/LMAg2E9jJjjZxRgMEzfeJdylcxDzAXOFQDgwbq3Xt4986hWjhupCTPnaOn6ZVowcbQ+C7OSK9+jlp4BBiO3cz/O6Ac/AQYAuCZSfvNfqEIm7W/vSykvzvu9fvHf+MnnQiUOAORQl1gHk2Ew2a5vSq88usTnjgz395Dec8cFn1VM+UWAAUDOxK0LAJAD3KAbq3lp/y+rNO2j+fpyQ6x8b79fI/7T6hK6WgIAAADwPyFPARXz9VGpEgWUuVeLeO4AgMzIFt0lAQCyh2zT/BkAkC1QLgAAPFEuAADSyjbdJQEAAAAAAAAAgJyHlgwAAAAAAAAAAOCy0ZIBAAAAAAAAAABkGkEGAAAAAAAAAACQKQQZAAAAAAAAAABAphBkAAAAAAAAAAAAmZIr8s8/GfgZAAAAAAAAAABcln0HIpTrb4uzDgAAAAAAAAAAcEl+DdlMd0kAAAAAAAAAACBzCDIAAAAAAAAAAIBMIcgAAAAAAAAAAAAyhSADAAAAAAAAAADIFIIMAAAAAAAAAAAgUwgyAAAAAAAAAACATCHIAAAAAAAAAAAAMiXX3xZnGQAAAACyVPDBXzR383St3b9C4Sf22mn+xSspoEJzdby1i+qX/5edBgAAACD7+zVkM0EGAAAAAFfHwIW9NGPjx85a+h5v0EMj2k501gAAAABkZybIQHdJqbi0dcEnmrQ8wlkHACB7ij6wR8sPnHTWACD7+/fMNikBhh4B/fR991+1Z1CcPZllk2aYbcy2AAAAAHKGLGrJEKtdC8Zr5MwV2hnvq0aBXdTrmVaqWsjJTisxSkGTx2js4o36I38VNWv9jAY8VV9Fney0Yn7/RmPHztGyXfEqfWugnurdXW2reDu5aV3GucSu0Ks1xsj/x4XqWctav8zzAgAYEXp3wA7Nu62m1rYv56RlsaTT2v5TqAavteZJuRVQxVcvdaypmwsk58do3YJtGrM1Lp38CE14c4/m2xumUauyfmpfSIsmb9G7fzhpnkqX1cxnqqvMsR3qN+mIQpzkZPWa36IxTUtIv2/S3V9FO6mptX/oLvWu4axchnX/XaYAVdbf/66oo0Hr1HmFy8nx5K2XejZWm5LOarLIbXru40jdnOqzkxQdskWDfzyu5TFSWd8i6n1/bbWvaC7S8Ytcg1IKvtg1clbNn9W+DTv01tJY1cvkd89I/LZgdZ7nUrf0vjOAayq5BcNNxStpQscvdEvZBk5OaluObFTvuY/qwIm9l9SiwfXbCHVduVzNWy7TM7c4iZkR+bX6T35O3neF6c2mxZxEAEDWiNKyoX00ydVFY0e2kr+TakT++JZ6rgnQpKHN5eukAQCytyxrybB1clc1neJSiwGfaf7Y7rpp0xC1f3WJIp381GK1bEgb9Vzvp55jZ2vWgObS1+3VaXyY0qsuUdgn6hT4uVyB/TTri3fUs9JGDejYXwuPOPlpXM65xKxZoqm12qmpCTBc7nkBABzFFNC0hJ6rWdxZz2pJCpm3XjWDktSmQ20tf+pGVTx0WIGTtuloSv5Gtd9fSIN7N9LafjXVPuGoao7don12fjEF3uunQakmXzVOTNSJv0x+YdW/I22+n9r7JGp5gpTfbFLkBnX2zG9eSPljEhWf28vkSmXLpNrXnpoUUFxMkrWNe5N/oliVcucfv5aXllvHV9oYfNIxzZpxWBOs84tOdNKMnZvUZnas6rWrq7UDGunTfyVpzIT1mnLYZF7sGlzCNbIc3bhBHQauU8C30da5pfn8fypun96dc1zzYxIUbX1tANmHGYMhuQXDhQIMhskz2xhmH7NvxuK1MXSCdsZv18fBKy7jN/pRLfggj8YHO6uGT121qjlIrSsQYACAqyH2yFoFfT5EI7+LclIcpyMUdCTWWQEA5BRXPsgQu0KzhkboxQGD1KmBn3yrNNeLY99Ui7njNS/M2cZT2ByN+ry2Xh32nFpUKSX/Bo9o5KhBco2crmXHnW1SxGrZjLcU/nw/DX2kvvx9q6jF8+M0qvk3Gvt1Oge/rHOJ0MKZc9Ti6VaqY1Yv67wAAOcUUeN766tTjeRmBEai4o8d1fbDJxV/JSuWjZO7NGV9kgbd30DdavuqzE1VNahnObU9fFQzfze1zYe0fEuSujWvrXoli6hYEV+1aeOr9sejtc6OOBfRzfUqK9BzKhSv5afzqd+dflZ+PpWpkSa/UqK2H8qt4XdWlF0d5V1S9ZLzauTWuh9jVOz/6urDgCImVypaJvX+9Sqq+J+ntc7XV52ruTexxZ1U9OEIrTtwXNGutDXl7msYYuWlvYb5y9yU5vi+ij8Sp3q3llOgcwpuSdr30zYNtr5TeyclWchm63rU9FO3aiWsa1REFW+vrOdKJmpRmCn0LnYNLuEaWU64vNXvxTt05K2K6uaknc/6niet63DytOLTXgJzfUzeedcmTuvm7tPCovkU6KQAyD7MIM+G6Q4powDDkdiD6jjtLv1x8rC9TXLXScn7pit6hRaHN9aQFm+qTvgibYx30j0lxSs2OtqaPDOPKPKMs5gsf0UFtu+lgPLO+iVwRe9T2LZ9ij3lJAAALkvTwNoKGjL+4nUsiS7FRIRpa0SsXFf6WQIAcEVc+SDDrjBNVTs1a+jx6mSJWmrWOkwbtp8/1kHkro3aekcrNa3gJBi1GuhuzdGW3c56it0K/Vzq0KSBx4uZPqrTpJW2btytcCclxeWcy/61Wri8udrebiqULve8AADnHNesd5apw4/O00LSMc0ft1IF3tmm56ZsUP3X1+jplHz3tnd/625zYITMXqZc/dZpefIrqSd36Ll+y/WuHTBIx4FYTVAhBdbO5yRYivoqsGSS1h4wn1FMN5eRFm0+oJQqpuiz2pe7gCqm26XOWS0POq59NW9U+wzaaO9bfUQTipVUJ8/PNBIjNWvSHm1rUFNT7rlAfz2ufZq3IUmD7q6W0o1QyBzrew/boA5T9mjw1GAVH/Kz3t121p3pcQ37Td+iwNdXavCFyqLD+zRhX171vrtiSisC21Fr/x/z6MNufqrvJCWrWNYqK/dEal2ck5AUpyOnpfpl03+rN8Nr4Egv/+aAW9S4TPrb26zze3qQ9T3ftK7De+tVcUyouzWK+f7jl6vskPUKeG+DAoYEaZZHk8T4kC3qvbuYJnQqkRLQAJB9rN2/wp7fV+the34oJlyHY8/9FjcBhoc/D9Sv4as1ePFzdlrytsn7pic2eL4+L9lZgf9qrlaF39OCtam7pXMFv6euIwqp9of3qsdHteU/Y50UPEL+bzTUcOv2Ovr7PNZyHvVYYu406zTeWrZbN4S+p9ZvdNfiY/Zh3LZ5pJ0K0ecfVFHAxO4avqi72r1fRf2XnyvHAACXpmjHfhrberFGTQnOsDWaa/cc9b2julr0ektDe7WVf8NOen8j/UsAQHZzxYMMkRGh1v+LKn+q7hnyS3mlhRFpmsFZwvctsTbPn7oSxGLef911OM32RyK0xZoVK5Tq4MpvHVuLI87rAulyzmXroula9sgjausEFS7rvAAAGdq3KFQdjhXR2mGB+mlIoLYNq6h6Kc8FJdS4Zl4t//2Y07XRUQXvlirmPa11u9xBhfjfj2tCgWJ2C4H0HD1iasXzqkCqe721rfXf/EgzMHIRtengp8ADe1TznQ2atT5Ug+fEqkOX2mqc3iFjdmvWttzqF5Cmgj5ZUoTmr09Ut6YVVdFJcjuu+R9sUefIfCqb+6S2H3UCBOmIXn9Ub3mXUId65yrc67W7Q3+PMtfoLv00rIkWVkpUv42H7LzooB3qcKiQFpo8a1r7ZiO9VNbOSkeSQlYf0yI/X3XwHBLDOu93Jx1VxYfqq006gwsVC6iuhX5xaj/sZ7314y7NmrZHi2pW1ku107lIGV4Dx8Xy02Of32Ftq1FZJ8x1eD1QR/rVVBm7u6st9t+h+VbaNjO901SdkmM4MTvUb3acej9VV/XS/ysC4BoLP7HXnt/sW0d/nolSp/+21GPT71HUqaMpAYYDJ/ao0g3VNKKNewwGs62RvO/5jmp56FQ9WqO5fKw7TZNqrfXF7yuU0sHGscUavuhd+dTfrfDBQZo9wJp3aizVH6jw14L0srXJy/f+ZS3/pY9bpYwa41azuR7MN1UrtpwLWoSFzlKkfycFWveesEXd9UHh8VoxYJlm91umxYEP6qe1U5Veo20AwIX4qsULb6rqzOGatDm9wEGYpvZ9RZE9lmnDd7M077vV2jC0lKZ0G68g4gwAkK3wOG4LU9DXYXqqTQCDOgPAFXVS2w8kStV81Ti596S8+VXcIyBQsX4JtYmM0doYayXymBZZDxtjAvJq3nZTwZ6kkN9Pq94tpVTPWo4/7XSX40yX2vVSfHSc9iUV0Ev/KqB9q47qrbjcyp+QXhDA+rwlRzXFdGOUQVAjOihc/azSotvtqfohsiQqf9kSGnNrYZU9+oc6jPlZz601QY40kiI05cc4tb+jQupKcW8TcHB3FRSfWEDFC7mTTcuK4J1xUs0yalPE2SF3IY/8NGJ+14QN0vC7q3i81X9WIXN2aWbFyhreyLMbKw8u6xpFJ6ntv0qr4tEjGrwtUcWsjzuvyyJLxtfA7WL56dodpZmn8+m5eyran2vLbRYO2d1dtQ+oqMbJ398JItmBnSkROnJ3bXW7KTkPQHaXO3ce7Tu+S+2mNlWHaXfaAYaKJarqyyeWq1ThNBX+Gdm/SAuin1LzW9x3Or/a7RV4bIoW7bdXFRu6SJ8nPaUnWnmEOi/1NpG7nlrX9ghaJIVozd4jerRGY3nLLIeoTYV61oeYbpii5SpxsxomBWuXPYYNAOCylG2lVwf7auTg6drqJKUIW6t5G1upQ2AVJ0Hyb/2IOkR+qNWbnQQAQLZwxZ/IfcuZm396HaJKddK0QDB8/VqZOpV09yiddvuyfqpqzeLsgTjTqOV93tiWl3ourjWLNTHqObW9w8dJuczzAgBkIEHRp53FjJQro/Yl4rR860lF74zRvhrF1b6GdT/eYy3rkNbuzK3Ot5qu7KI1f8J6FR92bnr3d6lMSXNPTrL/S6ueaerm2qPhU6MV2LWxet9RW4P6B+pEl8JaPnOj3t2ZZifTjdHG1N0YpRapeUFxanP7TWp8XlHgqzaP1ddLZnq6qRY2zasJP+1zBpc+Jz7ksMa4iljnUsJJcYsPDVbbAStV/72NajtyuTqnPDid0lHT61Me99rF7FsdqSklUndTFL9ts3pvLqDhrUo64x0kyrT/iDNBmzgTqTmr5bN3aH61Gvq0XXV1+vcd2vt6VQXs2aM289J2dXiha2BcLD8DZ/9SiJmf98skUfHmZO2AQ2pHl4eqd3xJDW7k7Q48xbr/PONireXzxm0AcK34F69kz7dHbtUNBUvpyy4/2UGFiOh9Ohi9XzcVr6yvuq6Qb+FzTbTMtkbyvmlFbJml5XlPaOOy9zT5C2v6Zbu88y7WklD3XdcVf8T6f4FMP+34/aubHj02U8tN4GDbCn2tl9TmNtO+LV6us9LyXx9Xj087uqfvZym2YICqXmJ8BACQmn/HQRpb9C2NmhmRug4m3uUOPJjeK5J557dfpKGHCQDIXq54kEF+VdVWwdrpvEVkc+3Slu+kpjXORZ+T+VesLd/FoQr3bOq2f5dWK0B1qp6r9HfzU/X7pN92eVZ4uLQzdIl0Zy15jp1pu6RzcWnDig+lJwLV1KMy5PLOCwCQvmKqaMY1OB6n1D1le/JV4C15NeH3w1r+e5w63HyjVKW4OhyP0fbQE1pkHSPQvsGXUKf+LfT3mHPToNpW8o2F1F5x2paqaPhTwZFSYIXS1hPIcb2VVED1U950z61iNSuos68ZsyH1We37MeK8bow8xW/cp8HHC6hbswwGa0iRW8ULWZ930pXme0dq5g8nVbZBOQWmqoA/oHenH1fFB5to2+umS6RAzbzVyVJhlTHxCFdiBmFzD649mvLz+d0URR+K07rE02o7JjlAc0BvWelvfWUtzzUX7pDWbZMa3+RRQ1bkJnVulE/r9sU4XVm5XewaXPo1SqOItwKVpLjkMSFSFFCZotZ3iDu/5cm+Q2d19Pgx1R/hfK+PIjVfZ/X0R+vV7eeM/8YBuLoCKjS359+FfWnPTWuFL7osU/liFezJtGDwDDAYydsm75tKUogWb1uh1lW6KbBSPdW2pzZqV6G1lod+bXdb5ONj7oIn5LrojTMDJZurle/XWrzFDO48S6VrP6hadjFSRqUKWuXLv+baXSWdm/7j5AMALp+fOrzcT9Evv6X5nm/o3FBKTc3cs/WydWM3v/KqlivlXgcAZAtX/qdw2ebq9MQujXzvG4XbBUGsdn0xXZNq9dO9t7trVMJ//kQj54S5B/Zp0Fy9GljrE4NlespQYpSWzZiuoPseUQt7fIQIBU0co1lhZutSurtjF+0cPUbzncqkmN/naOrEWnq1tXswaFfYHOtYa92DQF/Cuej4Cs2z9u/VMs0QmBc9LwDAxeVWvduKqnHEUQ3+/oD2nYzUuh93aabnYJoWu8uknYc05kAhNa5qFU25b1TjanGa8O1xnbC7SroA35vUrWKiBs8L1T5zr086re2Lj+jdAkXV4ZZ81jNLIXXTSX34o8fIPYcPal5kbgX4eQwT7Iwj0Ob28hn07X9Si4JOurstStu3XsxRhRw+fa5roZg9mhJ0VvXqlNTNTpLt94OacDyvejczLTM8WTt6vnjvOqZ9KXXk+VS/RgGV2XnEKvucivaYCAWbl3TTsMd6UBF1StNNUZl77kgVnPl7TGUNt9KHd7WW/20q4qzztE5pyopt7mtoJEZqYYj1HW4q6tGq4wLXwHax/AvwK642hRI15addOpp8DnbEwdf6/rm1fOMBLTrmZCTG2V1lNf6353eypv5l1N66XjP7t9C8e1K3FAFw7XS8tYs9/3jtGG05stFeLutTXnO6LNPcrivtZU9mG7OtkbxvKqZlwdmn1C6wtQJua54ytb6rs1qfnaU1oZJ3tUA9kXuWvli6XU4jJ7lOJUcc8ttPQRHHnRBqug2fiqlJ3YH6becQfbyzgtrVTw7dVlSdCo31efBUhXnGMo9HZzhoKQDg4rxv7a5hfSM0cvQSJ8VSIUAdApdoylynXsYSvmC6Jvk+p2YpL+QAALKDLHjfxkctBk9TX9cYNfKvoNLlblHTj4tq7KTuamjX68dq59LJen/GRncgQLXUc+JnarS2h6qVs7b3b6S+m5tr3sgHZL8DGbtbCyd/qJnr3VGFovcM0qwXXBp5uzl2BVUL/ERFx45TzwZOAGP9HL0/eYl22h2oXuxcpMifF2jWHV3UtpZ7/ZyLnBcA4JLkr9lAizoXU3zIPj39/i4t9y6mNmnrf02XScWStK5IEdW078/uivVFx5OcrpIupIjaPFVdgxOPqtKAZcrVf51q/pJHnz5V291dT9EaGvNIUUWv2GLlLVdNs837x1Xx/2qot8e4C9Frw+1ujF66J4O7/M5dGhORV8NbVT5/QOjjkRr8wToV6G8du581vblPy28sp3mPeQ4efVKLfjquIzX91NlzQGbbTWp/V17N+2qNar6+XJVG7dKRIudaUxRrWl/zGyRp8Lif7eNX+uCwokt4thu3mLEefopTmzsqpmklcSmKqP2/b9Jzp93XsOYg6zsM2KJZxcpo5v0e1/9C18C4WP6F5PbTSz39FBBxQGXNn5H1PcsO364QE6jqcIsW3hinbqNWuq/vwHWasNvZD0C2V7/8v/R4gx72cu+5j6YEGvyKVVQ5n9T3eJNntjHMPmbftDZueldhvu3VJHkA+GTlWqtdyRB9vGmdVLK1BrcbJNeW2qo9PI/838ijwBkr5O5co55a139Qa9beaKe/sNyzvdY53re1V48zs7WgRGcFety3a7X/r6b5LFKXD/KoyaimamIdo8m0+fJsUAcAuFzeathrkHqm+inup04jPeplrKnROGnkzOdT9UQBALj2cv1tcZavOFdsrOKtgqKoT9q7v0uuRG95p6kfyXB7l8sqb9KmxSrGSs5f0Of846S7eXrHjtCsx5tp4X2rNfORjCuxMv4eAIDLd0yzRm3Swtvqa2bglXzb3AwMbVoT5FWxIukNbmwGVY6z7ue5lb9QIeW/4mH25M+3FvMVUjHvTHxA3ElFJ3mrWKH0u2uS67Q7v0Cagu9KMudgGgxk9jtcCRldh8Q4RcclZdGfH4Cs9u+ZbbRqzw/2co+Afrqv1sO62beOvW7GYDBdJCW3YLiz8v/pv50X2cv/lCs2Wq7cxeRT2Em4UuKjFWsaR+TNgmMDAFKhXgYAsq9fQzZnbZAh2wv7RC3u2a2+oW+rLb0qAMAVYd40T2a6sFFkhNYlFtPNNxRSsTwu7du4RZ3nudSv3x1q75t6e+BKKVMkn468foezBiC7GLiwl2Zs/NhZS59pwTCi7URnDQAAAEB2RpABAJD1Inep36cRmnk8yR5AuGLRQhr0UF11q5FeawMAwPUu+OAvmrt5utbuX6HwE3vtNP/ilexBns0YDOl1kQQAAAAgeyLIAAAAAAAAAAAAMsUEGejRGAAAAAAAAAAAZApBBgAAAAAAAAAAkCkEGQAAAAAAAAAAQKYQZAAAAAAAAAAAAJlCkAEAAAAAAAAAAGQKQQYAAAAAAAAAAJApuU6dOfP3mbg4ZxUAAAAAAAAAAODCChYooLDfdyrX3xYnDQAAAAAAAAAA4JL8GrKZ7pIAAAAAAAAAAEDmEGQAAAAAAAAAAACZQpABAAAAAAAAAABkCkEGAAAAAAAAAACQKQQZAAAAAAAAAABAphBkAAAAAAAAAAAAmUKQAQAAAAAAAAAAZEquvy3OMgAAAABkqeCDv2ju5ulau3+Fwk/stdP8i1dSQIXm6nhrF9Uv/y87DQAAAED292vIZoIMAAAAAK6OgQt7acbGj5219D3eoIdGtJ3orAEAAADIzkyQge6SrrYjazV14jfaetpZB4DrTqx2rVmrrUdcznpWuVqfAwC4Ev49s01KgKFHQD993/1X7RkUZ09m2aQZZhuzLQAAAICcIUuDDJEb52hoj04a+mOUk2KEaeqjndQhvWlqmLONte+a6XrV2rdtYAt16PGaZm2OdXLSyuB4HsdKERmsWcOfVYehKxTpJKUvVrsWvKWnHmqhpvd1Ut+xS7TrQkGBxCgFTXxFHe6ztn/oWb06NVgxTlZaW797S6/u8pZ/ISfBiI3QMrP/o9O11UnyFLN5zrlr8egr1vWMcHIAIDvarYUPddLY9Rndt6+Uq/U5AIB/yrRgWLXnB91UvJIdUBjU4m3dUraBvPLksyezbNJMntnGbGv2uRjXbyP02JgWmrzFScisyK/Vf/iNGhIU7SQAALJOlJYN7aQOry5RuJOSLPLHty6hzgYAkN1kSZDBFTZHfR9qpDrPf6Jl69cqPFUFvZ+aPf+c+qaaHlHD+LWKSXQ22fyh2k/arart+mnU+Hf0VO0IjWzdR7P2O/mppD3eA6p2eK3i5e3kW1xhmvVyJ9Wp20cTl29U0JELV0htndxVTae41GLAZ5o/trtu2jRE7a3CL/1CLlbLhrRRz/V+6jl2tmYNaC593V6dxofp/HdrwxT0VZg6tQxQUXs9SkFjn1WjGu01dO5aBf0ce94+ro0fqtMT38g7sJ8mLZivScMfUaMSTiYAAACQzZkxGJJbMEzo+IUdUMiIyTPbGGYfs2/G4rUxdIJ2xm/Xx8Er0vntnZGjWvBBHo0PdlYNn7pqVXOQWlco5iQAALJS7JG1Cvp8iEZ+5/lSquV0xEXrbAAA2U+WBBlioouq7cif9Mfa2frP7U5iCh9VbRKgpp5TsUgF/dpKve6r5d6kSnf9NOMNPdW6vurUqq+2zz+vTlqh1VvTFD42z+P5KXLOGG15cL7mP1XFybfExKho6zcUFL5a81/I+KHGFrtCs4ZG6MUBg9SpgZ98qzTXi2PfVIu54zUvncYRCpujUZ/X1qvDnlOLKqXk3+ARjRw1SK6R07XsuLONw7VmsSZGPacOgT5OSoziyz2jhfs2KGj0I06apzBNHTBG1UZ+pKGP1Je/j491Ptb1sM4LAHKcRJdiIsK0NSJWruSgchqu2FjFWFOqiiKXlRa5W7+FRSiGruYAIMcxgzwbpjukjAIMR2IPquO0u/THycP2NsldJyXvm67oFVoc3lhDWrypOuGLtDHeSfeUFK/Y6Ghr8sw8osgzzmKy/BUV2L6XAso765fAFb1PYdv2KfaUkwAAuCxNA2sraMj48+pOznMJzxEAgGsrS4IMvk1aqUWV5Ir0i3Ep6NvJCn++i9qWdZIKeXu2Q5CORypSpVS9XCknIT2x+m1sH00pO06z+tZPvb9vgNoGVlHRvM76hewK01S1U7OGHkcoUUvNWodpw/bzuymK3LVRW+9opaYVnASjVgPdrTnasttZt7m04ec50iMBapRy6Cpq8Uh9+aY6WQ/7Q7UszLouTS71WgJA9uTaPUd976iuFr3e0tBebeXfsJPe3+gRSohYor6BjeR/R3s91a29Gvb4xm49Frn4FdW53Up74TWNHPqkmlZtpr6L0ws4AwCyq7X7V9jz+2o9bM8PxYTrcOy539UmwPDw54H6NXy1Bi9+zk5L3jZ53/TEBs/X5yU7K/BfzdWq8HtasDZ1V0eu4PfUdUQh1f7wXvX4qLb8Z6yTgkfI/42GGn5WGv19Hms5j3osOWptvU7jrWW7dUPoe2r9RnctPmYfxm2bR9qpEH3+QRUFTOyu4Yu6q937VdR/uTkGAOByFO3YT2NbL9aoKcEZtka76HMEACBbuPYDPx9foXnjfdXr/oDUgYEULm2dOVmzGjyjuzNshGBtM76r2o7Or2o3RGnr7sw3rYuMCLX+X1T5U51MfimvtDDi/Iqt8H1LrM3zmy1SKWBNuw57bH/R75mOyAgFyUexu77R+33dY0089ep0/XaxKD8AZCthmtr3FUX2WKYN383SvO9Wa8PQUprSbbyC7OeDME3q9ax23vexdm5apnlfLdPWjx+Qr5XjG/iGtpq0L6z9rPT5I/00a8Fa+mgFgBwk/MRee36zbx39eSZKnf7bUo9Nv0dRp46mBBgOnNijSjdU04g2E1O2NZL3Pd9RLQ+dqkdrNLd+LVdUk2qt9cXvK5TyFHBssYYvelc+9XcrfHCQZg+w5p0aS/UHKvy1IL1sbfLyvX9Zy3/p41Zl3Pskq9lcD+abqhVbzgUtwkJnKdK/kwJLWsuLuuuDwuO1YsAyze63TIsDH9RPa6dapRkA4PL4qsULb6rqzOGatDm9wMHFniMAANnFNQ8ybP1ivGbd94w6OD0lpeXa+IkGTPHTpInd5X7USI9LLt/WGjq4uarFrNXYjnenP/DzNRSzfoVm1Wqnphl8z/REHjZNIb7R9z9LDXuP06Thz6lp/Cdq+8SH2kqBCiCnCFureRtbqUPguW7s/Fs/og6RH2r1ZmvFye/Wsb4zXo0Hb3dY1u5GybrvFS1Kyy4AyOly586jfcd3qd3Upuow7U47wFCxRFV9+cRylSqcpsI/I/sXaUH0U2p+i3sMBb/a7RV4bIoWOWO4xYYu0udJT+mJVhXdCcalPvnkrqfWtT2CFkkhWrP3iB6t0VjeMsshalOhnvUhphumaLlK3KyGScHaddjeGwBwOcq20quDfTVy8HRtdZJSXOw5AgCQbVzbIINrrb6fHKkXu7Sy31hNyxX2iZ7qtlz3THlH7S84DIGPGj7SXT17WdPLb2vWe60VNHhBpiLbvuVM4ZVeh65SnULnt0Hw9WslJaa/R+mU7SO0cOYctXi61QUCJefz9att/f8R9er7gJpWKSXfKgF6asggddr4uX763b0NAGR78S73A4Nnl3Xe+WWqhewWX+nlJ3O6UWra+Vk99UQntR+6xMkAAOQU/sUr2fPtkVt1Q8FS+rLLT3ZQISJ6nw5G79dNxSvrq64r5Fs4ue9U97ZG8r5pRWyZpeV5T2jjsvc0+Qtr+mW7vPMu1pLQfXa+K/6I9f8CmX7a8ftXNz16bKaWm8DBthX6Wi+pzW2m7XK8XGel5b8+rh6fdnRP389SbMEAVb3E+AgAIDX/joM0tuhbGjUzInXdysWeIwAA2cY1DTKEL/hE75d6Rvc2SacDoYhv9GLnxar9wTS92OCSOxiyeRc1IYtIM97z5fOrqrYK1k7nLSiba5e2fCc1reExmLTDv2Jt+S4OVbhnQGP/Lq1WgOpUdd643b9W85a3Uoc7LnPA5htKqamsY5tnpGSFfFRUVmHKYEcAcgr7XmbxvG+54mU6oahqxtqx82PNM0QaUVo4+lmFPzHb3Tz6i1maP7SVkwcAyCkCKjS359+FfWnPTWuFL7osU/liFezJtGDwDDAYydsm75tKUogWb1uh1lW6KbBSPdW2pzZqV6G1lod+bXdb5ONjWjCcMMVN5pRsrla+X2vxFjO48yyVrv2gatlPTmVUqqAU+K+5dldJ56b/OPkAgMvnpw4v91P0y29pvjtW7Hax5wgAQLZxDX8Kh2nhpyvSf7s/4hv1vG+88g9+R73qSjGmmwx7ctdAucLmaOTEtQq3V6K0a3eUXMmFjitC8z//XLovUI3Sax6RjlTHK9tcnZ7YpZHvfaNw+5ix2vXFdE2q1U/33u4OdoT//IlGzglzD0zUoLl6NbDWJwbLjmkkRmnZjOkKuu8RtXAGg966yFp/pJ3uTv3sdHEVAtQhcIkmTlmhSOf7hX83R/N8n1ND08gBALKzRKdmx7mXTZnr3Cct4Qus+6p1L2t2q7VSobZaNFirmbPP3et02rnfewYeEmMVfjidMXeSPwcAkC11vLWLPf947RhtObLRXi7rU15zuizT3K4r7WVPZhuzrZG8byqmZcHZp9QusLUCbmueMrW+q7Nan52lNaGSd7VAPZF7lr5Yul2xSe7dXKeSy4v89lNQxHFnsGYnP7VialJ3oH7bOUQf76ygdvWTu12qqDoVGuvz4KkK8xxn+nh0hoOWAgAuzvvW7hrWN0IjR3u0XL7YcwQAINu4ZkGGmB/naGLUc+rZ7vy3+yM3Ltb8yN2a9UILVatxi8f0iX6z8sPXz9H7k5dop6lrcoVq5jNt5O9fQaXLWVPFZhrpel7LRrsHDb0UqY4nH7UYPE19XWPUyD7mLWr6cVGNndRdDe0YQ6x2Lp2s92dsdAclVEs9J36mRmt7qJr5fP9G6ru5ueaNTP78YP00OUw9H2x+fl/jF+WnTiM/U9PN/VXH+X6N3nOp78zn1fTyGncAwFVUS3cPDtCGF5rpqQWmGbP7XpZynzT3snHSyJR7mXMfDT53r6tzn+mTtZTu7tJd8a+2UKP72qvRHf21RZ4tytJ+DgAgO6pf/l96vEEPe7n33EdTAg1+xSqqnE/qZwGTZ7YxzD5m37Q2bnpXYb7t1aSkk5CsXGu1Kxmijzetk0q21uB2g+TaUlu1h+eR/xt5FDhjhWkPbKmn1vUf1Jq1N9rpLyx3gg1peN/WXj3OzNaCEp0VWM5JtNRq/19N81mkLh/kUZNRTdXEOkaTafMV4eQDADLDWw17DVLPVBU5F3uOAABkF7n+tjjLOYp5u9UZD9TtdKxi/rLmeXxUtJA76XKcdzyLGWg03iroivqkLb1cciV6yztN/+Hpbe9aM0YNe0uT1vf7R4VgxucCADnHRe9l9r08Tb7LDPrM/Q8Acrp/z2yjVXt+sJd7BPTTfbUe1s2+7jbNZgwG00VScguGOyv/n/7beZG9/E+5YqPlyl1MPoWdhCslPlqxpnFE3iw4NgAgFepEACD7+jVkc84NMuQMsVrY9xaNrbpQy3rVctIAAACA/00DF/bSjI0fO2vpMy0YRrSd6KwBAAAAyM4IMgAAAAC4qoIP/qK5m6dr7f4VCj+x107zL17JHuTZjMGQXhdJAAAAALInggwAAAAAAAAAACBTTJDhmg38DAAAAAAAAAAAcjaCDAAAAAAAAAAAIFMIMgAAAAAAAAAAgEwhyAAAAAAAAAAAADKFIAMAAAAAAAAAAMgUggwAAAAAAAAAACBTCDIAAAAAAAAAAIBMyfXfuQv+jjx2TElJSU4SAAAAAAAAAABA+nLnySPfkjeoTo1qyhV+6NDfZxMS9ffffzvZAAAAAAAAAAAA6cuVK5fyeeVVgfz5lSv25EmiCwAAAAAAAAAA4LIxJgMAAAAAAAAAAMgE6f8Bddd56vdQmAcAAAAASUVORK5CYII=;" vertex="1" parent="1">
          <mxGeometry x="740" y="311.11" width="901" height="106.78" as="geometry" />
        </mxCell>
        <mxCell id="UgRBFtctamIXkeDdi4D6-21" value="" style="endArrow=none;dashed=1;html=1;rounded=0;exitX=1;exitY=0.5;exitDx=0;exitDy=0;exitPerimeter=0;entryX=0;entryY=0.5;entryDx=0;entryDy=0;" edge="1" parent="1" source="UgRBFtctamIXkeDdi4D6-16" target="UgRBFtctamIXkeDdi4D6-20">
          <mxGeometry width="50" height="50" relative="1" as="geometry">
            <mxPoint x="620" y="450" as="sourcePoint" />
            <mxPoint x="670" y="400" as="targetPoint" />
          </mxGeometry>
        </mxCell>
        <mxCell id="UgRBFtctamIXkeDdi4D6-22" value="" style="shape=image;verticalLabelPosition=bottom;labelBackgroundColor=default;verticalAlign=top;aspect=fixed;imageAspect=0;image=data:image/png,iVBORw0KGgoAAAANSUhEUgAABgoAAAFcCAYAAAAZJ+WgAAAAAXNSR0IArs4c6QAAAARnQU1BAACxjwv8YQUAAAAJcEhZcwAAFiUAABYlAUlSJPAAALz3SURBVHhe7N0JXBX1/v/xd4vhUmCLmBWk5XZDy438hVhp5NXIm2llaT81u1qaZtyrpmVlK6XezNwKr1r+07LSNOPqNdNKpJ8LrlApagapCWZCLpyw+H9nzhw4IKsrcF7Px+PAme/sc+Y73+/MZ+Y752T+9luOAAAAAAAAAACATzrX+Q8AAAAAAAAAAHxQ7hMFWb//bicAAAAAAAAAAADfUPWCC3RORmZmzu/Z2Qq46CInGQAAAAAAAAAA+IKM337Tucf++EO7f97nJAEAAAAAAAAAAF9hxQfOzcnJkctFs0MAAAAAAAAAAPgaKz7Ay4wBAAAAAAAAAPBhBAoAAAAAAAAAAPBhBAoAAAAAAAAAAPBhBAoAAAAAAAAAAPBhBAoAAAAAAAAAAPBhBAoAAAAAAAAAAPBhBAoAAAAAAAAAAPBhBAoAAAAAAAAAAPBhBAoAAAAAAAAAAPBhBAoAAAAAAAAAAPBhBAoAAAAAAAAAAPBhBAoAAAAAAAAAAPBhBAoAAAAAAAAAAPBh5+w/cCBnx64UNW9ynZMEAAAAAAAAX/ZV3Dd6/8NPlPnbISelYvG/6EI9cN/duiX8JielcJmHDmn/wYP6448/nBT4gvPOO0+X1awp/wsvdFIKV9HzASqf0h7bympD4rcECgAAAAAAAJDfo48P11PDhujaa+o6KRXLjp279MrYCXrrzTFOSuF2/vSTgq+4QtX8/JwU+IKjLpdS9uzRNVdd5aQUrqLnA1Q+pT22lZUVKKDpIQAAAAAAAORj3UFdkS+OWstemrvArScJCBL4Hus3L81TJBU9H6DyKe2x7UQQKAAAAAAAAAAAwIcRKAAAAAAAAAAAwIcRKAAAAAAAAAAAwIcRKAAAAAAAAAAAwIeV80CBS+mbv9Gqb8xnR6aTVvG49n7rXodvvlW6y0k8nQ7sOLPz8/h5vT764GN99m2Wk1AKv6dq+Ycfa9aKncp2kgAAAAAAAAAAZ85pDRSc/AXyTK16q5e6328+sTuctIonc81k9zrcP1mrDjiJp9OP/z2z87Md0sr5C7Tyu/N1TeOqTtox7ft+s9ZtLOST4ryd+4IghVyyV+sWL1RsijsJAAAAAABUPt9v3a63p8/SMy++pj79h+jBvo/p8aFP6/WJb+uHXXkXBe59sJ/9AQCcOac1UHDGL5Dj7Pl+mT7bJV0VEaHrcveqbfpsxseaNaeQz9d5FYDaN99ixvlVy5dv5qkCAAAAAAAqmWPHjund2R/q2ZfGaNmKlXbA4PCRI3L9/rv2/pymb1av0/BRL2pyzEz9/jtXBgDgbOAdBTgFjmnd/63XUQXppmYXOml5qrXuozfHvJD/8+B1Tl/jgut1UxPz/9tVWpnhTgIAAAAAABWfFSQY9fxr+mzx58rJydGtbcP05D8GafqU1zVr2pt6efRIdb/nLl18cU19+XW8Rj73sjMmAI+DP67W+vWrlbjPCaT9sV/b1m/RT7+5O0svW2nbzXR+KsMFuKy9SjTzXv/t3nJ5g+9x2+aUydAP1nqv36GDTkpld1YCBa7MTGWaj+uY0/1TKZsoOpap5A3WcN8ooZh3FrgO7FCCPT3z+TZdx03ymMuev/cy2A670zIzvcbIHdZJc5ViGXLnv0HJZXmSwjN/z+zNvOxl9Pqe2+3wbMt8y1yCvCahiloHl9K/dbaf+ST+VMK0/9ymTd+b/1c01HUXuZNsv2fZBxD/AO/Ewl3XuKH5u1ebEp0miQAAAAAAQIX34fxF2vHDLjsQ8MIzw/XYIw+pVYsb5O9/kapVq6aG9a/RPV3u1MvPjtDFNQOUkrrbGbMC+3G9Fnzxhfms1nfHvcZxn1Z/ZfX7Qv/9luY3fNLWOXrsn0ML+czRNmeQgn5a8W9Fv/5vvb9pv9297cMX9fTrbypq3nq7u9S2z9Hw0f/W8yPmKNFJKtFv6/W+mXf0h+v1q5NUnhTcNqfODi231vv1pfrJSanszkKgIF2LR7TUdU1batT7i/Rm73a6ts1dThNFd6l5m39o8V5nUG8J/1a/21qqXRdruF66q31LhQ1bqvzN2v+k5c/dp2ubd9Rd9vTMp1OYrr3lKS3w/kW3TLfnb33e3uKkGQnT3WnXNZ2uBCctd9juU7Tgw6fUrk3+Zbhr8rf5LtynLHted+XO/z61ax6mv88s3e7kmf99/2+Dks28whpa3SPt7ZG+ZKSzbO5ut7xted2IpaarBMd+0oJhZnv/j2d7F7Idf/pSo7o0UfNOzvYzn45tmqjfwmKmvmObtv0pVQsK0qVOku3gb/rF+VqSKvWCdJX5/8OOne4EAAAAAABQoSXv+EELFi22vz/xWD/9pVED+3tB1vsIBkaN0K8HK0kzA39kKzv7mPkc1PZt+YMBWdt2KuWo1e+Yfve+ebUC+u7//quPlnyp1aW9+AO37Ayl7Sv887szSEnqte2g8Ouu1QM3NXZSpLSlz9p5aXpxEYCrwnX/TcFqcV+46jlJgMdZbXro/VHR+iTgr3rmqRF6/L7m7sT0RXrny0IurCftkN9fR9jDPhJpXVKWUj58TKM+9AzrUuLkf6jXOxvM96vU6RFr2IfVqa7p3PWRBvUbr4TD9oAn5tspGjQ5XW0ecE+3fS13csKYT7XOEykw8xn18Ht2kKHWTffqcbOszzz+VwX8+q27fyklvvWY7hv2UYEgyMlyKWHKYxpkba/mD2rsu7M0991X1Mdsdms7Tvyv9WRBppa/1U/2Jmx+r16KsYZ5XS89/qAa1LAnUqjMtHQdNf8vvzzQnVBAld/26ptlsZr1yVf65ttUZRZWEF5ayx1k2JuufXYCAAAAAACoyJZ+8aXd3FCH225xWhLwPVk/79D2P50OHdCm3UW0TvGn1aLFPm1PTlbiD3v1iyt3JKdfpjLttGM6vC9Fickp2us9jJF9NFNpe3aZfsnavu/o8c3EmOnsTTHTT0lX1p9/Kutwpg4edukPp7ct+6h2W8MUXIbjpCvTuhhk/JFlpmM6PPM76eUw/X+xx9+llAOFjF9ZRAzQR+9N8/oMkNUyt0d2xg4lrt+iHzKyjwsgVKndTn8fPEB/vaa6kyL9tMt9Z/Gh3zJ0+Lcjys73wzqqBKttr8f1eERjuS/1ZSvbGj7LvZW951moP47oJ6vpoh/3Fz797P364VurmaIdOlhwElnWcmXkjWemZXUfPuIZsPTLUty2OU62NR9ne/yRnffdTjfz80ze7mct4xEnoRie9dyecvx2yErRNqvJItMvd9oVxNl9R8Hjk7XizRF65JGHNfylKD3iJK9KL+Tu9V7RmvTUw/awz0z5fxp7qzt5+affuC+oZ36jD8ZYV7ilJk9N1jR72BGaNnWEO5N9O0UfxBXdXFHJOmjS7Gl66Z/u6b70z5uc9FSlO8HhxGXvabn97V69MuUVDTfL+sg/n9O//tHBTi21xvfqX8vj9e2WRO34Nlqd6jjpJ8Nsn0/+ZQUsbtJL/3pOD9x6k9rceq/693Iv2/sr18tq1CjTWZcmbe/VA3+1humsPmYdhkc4kZFCHD3qfo7OP+D49xNYfvrmY72/dLXWffOF3n9nmkY9O1VLf3Z65qql2lak4Jd0HdcLAAAAAABUOLt3uy9c3tjKuTm0CPkvluZ9KrrzzjtX+vOAtn3nvh6VtTNZu11SlQvOt7vzpOirz7/Uf+M3asOOnfpu62YtX7FCcSnOhfpft+qr+G/032/i9d8vvtB/Nnyn73Z8p7gVX2udczd/WtLXWvDVN/pq81bTb6c2bDDdK7fmta1+ZKeZ5peK+9ZM/9v1WmSmv2TlN/p8zdbc1iAO71ytBV98rXhrGGcZlu90ogH5mGktWa8U+8ZZl3ZvMdOJ36ztpuukl8Ppv9wef6tWr/laSzb7XhNNaUtfVO/HXtXzr7+p4Y8N1LivnB6OtBWvqs+AoXplhZXH9mrJ6H6K/trdL27yUNPvVX1R2GY7sFSvmPH6jFmqNDthi2ZZ3aPf1IRnBqpH7jyHavq3Ba5y71uh5x8Zoiir6aKnR6r3s3O0zatprbS4f6nfQyM1/JV/K/qVV833IRoXl9ssihI/sJZrqGZ95yR8967dXdZlKWnbFOTeVkP076WxZvkH5m6b/NvQ8GybAe8W2yxT2rIX1cOznqPN90de1BLnrme739+tZqHc/fo8NLX0TTyVA2c3UFDF+W/xq6oA52vJrlLTG50L1yt3KNU6MO34Vu+4U3THjV4vyr2uhe5wvr6/dYfz7QSd5/w3qlUv2O5+uravd54ciLxJrS5xfz0h/vXV9Npa8vf3k18Nf/k5yScld/v4afuy6Xr7bffng5XOExkHfjOH9loKudFdeCe+eZ/+p8M/9ObCDcW/N6I4gbfo6XwvMX5WL/Vro6v+3KvP3l5gN1fk7QKv7QsAAAAAACq21N177P/1r/XNRk6qBF6lwPOkw3u2avufmUpMPag/5K/6Vxa80dJPgUF/UVjYTbrdfG652rrX+5j27i3Q1sTvf+qia5rp9hv/ojr2xSKX9u5xXw2+4KLa+sv1ofb4t4eZ/heYxMN7td25WPzDdzv0S7Z0Xs1rdIs1j3r+7h4eWcmK33ZQ2RdcohvCb1fX8GtU89xj+uXHZOcirrfLzG9ay7kj/XzVDLpGf7k2WNZ9rie7HGk7Uuz+Na4062lN48br1aROMc1cVGRx73q9n+BfWu65sL/nI70yK0XZFzXVkDHj9M74EXqgkdOvUJepxX33qn1td1eTe/6ukf+4Vy1KfmVonp/268I7/qnJU5/RkJuspxSO6It11gtJvQXrgRes5fmnvTzZP67QlC+cfdRa5re+18EqZpjR0Zo8uoMaVjmi1W9N1ZIS20ovoLhlKfO2ybN83lKpeWt17NDYzpcnxJr/O2adW9yrye9O00djItUwK0WzFlvvitiiRbPNstVurZHjzbJNHafxZju428WpGM5uoOAk1L7KE43Ou6MfpfGl3nnlVb3ofN6c7wQ3rrrMFFVSgz7/1pLnO6tBLSl96yKNefw+NW/TS29uONFogbfz5d/gr7qzRVVTSGzTtwVamPq9sEeWAAAAAABAheTn5771MefPHPt/aRzMyLDbWe8/aKiTUoGdU1s3XFVN+uOAdqxJUspRqcrl16iJ942zttr6y3XBCnTSq9b0V1XrS06BOyyr1FT9erVV85JgXWoma3M2bc3gRmpyeQ3nQl8t1XRapPnD7n9AaZnWtPx05TUNFOjvr8AAP+/7YaWfD9h3/Z9Xrbp+37tD3+393X3DrOtoIe+f9Fdwg5ruZTQD+V/eQE0a1FFN03Wyy+Hv7DOH07Yqcc9h6aI6qlfrlNxCW2Ec/PZ7Wa/0rnFzB4VfEaAata5Vvcvd/QpXRYHXNVU9JzBwVf3WatGiqQLdP1ApBav1Tdcq8KJgNWzgvpU7+88CTxTUvlYN7eVprK5/a2En7V6/xd5vcpe5w73qWv8yBda/Vw+0s4bYq5Vlfslw0ctS9m2Tp+F9I/TcY3/Xw716qMUJ3uDtmX+jqwL006bVWv/zEVmxsOxde5WmAAVawZp96/XBp3H64Uh181tca+eLiqLCBgpSflzqfAtRkBWyNEcVT+M4GYfyX9Q+7gXzp4lzLJMys+w2+8uV3O3zoGZtSdZPPxb4PHWT8+SCv5r0eV0r/i9BK959Tg/cZEUMvtGYp94r8lGZatXcR57MjEP2/5Jceol15DqkX/K1BJWufVbJc2ktlTJ/AwAAAACAcqxucJD9f+euH+3/pfHDrlT7f92r3eNWdDUb1VXguVLmwUz30wSNndu+vf2Zrg1xX9hN9nxuNTG0aW+Zr2Ud/nG9FtnNF1nT+Frf5bb1U0C+6IAXJybxR8ZPdpNB3+34yd3G/Lnn5msQpCQnuxxVGzZTqyv8VeXYUe3dtVmfL/9ScT+Wu6tsp0Z4b03+1zjn80+1dy5e/+5cFL/y0tK3vXLG+Qe4L4D/YZbX/CtsmQMvd9pSLxhwOAlne9t45p/46b8VbTUv9PoK9/XSGtVVQ8HqPPzv6txI+mnFAj3/z4F6bOIKpVWgG6MrTqAgy+sQeXiDvnC/NF/63+tkvzO/UXM94EQK5q/8Rp5r0K6V/9X7zvdHmns1SeRIy8gLKnjPouysZnuc9xas/EgLvO7AP3oqbsbP9ZsO5r5Tw6Wjxb4h/7e8eedun/f0/pJCXhbtmY7n//n+anDrgxr7z3vd3d+6zNwK5x9YS1Yg+5cDv7oTinVISd9azxwFqeHV7hTbL+nuCHWdWiqkyAQAAAAAABXM1cHuRjc+X+40nl4Ky5xh614dbP+v8M4N1g31ayvwkktU55pGalLIXd5ZyVu1/dAxVakVoi4d/6p7Q+s4d+uX1l5t2p6urJwaqh9+u+4102iS7zbm853mnl3K/KWIqzvOFcLzLvmLulrL4Pl0CFV9d69SOAXLoWqqd/1N6nL7rQq/tqaq5Li094edhTR/VHldcK47NPPDnrz2/cub7LT97vdO1ArQxeZfjeruR0e8lznN+X6h0+9UONvbxjP/Jv3H5X+nyrB27qa4LmmtXs9M0ZzJ/1SvG6orbfUcLdpqj1IhVJxAweReat6hl7o/2EvtbrlPb9ot5jTXMz1utZvMkd9Nuv+ZzvZd8+lv91PHLtaw96ndg9NlN4V16yvq3da55f/yIHVyf9M7Q++yp9m9Q5i6T3YST1DwX/uqj30xfoPGdOmou6zpdmmnsGGepx9OXK3gEOeJgG80qu999jLfdUs7DfuvnZifn5/zlvRvNOweM//JG+ztc8ej7uaaFpudN8zePs7HrPtVU6wXQadrweNhand/Lw17xXqHwavqN3SKPY7uq+8OyBTm2oZqaEXHU/fkBmikX7XynWmaHrtK65L3KvO3Q/olZbMWTJuiBT+Zw36LW/Q/3m2lpe6VFb6od+017m4AAAAAAFChRbS7Weeff77+b02CEr8t2N758TZuTtKahA32OLe3v9lJrfhqXtNMt9wYqvCGhbd3kvWn+3b+P38/ql8zD2j7TwdVtnuws5Vt37V8TEczD+ngvmTtzb3J1OKvv1xV076J/+DOr7Uo/hstSijw1EJwHbvd9j8OJGvZxq1KTE42n61avWVX3ouI86mmqvY1U5f2bv/O/L47tfsULEda8kat/j5Z234+rD/PP7fIByAqhW+Xavqsf3t9VtjXxmqGtrav62Uve1fjYuO0/puPtMRqAr9Yl+li5wbq/1v2keK+idO239zdp8yPcZq31L08E2ZvsZPCW7e2nzip0bS1Wpgv2V99pOlfr9b6r/+tWdZLhqtcq7ZN89/9/39xsVq/fqne/7TkY0JBJ7ZtivfD6hWKWx+nJZ/E6Qcnzc2skL2Pf68vlq7XT2Z71gwNt9czcda/NMtaz/XWZ6nmx1nvatih5R8vNd3f66ffq1gPGVQ4FSZQ0GfsND1aP1WrVn6jZOvKf91bNfy9f+sRr4cEgu+K1odj77Xb10/Z8I0ZdoNSVEsN7npOS6bcq9xYdJ0OenT4Te4L7+k7zHDbpRYDtfDdEc4F9hN0ya16Zu4reqCRNeWflGCWdVvVv2rSqw87F/lPQvO/6ZX7nNdf7NpgljlVgd0ma+H4B91p3q57UC/nrp85xJzvDpA0+Xve+wfc28f5HPBXl6usof1Uq3GIXN98o/fftt5hMF2Ld5ntGjlCC0d2cAdkCnNuQ93Q2PzftVmbcg9CVVTtgkP6duV/NWvaVI16cYyen/Sxlu+Q6t3yoJ6+r2G+R9c2JVqRnzq6oUnBF/oAAAAAAICKqM7lgbqny5329zenTi82WLAl6TtNiZlpf+/e7S7VuuxS+7svqFnP/X6CPzJ26qv4tUr8rWzN/Vhtuv/lSqutB5d2b/5Gn2/crezzz3f3clS9JlS3NLhENaqcqz9cf+ji2pfkf2rh3GCF3xAs/yrHlPnzLqf5oV1K+fWo3bTM8erouiB/ezmzf03RdynpOnwqliM7Uym7dmrT5rWK33pAWedUU73r/qJAp3elsmeHlixd7fX53h2UCeigIYNbmH3iiFa//66ip29RlWsus0cpWhW1vjNS9czGPLhuqSZMXqGdp67FH5u1DIcXm+WZvFSrD1RRvS6P6++tnD01oJ0eH9FO9c7bryUx/1Z0zGr9cF4ddR3xuMKdOEGjG8Pt/fxg3AJFT1yq3Te0KPt12BPaNoULbB5uP+GTvXWFJrw+R8trtFDbfM2cNFX7uy8zW/aI4mbFKtHanp711F4tstbTbn7oI32ammF6HtFPX3xkuv+lqKhXNfWbIwrsMED3H9/ATbl1zv4DB3J27EpR8yYVZKkPZyrzD8nP399pU78Qx1zKPOI8wnSev/yLeDm6KzPTHLoMPzNMkRM7Me5p+8n/FE/Ys8x+1c365z/WHs9ltpUKWzezfTI9j3gVsoze26+06/D9Aj05Y70u7Txcw9t6X+w/pqO/ZTmR8PNVrUZVmbIgv983661nP9a3je/Rv/pcX8bCEAAAAAAAnGo9HhpoN6lxsv7440899dzL2rnLuuNWurVtmFqHtlDD+tfoz5w/tXXbDq1bv0lfroy3+9e/tp5efm6Ezj335O9ttV6KPGem01JCEZJ//FHX1S994zqnzzEdzjyi7CrVVbNaSRd8CveH67B+c0lVL6yhqiVsvj9+XKuF3x3QH9WDdfvNf/F64eqfyjp8SFl/SOf6XSh/v5J+BzO8609V9bpIddLL8adLmYdcZspVVMO/2mm7TvTt9u1qcLV3u9jHO1X54IT8ka3DR7JV46Iy3pqenS1VOX1X17KPZEh+AapS6OMe2cr+7Yh+t367wpY7+4gOZ0kXVK9exPildKLbpqA/zPKY6VxQvaj1KYpnPa11KTBuVoYOWxdCqwaoxmn6GUpzbCurDYnfVsBAAcqpQ1o5ZYw+2tdCjz7XRdeVoTzft2yiXl56TO0HRalLJWmCEAAAAACAiuxUXiA9duyY3v9ogRb9Z6lycnKc1PzOOeccdb6jgx64t4vd9NCpULECBafZrrVakHpMF19UUzXPPaTd+w7o8B/n6tKGN6v9Naf47tnilJflMMp9oAAowukKFJx8eBawXai2Xbuo7V+Oaef3ZXgr9O+pSjpQR6063aVIggQAAAAAAFQ61oX//33gHr0wargi2rVV44b1Vb16NfsFqI0b1VdE+5v14rNP2sOcqiABCriopvz/PKS0n1O0bc8BHc7xU2CDUN1yhi/Ol5vlAHAcnigAAAAAAABAPpXhTmqeKEBxeKIAFRVPFAAAAAAAAAAAgFOOQAEAAAAAAAAAAD6MQAEAAAAAAAAAAD6MQAEAAAAAAAAAAD6MQAEAAAAAAAAAAD6MQAEAAAAAAADy8b/oQu3YucvpqnisZbfWoSTnnXeejrpcThd8hfWbW799SSp6PkDlU9pj24k4Z/+BAzk7dqWoeZPrnCQAAAAAAAD4sq/ivtH7H36izN8OOSkVi3Uh7YH77tYt4Tc5KYXLPHRI+w8e1B9//OGkwBdYQYLLataU/4XFX3Ct6PkAlU9pj21ltSHxWwIFAAAAAAAAAAD4KitQQNNDAAAAAAAAAAD4MAIFAAAAAAAAAAD4MAIFAAAAAAAAAAD4MAIFAAAAAAAAAAD4MAIFAAAAAAAAAAD4MAIFAAAAAAAAAAD4MAIFAAAAAAAAAAD4MAIFAAAAAAAAAAD4MAIFAAAAAAAAAAD4MAIFAAAAAAAAAAD4MAIFAAAAAAAAAAD4sHP2HziQs2NXipo3uc5JOjVWr9ughbFLdejwYScFAAAAvujCGjV0V2QHtW7V3EkBAAAAgIrl4G+/qeZFFzldlcuGxG9PX6Dgqedf06D+fXR18FVOCgAAAHzRjyk/aVLMO3rluSedFAAAAACoWCp7oOC0NT1kPUlAkAAAAABWnZCnTAEAAACg/OIdBQAAAAAAAAAA+DACBQAAAAAAAAAA+DACBQAAAAAAAAAA+DACBQAAAAAAAAAA+DACBQAAAAAAAAAA+DACBQAAAAAAAADg47J+/107UlOdropre0qKvS7l3RPDn1WPhwbaH+v72VZuAgWfL/9a0a9P0qCho+yP9d1KAwAAAAAAAACcPlmu37VyXYK2bEvWrt17nNSK54efdisxebviEtaXu2DB0aNZGjN+shb9Z6m++HKl0tL3O31kf1/x9Sp9GvtfjX1jqrKyspw+Z85ZDxTs/+WAHRSYv2ixUlJ3648//rA/1ncrzepnDVPhudKUuH6rfnY53QAAAAAAAABwllkX1FcmJOjw0aOqUa2a6tS6zOlT8VwRWMteh0NHjtiBj/ISLPj992y9EP26Nm5O0vsfLdD0d9+30x+4t4vu7drZ/j5t5mx98PFCbdi0RS+9NkHZx47Z6WfKecOffHL0rwczVMdsxFNp8ecrdGfHCKeraBPemm4HBYKDrlSPe+9Wrwe6qdPt7VQ3OEhp+/fb/Xb88KPa3nSjM0bZZe/fqPffmqF35v9HC5avUcJ3vyqgUSPVqeoMcCbsWKJXZ+zQ5RHNFHy+kwYAAOAjYv/7hV3HAwAAAFB+2EGCdXlBgptbtZTfBRc4fU+xY5lK/Hy6xo6eqOlJF+vWW+qqhtPrVDn/vPN0Ve3a2puebq+T9f+q2pfb6SfL2lZV/fycrrKZ+f8+sIMEAf7+urbe1bryisv14P336Na2YfpLowa6OvgqHTHLe+klF8tl5vPzvjT99tshtWjW1JnC6fVzWvrZfaLAalrIEyQYOvgRXd/kL6pSpYr9sb5baVY/a5gTboZo7wqNjV6o/Q3uUtSzT+m1oQ/qjkZVdYYDMtqfukdHL7tC157YvgQAAAAAAAAAp8yZDBKkxD6vXre1VMf+4/X+ym+0au9vTp9Tz1oHa12sdbLWLW59gly/Zzt9zw7rGrflptYtNerJJzQ86rF8QYBWLW7Qk/8YpCf/OUjNmobYaVcHu8c5U85qoGDdxs32/8gOt9nBgYKsNKufxTNsWW1d+bVSG0Xqsc4hCrroIvlfFqzQDh0U6v0EzZ/HdHT3Dq3dukdHCwYQrH77U7T1x191tKhmg1xZyvQe0Zne1t2/5U4v1Wrbq06gLpd7ejt3Z+ns7p4AAAAAAAAAfNEZfZLASN/xpTJufFhjXx2oNk7a6eQdLPjt8JGzHiy45OKL7f/e7yWwnjLoOyDK/ljfLdaTD0nfbbW/e8Y5U85qoGD3np/t/39pVN/+XxhPP8+wZZWdnSXtS1Pqn05CAdm7V+qN0c/r6X/P1cczJ+ofb6yQZ07ufs/oyTfe04x33tSTI0bq+aVp7p7r39OA6KVau3SiHh/xvMZ+6X6PwtHvPtXzTz6jf0ycqxlvj9Ern6WYVDP/n6SgS47qg+iX9fTk9/TG68/rydlbCRYAAAAAAAAAOGOsC+ZnMkhgafn4Ci0cO0IP3Fpf/k7a6VZeggVDhj2j1ye+bX8PbdnM/m8FBqwWdLKyXPbH+m6lnXPOObr7b3fYw4ybMFVRTz5nfz8TzvrLjE+3Ju07KChzpcY+NV7vfbNHmd4Bg6PrFPP6clW/92m9/txTeq3/Taq2e7f2Wv3SVmjs6//RkZsG618vmX7P3a9mZmvVuSzQHnVnSooZ5hut0h169pXn9OztJn3vCo3/9wZddu9wTX3VjPPCi3qxS7DJfSlK3S/9vGmHgh55zp7XUxEX62jKHv1iTw0AAAAAAAAATi+r/fu49evtIMGF1aurbcvTHyQ4m6x1s9bRWld3sGD9GQ8WWO8HvrhmgP3S4lvCb7LTVsavtv+/9OyT9sfiSWt/Sxt1vesO1QzwV0ZGpp12JpzVQIH10gbLd1u32/8L4+nnGbbM6rTTU9HD1bdVVW35eKKefPbf+sqOBEiJC2K1o9X96t+0qskle/Tp/G+kVqFqomNa++lSpTbqpqhOV8huFGnvj/rhzysUFGx1HNPetN9U7cb79USHa3VZtaqqcv5vWvb+Uu0303vsxgKPhfycphRdob8NeVBtLnHSLGbCvNcYAAAAAAAAwJlxjvNfqnK+71yZPNvragULalSv5nSVrHq1ajp4BoMElrMaKGjV7Hr7f+zSL5SdfXwkx0qz+lk8w56Q8y9W6D0D9NpLf1cbvx36YGmSSdyhjVuydNnRHYqZOEaPP/eOUq//u0Y/0EhVXBu1xgzS/KZW8vx82al7tL/aFbrGfrfBj/phl3Tttdfa/Wy/JWpDalW1aNHISciTmfKjMmteq2tqOgk6ph2pv6pacLC8X5UAAAAAAAAAAKeL3wVVFN6ihS6qUV2/ZmZqZYLVHM/vTt/Kx1o3ax2tdbXW2Vp3axucSRdfHGD/f+e9D/X1qv+zv7cNa23/H/XCa/bH4kn78ut4vffBPPt7QMCZaqjpLAcKbm9/s/3G55TU3Ro38W1tTvzODg5YH+u7lWb1u+CCC/Q/N7ZwxjoJ1a5ViPVEgOuospWlI0elKjWvVcQDj+tfrz6lxzpcK39ri2T8pv0KVFBteyzb1h0/SnWuUB2rY3+KUo5erKAgr0jUUTM9+evSQt4xkWI1UxR0ha5xuj2Bhjp13M0YAQAAAAAAAMCZ4A4WtLQvnFtNEH29rnIGC6x1stbNWkd3kMBqZunMBgksE8a8qL697re/r03YaP9/6H/vt6+NV63qZ3+s71aaZY0zzMO9H9D41563v58JZzVQYOnXu0dusGDq9Fl6fPiz9sf67gkS/G5+1MnT3tVvhw45Y5XOzztTtN/ldBiZ2/+jxZulJs2aqIqqynraI/tS6ymBqqb7mDK37tDP1jsMzFapokz9Yr9A4JhSl05UzJos+ZvltGM4e3crVVeojlcgQdXM9JSmnbuy3N3HftPW7daLj9OUmiJdVucKd7rltzTtPXqRrgm+yEkAAAAAAAAAgDPDEyywXvRbGYMF5SVI4PHnnzn2//POO8/+b7ECAzOmjrc/niCB5bzz3Jfsc9yjnDFnPVBw2aWXaOQ/Bqlr5052wMDaWNbH+m6lvfTMMF0dfJV+TPmpzMGC1JXv6ZkRIzUgyv15cupGVf/rAPW9sarpe60iIq7QzwvG6B/Pv6J/DHtGoxZu1P7DptdlrdSm/jGtinlGj48Yo3nV2ioi0IwRbL+gQD//tEe68krV8956F92k/428Qlvff949vyfH6IP1vyrzzz1KTZPqBXs9PZCSop0KNuvodAMAAAAAAADAGWRdOG/bqvIFC8pbkMBiXdu2bN/xg96e/v80OeYdfb8t77291ncrLWbGe9r5w492mmecM+Wc/QcO5OzYlaLmTa5zkk4N+6mA8dFO18mxggNWkMDaOFbQ4LF+vXXRhRc6fUtwLEuZR633H1RRtRpVVaVAaCT76G86esz0veAiVfNzEm3HdPS3o1I1k16Wd124zPx+z1aVso4HAABQiVk3Urw55gWnCwAAAEB5kfX771rpXFi3ggY3t7IurF/g9K1YvIME7nVpdcqCBAd/+001LzqxFmKspvaffWlsvov/5557roYM/LuOHTtmBwn+/NNq6sbtmrpX67mn/3nGXsK8IfHbs/9EQWlYQQErOOB5suCrOPdLH0rl/KryNz+g/0XHBwks1gV9q3/+IIHlfFWz0sv6W/i550eQAAAAAAAAAEB5V/WCC9S2ZUtdWN39zoK96elOn4pnT1q6vQ7WulhPS5ztJwk8qlSpomdH/EPXN7lOd93Z0X7/gBUYGD8pRhPfmmF/7//Qg+rSuaOaXR+iUU8OOWNBAo8KESiweIIFkX+9TXd2jHBSAQAAAAAAAAAno6rfBQpv0UJNGzZQ3SuvdFIrnnpXXakmDeorvGULOwBSnlSrVlUj/jlI3bv9Tbfd2tZukt8jsNZluvXmMN3X9W8aHvWYqla1ms4/sypMoMBiBQsIEgAAAAAAAADAqWUFC64NqvgvVa0fHFzuggSFeXPcS5ozc4r9eaMcNNNaoQIFAAAAAAAAAADg1CJQAAAAAAAAAACADyNQAAAAAAAAAACADyNQAAAAAAAAAACADyNQAAAAAAAAAACADzttgYILa9TQjyk/OV0AAADwVVad0KobAgAAAADKp3P2HziQs2NXipo3uc5JOjVWr9ughbFLdejwYScFAAAAvsgKEtwV2UGtWzV3UgAAAACgYjn422+qedFFTlflsiHx29MXKAAAAAAAAAAAAOWbFSjgHQUAAAAAAAAAAPgwAgUAAAAAAAAAAPgwAgUAAAAAAAAAAPgwAgUAAAAAAAAAAPgwAgUAAAAAAAAAAPgwAgUAAAAAAAAAAPgwAgUAAAAAAAAAAPgwAgUAAAAAAAAAAPgwAgUAAAAAAAAAAPgwAgUAAAAAAAAAAPgwAgUAAAAAAAAAAPgwAgUAAAAAAAAAAPgwAgUAAAAAAAAAAPgwAgUAAAAAAAAAAPgwAgUAAAAAAAAAAPiwc/YfOJCzY1eK6l0d5CQBAAAAAAAAAABf8MOPqXmBguZNrnOSAQAAAAAAAACAL9iQ+C1NDwEAAAAAAAAA4MsIFAAAAAAAAAAA4MMIFAAAAAAAAAAA4MMIFAAAAAAAAAAA4MMIFAAAAAAAAAAA4MMIFAAAAAAAAAAA4MMIFAAAAAAAAAAA4MMIFAAAAAAAAAAA4MMqdaDg4G+/Od+Aiu/x4c863wAURP4Aikb+AIpG/gCKRv4Aikb+AIpG/qi4eKIAAAAAAAAAAAAfRqAAAAAAAAAAAAAfdtoCBavXbdBTz79mP25Smo81rDUOAAAAAAAAAAA4c05boGBh7FIN6t9HU8dHl+pjDWuNA8DH/fmLkjcmavchpxul4/pZSRvXauN3PyvbSYKPIe8AAE6DgymmfmHqGLsynAQAAADoyO5Ebdzxi9N1Eg6lKmnjVqX/6XSfRactUHDo8GFdHXyV01Uya1hrnPLvF305ZYSGPDlCY7762UlzS/7YSp+gL391EoCK4NBWfflOtIYMHqgeDw3RwCdf0Jj31yrd6X2mJX/8ip6bMEXD5m90UlAqv23UhxNmasy8jTroJOFk5R3vP0x2kpLn2t2ez1MTYvRObHy5uDhP3sGZ5MkbhX+oC8HX5ZUf7k+0Js+eq6VJp+BE8izY/aWpX5g6xpc/OQnASalc+QM45crZ+TlQfhQoP54fpxir/NiYqiNn4wL7oa80adQUjXlpspbud9JOSKZWTYvWyxMmaNLy/NeZz4Zz9h84kLNjV4qaN7nOSTo1rOaErCcFymJA1Ei9OeYFp+vkHfztN9W86CKn61T5WUtfekHv7DBfqzRR1BsDFVrd3Sdp1kC9vOJy9Rn7rDpc5k6D75j27hxtSfre6Spcg2vrafAjDzldZWPlqVOZP2x/btXsoRMU+6vZnQP8VdPPSszWwbRGGj6zv0Lsgc6s7N1LzME+UVfe/Zi6NKhmUjbqnYditPTav2nCqI6q5R4MBe1foueGfarkcrqdKmT+8Dredxg6RX2sDJEUox7jNkp+1VQroIp0JFPpVpDg4mZ6+iWTZ5zy4Gw4Pu+goqiI+WPpSwPddaFCURfCqVPRy4/ql/mrxrlW3eqo/cRfg57P6vmIy92DnaAzfc7hnp9XWYhyg/xxvPRlL2jI7J/ZX8H5OVCMil5+FFSlwd80bkRH1Tqjb+LNVNL7k7XAdYv69wor9bwLq8cdTHpPk2OPqEOf/goNdKedDRsSv+VlxiclO1EzP0kstpmP7COZ2r3Delw3UbsyvIfMVvahTB1xWWnm+96tZpitSvcM4vpFu75bq6SUTCfBS7a738YdqcouB4+lwO3XgyU/j53lcjnfyomt8Vpq3fUZ3FHj3nhVE16zPv/Su9MLVkI8+2jB/djx51EdMf2T92bm7ZPZJs3axz2D/5nt7j50NH+309/KK9b3KoG36KGB/dWhrnOhMy1F26z/2Ud02JNnPNO284+j4PQLkZ3mlc/saZiTEnt5vfOj4SowbU+e+26nDnol547nPU9rXCvNM5z3fFypdtMwhW5DjyK2i2e6udvX2ubWcLkzKkoJv90ZUiHzR3HC/tedXyb+S8PDzb7660Z9uLrAnXBF7JP2b1rgt7TLiYL7V1H7gvU9Y6fd1FRSyi+50zku73iUtP86+7p7mmd3P/FVFTF/dBg1RXNmWp9n1edaK8Wq7HrSRqpdVfe+n7ufW7yPj6U9NhaVP+AzKnb5cbnue9KpW73WUQ1MSvKHi5Vk9SrmGG8fn+2ye62pWxWs1/ysXfYJcmFlTHHjOUw+3L1jq3YXKJty85qpJ+32rgOhXKu0+cNRWH3HVkz+2f2j+25M+7yhYDnkYZdHTh6w69Se79Z0rTKpkHLHu9zy5JcdPx8//T8zvc7j89e1PDzrVWQ+xSnhG+fnhexHnnNlz2533DlJgf3Syg/e+2hJ5QR1skqhopcfuecdE4foPlOAZCd/quc+3ur0dxS3z9rnH9ZxPNWr/uWwyoVCr295ygArT1nfq6lh58cUdU/zvCCBV/niPtYXrFcVXo+rWf9vihp4v5oVuAGkdOWg53jgdU35JPBEQZl5IliX6sorf9Hu3ZfqvpdeVJcrj48KJb8/RM8tzf8r1frbEE24u5H55twlffHlanDez0r2PKZS5VI1C8k2O4LZIZ2kmp2GaMp91jhS+opoDZ2VmttPfkHq88JIdTiLESe47d7zs8a++Zb9fUTUY7q8tvue7qLSy+q0RGR3vKe/vxSvIxdeo57/7K/Iuv5ODy9HzL76nNlXvR6lqhXRX9E9m8m6efrg2hg9N21j3gGpSqiejnlIgc7dPLl3BnnueFczPW3dDeF07wrvqJ6/fqF3krLtYQcpJm+8Op+679721q6/5ty+U8OeWqbdgREa+1pXmexn3+nd2xo27CH9u1+oqtgDexxV0uznNWaZk6+q+OvKAFMB2u/Jr56nFm5Rn3obNNsazppPr2ZKj59g1m+rV3M+1RTab5iiwqy7nZzxPOtkUjx33XnW23NXU606/jpoFTT2NKS65ljwvDkW5F9Oo4jtct+eF/Lfzee5s93zBEFhTxSU8NudSRUyf3jdsXDcdnf2D4vnN64SMVDv9mxip7mlKnZUtGbv9jflxKt2OSFXvCY/+p5WVTH7zFv9Ve+7mRo5Ya1X/vFXhyHPmXlVK2JfGK779r2Vty9bnN9cBfOcUar998pGalNlp1bt8kyxmjoMf1V9/nLc3onTpGLmDw9PPvG+KyZba6cN0fh4qc3ACXos1NqX8upPPV95UTcmlXxsPJJUTP6Az6jY5Yd3vvDUGUzd/XVTd/+j8PL++bD9mv3aFMWm2BOyVQkO06gnH1SD6p5peHPqIEcSixnPdPz5i9bOHKtJcXn5zVNuHUl+Ty+NjVduMWDU7TRQo+5rYtcXeKKg/Kq0+SPgZ62aMlaTE7wuVF7cSI+NGKI21nlvoXWkgWrzf1Pselse73nk8Zy3d+kZpFUfWuWMlY/CtPFRk4e8r4uZcqfLk6/qvmvz6nsNQhvpoNfFGPsu1qecunfaEr387KdKcqZRxZRxNUwZd9BTb/zTrPvr0fbyelQJMeP/40zfBesbKmT+KNX5efHH+9x91XNO4DlPzD1ndfJbwXPfB4OKLieok1U6laf8MHLzTZien2jygUkqbp897rqq1/Wckq5v3frA35Q+3zrOW8vwN+0ZZpVdeeO7y5dqurLOMe3e65mIOQd/1JyDt/65yHqcCta1THlRqnKwQSM1+3Wr1uZeUzbl6CumHC1Q7pUWTxSclCDd1zNUNfWLPnl3SaHtxVW/vrOef+VV/Xui+YztrjbmrDd9cXy+uyT0q9Sw51BNmDjSvTNk/6JtfhF6fuyrmjDIuRC77Qf39PfO1xizM6tZV02YPkVzXumoBq5UzV5S4EIqzoorr7hcf73tFv3555969/2P7P/e361+J3qQPW3qRdjRVx3aqdnPj1DvwS8oZpk5KOZGKrO1drY5kO2/VJHDX9Wc6a/ad0+nL/tUcdaByBycxk8xw+tSdXh4iMaa/fj5h8NUlrhVdtwXWvBnI3WICFXzywpcmLwqQsPvvsb9PbCZ+g95SMNvNd11IhRp5Ze0NVq72907OWmrfaBvF1YwSGDs+lSTrQrQxc003OStf79yv0IKO/rt+EoffneZ2phlufVqUymz8px1kdUcbO8b9aImjIpQgypHtXaatU2ccUrpcHAnvWKOBe5pWIv0npbudXoWotjtUiol/HZnWIXMH8VxHXHuANipNf/nvnMtpF6w/T9PkNp0DDL/M7Vqszl2W7Ynao35V71dmEKy12qmVXkJDNPTE627IR7SrX6ZWvrJV/nKlHz7QtX1+tDal81J5VirbJn4ol55sJkpiwpR2v13937V6DjELocea21V9o9qxfoCd2PgtKp0+cMchUNvDbPrMKsS1ror4Ye2aqN18ebaNrqxjpXgVuSx0VW6/IHKr2LnD8/dYplKT1ijOCvpwiDVu9juactf3p9jym73xZ+aYQ/a9arHwqopOyVer3280UztGt065BbnrlJ/3drH1IuGROhKu8wvbjxzDrJ8ssbHZUrBoeo/aqSpCw1R/xvNWaSV1+wgQTW1edRKf1BtzPLtWjxTH3pdzET5VFnzx+7/TrYvjlRpYJ0Xv6jn7w5SlV+3anJM/vPu/Pmnlpp366pbnRORkLut/NFVzYu8b/BnxS7cqSvNuUOHW65RDQWo2YPW+Yz7/H1Cvyaqkp2p2P9LdIZ32+0KUv/nrXLrFvtiVHbyBm2w7gC36nsfuoMEDR4Yak/jldsvy/fuMGu9rCBBsz4vas7MCRp73+XKTvpUsd85A+CUqrzn58Uf70utwLlvseUEdbJKp1Kdf1x1jZpb/w/9rDSrWeBi99lExb6fquzAUPe1IXOsHmvOQ+ybT0txfevL+Z9LzUy5EdFIgec5icc5quqhA835tZn2o03Mubo5B58+X2tdRdXjjlfqcnBvtur1Mfl17BB1sZ7yzk7Vqi0n984fAgUnofpf7tdDra3Kwaf6cG2Bx7KMK0PMSW9t5wJf9WtU17qGlF3w0H25mjW7RrVMpah5M/cdoFfWb6K6l/mr1tXB+XaYg99vlXVNtOGVAdq9ea027juqC0x3dsrPHKDLCc/B1IrCLl3+tf77xVf6eV967kG43Dn3cnUY8aKG/+0aXeln9iVzYP1ydoyGDI1R0hFrgK1KWmv+XVxHtVxbtXHzVh08z9qnf9aefWaf3LJB1jteq0c8qD7hjXSl2Y8btG5Utvbxr+2k54cPVJ+eD6lLs0udREfANWp2rXMXxUXBCjEH5GbBVre/2rQzlXdTId/wnXWRdqvWrDR58MIwtfmLPXQ+6dvdd1TX7fg3NTN5q/pll+uKQk8aminqpaHqb5alvzlh8OS56hFdzUH3UtW6tqvus3/Gn8t88L2yvrV9TL4207jbHDesF/Gs+b6YaRS3XUql+N/ubKhw+aM48e/p74NHmM84zd4h+26wh/7n+Dt+ajYNtSsCuxOS7ON0svkdslVN7W5sIu1M1BpTJNSsd5myt5tj+vYMs7OZgXakKM0a2cN7XwgNUqD1M277UrM/T1TaH/6qW/fy44NjRun33yCFtnaXQw3rB9gp2X8cs//jzKlU+cPS4BbdbVVi1idqmzm5PWLVW0xnyK1h+cqIIo+Npc0f8AkVN3/8og+ft8qKERoyaaOOWHezPdrNvriYK195n+4uu3WNej4QZter2txzu/vOuLgN2mbqP3WbmTxjDWIyRN0QUy8y5xE1PWV+keP9og1rrPpSNXXoZU6Wrw1S9TqN1KaBOfdw8pquN+VYays9TD07W0Huo1qxkaBxRVD58scvStpg1VPM/tq9qxpcdqka/K2z2lmVnR2ei/KOfPmntmr9xZxHO3X8K6+18kcT1bLbeC9cu0fNeVCfh9SnT4TqmvpQiHU+41Sqalx9lUk7vk50ZdMwhdSxyq1GqmenmAz0h/V/p5ITrP/NdHfENapuyrYrA73rhp71ClLdC3dq40brjlWrYJN+2Hv2X15ZWVW4/FHa8/Mij/dl4X3uG1BiOUGdrPKpuOVHAX7VVcP+kq3DVp2m2H02QLWsK/9pG/XhZ/H64Ug1U15YdanSXd9qcM8wPf2oKTd6dlczrxs/CqrX0IxnlQOtuyrSvhacqKSdRdXjCipDOVi7idqEmPx6WSOFeO5b/MPaCCeOQMFJqabQe/5m3wG36v0PtNY+cOexmnwY8ug/3ReTHou2LyadjGznx06KnakxE6zPV+6nE2pUczIFzrZzzz1XvR+41/7/n6XLtfjzFfnSyqVzL1Wzu4dq7FsTNGXU3xRqHexy21s3FWNrt/s1Ue/Y+9xMxXxltbdZTVWq5u2TV17ivrh4JlVpEqobTd5L/j9Tyd6dpDWHzKG2bagaFLOZq5TxJyhs/QJruwN6J3PwrXmJ84jmSR7Ai1f8b3c2VMj8UZSQWzTcesLFfJ5+/lW9O7SIR8YDblGHMPN/R6K2HdqqNfFHzQ7VxlS+Tdqf2fZPdDDuU+eYPl9fWrXtC6vbQeBC+YXqoaf+pjaXHdXGT9/TU08M1VOfJKpA8WM7XfsvTo9KlT9sQWrW5lKzI27U2u+OKmnzTpN2jW5tdnxAzSPfsfFE8gcqrYqbPzx3i1mfIZow+dUSmmlwym4zXs0L7QTp4svdFyOPu9nIW0njmY99N6o5OS5YZXPymi4NsM+hLTUD3TcoEDSuGCpf/ihsf71MV9gXQEw/+6L8aWA38zBCvR91By/+PmqJfcHoRBR+zuFZr1QtmOSum4/5xCobzel8dU/uw6lWIfNHac7Py1xOlKSwfOegTlZpVcj8URjPey2rXK4rrfxS7D4bpMh/PqTIBtLurz7Vy08O0ZApX9lP7Zye61sBqumJNNh5rDQKy49noBx0VKBfvpy6rKP632kq07+u1dLVTprFFa8Pp21V+sW36BWrmaDcl/2duCr23cBSyMOvOi8LdD5Rt+RW7HH2FYy+doy41Y7Sln9VVPPajrq7rfdF7POtZPtO/eft/djz+Zd6mv3Zs0/u2nMW7oLxC1WHdmZZdyRq6apE+/Gwu9u63+VRkKfyvesH73boSpY7ntf6pTnfT7xCn630fe4nkAIDTuRJgdIq/rezZexUcr4XpmfrYMrW/C8UtV7ItmOnDpa6UCtexc0fBQQ2UjPrCRfzCbGfcilKFTVrYT39slMb/7NWVkCrwa1h7rsIzq1i/0TVOwz0+n3Mx2lXsSjV63bUY69M0LuvPaQOdbK169NFivO+q8BxevZfnE6VJn84rgxzP1obt3mektab3GC6b/Sc1B6nwLHxBPMHKq+KmT88d4tZn0aq5a42FaOaqth55GerVTi3/T/rB+t/sRdkShrPzNg+6yvkqcKq1d3nEV5PKKc7dzdXr1pcUAPlSeXKH9VVw74Lzmt//dN8t9tjN/1O0w0v2QnzNXltpmpGDnGXN2P/VsbyxpMPU7Wr0OZFPfkwSP3f8CrXzGd4WHF1SZysynV+fqLlREmKKSeok1VqFf/846iSlnylXeZbldAmamgllbTPXhyqnk+Z8+k3hqjn9dWUvnauYrea8U/L9a29SrdbIfZXzULbCy7M2SkHPQgUnAJX3vmgIgs+cpKdrcPW/yMZSj+QqfQda7TxJJv7qNkiTM3Mfpv03huaHbfWfsP9xo3LtCDeafsa5YZ1oK13dZCua9xAHdrf7KSWQ/uXafKEGL0Tu8zen76MnaCYxdaFmmpqWM+687iJ2kSYismheE16a75W2fvcWq1atkRJh/L2yewV/08vf+KZxld2cyceu9Z8ZcaL19KFq+yDd5nVvMz9qFfKKsWa/f7LpLz9vcGtbXSldip2sTmQX9lczbzavfZWvWWEOpgKVXb8TA14ZYomv1K6J3yqWycv1vrFzdM7Vp6Lm2nynulR5Rq1CfGu0G/Vl8us/nO1oIhXhuxa+amWrjbbbvEUzbSCilWa6Mbr3QVRWayJX2Ln+w+tksybp328lA1aEbfVnOwX/9tJiXpn2Dg999wITU5wBwayE6ZpyHMT9NSw93LfpZL0/gg99dI4DZnutDN+ClSY/HGKVGl+s73/rVkWb36XILULde7qbxSmDqbsOLLiPY1fHG//PhutvLKi8CcEbL+uVayZzsbvdurgH6YCVMz1/tLvvyhPKlX+cJ6oObLU7NfmAHJji2Z2pd1bkcfGE8kfqPQqf/nRSDfaF4R+1oIPrLI7XrEffG7f1VzTemrSHsacaNqN5f6sL/9r6l5xG029q6TxLtWNt15j57+l06P1oX0e4ZxD1AtVO+s8Zsfnes/Ka6vn673/WCfI1dSupXMDhlPHsOsgu71vMEB5Unnyh79CWrv31xUfztSX1vnF+/O0wpQjVa4PVYh9kbQol+pi5wWOa1aYvLA6Xsl2vbdk2dnu0uVwxi9KP/SLktcn5junKVkjdbjLquP9YrctP+atcRo20fvEwJMPUzXzjffs9bLLtjiznGWbEU5A5Tk/L0054Va28/BiygnqZJVexSs/MrRq4Uy9MztGY54aoZdXmDxSJUg973beV1nsPrtTX9rXrrZqd3YVq4GWXKW5vlVaa2Lnusuv2TP1ifU0w5U3KtS+W7CwelxBJ1MOnjwCBafCuY109wPWHaNeLgxTZAd/VTm0UeOHjdDQt35QldpOvxNlTrgHDbtFdc0OFTvdeVxxwnx99lOGMwDKC+sxrajH+unRvv9bvh/ZOq+KDn+3UUs/nm/vTzEfb9Wuc/3Vpt+w3LvOrTbYHgv118G1VqXFvd9N/jjR/RZ4zz7pd1RJn7qnMXNJql1hqNUsTCFWu4rJX5nxzEGyenP329nL6soIPRhu8lL2L6bSYqa/0Wt/rxOqW90NvCmkY+EvgbH5NVOfFx5S5F/8VSNjvw7/5Ta187TfVhzP+p3rnveY6WvN9rlcXYY9pjb2I2AhCrXyuY5qlSkAxi/8Wc3+x3n5cgFVnHw7+cOtOuhnTeMhhRbTZmpBDUPD7DutDsZ/qjFTlml30+bOS3AcF4fpTutFtNmpWjAr3m4vstjfTtVV3S5gqqlmTffRq0pNs32sLxdW0QXOEwQ1qrtLzhoB1nqeGhUmf5wq5zaxK/T208Ctb3H2HcOUHT1HdFdoQKbWfvie/fuMmfCeZm/8Rb87gxzviJI+NsOOGachT8UodkcVhfR6yK4IHafE/RflUeXKH54nagxTL+rQ/PijSJHHxhPKH6jsfKH88JTdhxOsstvs8wlHVSu0u56/x/PU5DW69b5mdp1g1zJT95q1wX4PU0nj1Qx7TKP+drmq/GrqCVaZ4DmH8OS1y46689pby7T2kL9CveqCIW0jVNfMz6qDfLLNrkSgHKpM+cOzvyplrWLM8T9m2S9S3Vs06pFbCmnL2VsVhd7R0ZybmP3VygtvfaUfSrnLVm/ZUZGXmZpW3HsaMvgZTdpepehziyLUihimV3o2UV1Tz9qd6a/Iv+Z/2jl3vXbF2+tll22zvtIurraedhUmf5Th/Lyo4/2JnoeXWE5QJ6u0Kl75cVTJcWu1dNlGbdwvXdnsFg1/baQ6OIHi4vfZI9q93MpfEzRs2DjFrDb5J6K/7rPedVnM9a2yqnF0q2Zaedgqvy5rpMce7+qUKYXX4wo68XLw5J2z/8CBnB27UtS8yXVO0qnx1POvaVD/Pro6+ConpXg/pvykSTHv6JXnnnRSTt7B335TzYsKfWPpmePK1JHsKqp+oVeY6qRlK/vQUfvu3irV/cvc7joqpseHP6s3x7zgdJ1a2UcylW1fGC5mX80+qiMus9edW03Vqx9/sceexnmmn59Xvz/NOEeyT81+arczV6XAdI5q1aR/anLCNXps4lC1KW1k9c9EzR4yRbGHSjueJ88Vvn3sdVfh2yV92QsaMvtnNej5rJ5vf6nZHsdO/Hhg/wZWvq9Wtu1Z1G9n/T7Z5+f/zcwxK7uK9+9lrfsxVTmlx7BT73TmjzMhNw/6+auQ3eg4nuFLl7eK339R+Z3V/LFrroY8/5UOdxqif9+Xd8GkLMfGsuYPoCzKbfnhKbuL2e+zs82RvUqBniWNZ+pTR44cLbT8cOc162m1MtYzUGmd9fzhnEuoSoFzjNKw7tAomD9K5NSZTmR+hTgYF62B01NVvUAZmLte1M0qtHJzfl7Y8f5kzsNLLCfMF+pkKEF5qV8Vuc/a12rN/yL2ZXu8gte3SiFp1kC9vELqMHSK+vzF5MOs8wu9TmQptB5X0MmUgydgQ+K3p++JgrsiO9gX/gdEjSzVxxrWGqfSsXa6U174mwr8hdZ0T+CgDxTCqgRY+1Ox+6p1YLKGKeIgZ0+j4IHLujB9qvZTq5253OlkKmnxTL0z5RXFJJh5F9vutSVRs0eNU8zs+fpy9RLNHjdTsdbLj9tFlDCehyfPFb597HUvTU3JrMNJHQ/s3+AETt6L+u2s36fgb2aOWfmnb637qT6GoaDcPFiK3cjiGb50+0Lx+y9wWuz+yn4c+OU3vyr2HTK2Eo6NZc0fQKXgKbuL2e8LPbksaTw7vxVefrjzGkEClCPOucQJXRwpc5DA4tSZTvBiTPpX4/TyWzP14bJ4u8mYMbOsJlMv133tC5SBnvWiboYi5NZ9ittHijven8x5eInlRBHzBMqhIvdZ+1pt0fuyPd7JXpi38mExmaXEIIHlZMrBE3TaqoGtWzW3nw6wIkil+VjDWuMAQMmytXvDWi1d6zx+1dNpi65Il6lh/WxtXLlMMW99qtjtx9Sgw0Ma9+Dx7WWfalWqBqhWoL9qVj1zB3YAOOsyd2rFso1KspsweUyRBd4hw7ERAFDZ1Lyqoar8tFGxs9+zm4zZfVkT9XluWF5zGACASu2C6v72OU71E3+z+Fl32poeKg/KRdNDwClSbh+NB8oB8gdQNPIHUDTyB1A08gdQNPIHUDTyR8V0WpseAgAAAAAAAAAA5V+lfqIAAAAAAAAAAAAUjScKAAAAAAAAAADwcQQKAAAAAAAAAADwYQQKAAAAAAAAAADwYQQKAAAAAAAAAADwYQQKAAAAAAAAAADwYQQKAAAAAAAAAADwYQQKAAAAAAAAAADwYQQKAAAAAAAAAADwYefsP3AgZ8euFNW7OshJAgAAAAAAAAAAvuCHH1PzAgU3Nr/BSQYAAAAAAAAAAL5gzYZNND0EAAAAAAAAAIAvI1AAAAAAAAAAAIAPI1AAAAAAAAAAAIAPI1AAAAAAAAAAAIAPI1AAAAAAAAAAAIAPI1AAAAAAAAAAAIAPI1AAAAAAAAAAAIAPI1AAAAAAAAAAAIAPI1AAAAAAAAAAAIAPI1AAAAAAAAAAAIAPI1AAAAAAAAAAAIAPI1AAAAAAAAAAAIAPO2f/gQM5O3al6MbmNzhJp8Y3axI0f9FiHTp02Ekp3oUX1lDXzp10040tnRQAAAAAAAAAAHA6rdmw6fQFCoY985IG9eujq4OvclKK92PKT5o07R2NfXGUkwIARXEpbVOC9gW2VNM6fk4aTg22LQAAAACgLFzasmCW4vw7akD7ICcNQEVyWgMFA6JGaur4aKerdE5kHAAVwLF0xcWM0/jFCdpXtb7aduqvEX1bKMDumaQZ97+sWPu7lw5Pa17fEKejoHTNfyRUn3Vaqxldajlpmdoy18zjk0RtS6uq2jeEaMCQpxVR1+ltZGyaq1enLNTm5DRVtS6EPzxIo283lZhNs9QteokzVH6RI+eor314LGw5zTzeNPMIdDqLkrld898cp9nLtyvLzPf23v00oFN9FXoZfu8SjYyapQa587WcxLzLrLBt62EqfzFDNHpPd00d3U6nfNblTrqWjR6iqcGefdHp/t7dVwH11crsZ23v6a7wMm8MX9uWqHwK5o88aZ+/rAGrwsy+3USbvfNMQY37aerdqRpQxPHXYh+Dlf8YHdyknZq2bKdu5jjqLkeA8qRAWVGQtd97jvtp8ZoTs1DzElPtXgH1WqjHI0NN3eVUljdAeZSpdTPGacrieG3LClRo+14a2L+jGtRwehsZ3y/U+PFztSw5y9Tr26vvY/0UWZ+bWOALMpW8YKKiZ68oMn/kU+y59vHKlrfKsCyZKzSy8TgFfx6rAVbVsIzLBeDsswIFvKMAwGmWqWXP3KEBq4M0YPz7mjOinfRJV/WYmCSX3T9IbQcPUlTu5y413BOvrMIvoxfBpXXj+6jHx36KGDZBsQsm6NUHW6qm09fiSpikHr0Xyq/9UE1dMF9TX+qu0EucnkFhXvN3Pve3UNbXGXKd7wyTlqq1X0utenoP10XXl1jTSdLUnhGantVJoz8w8x0Woq0jH9ATi9Kd/t5SNT/6Gc34Ol6Zx5wkywnP+9RyJUzTiNFLFLc300mp/DL3xisuw72nWqxutezl/g16tVOjjCUa0KyrpiY5A5SSL25LVD4F80euw6nOvu2v6+/OO25FBpnhgzrmdkfd3UQB3sffni2kAse6ttYNaccyFfd1kCKdtG4t/bRlSoTCR65Qhj1DoDwpxX5vhkpb/qwimw3RvIz66tnf2bebmfIhyz2VU1XeAOXRlpg+emhjiKImz1fs7NcUmRWj8EfmKsXpr6Rp6tH+XblMvX3OB2M04JoEjbhnuGL3Ov2BSszKH+HTXYoYMVPzx/fT1RufUdeRS5Tm9M+vpHPtAsqYt8qyLBmrlmhGSBeF2/ePlHG5AJQf1hMFq9dvzDnVHn1ihPOt9E5kHAAnL2tfcs7m5LScg4ecBI+sjJwfk5Nz9mVkOQlFOJSRc7CoQRJjcm6r0ydn9g9Ot8VOG57z2S9Od66UnHmDW+Xc8XpCzvGTy8o5mJKYszklw3xLy5nX/+qchz5Jc/cqcnoeiTlTIq7OeeI/GU53yTa/fXdOYP8FOfuc7pw9C3IeqvNSzsoSNoW9LTK8tse6iTlNCox38D/DcwIjYnI2O90eP37yeE6rwY+b+VydM36dk2gpzbzNb3XQ/I5rE1OO/x2tbZeRlrNtXWLOj4X+lsVsW49DCTnj77w759HBD+TfLpWae1sEmv3Ruzv/tsnI+ewJM8wYzzCl4JPbEpVPwfyRZ98njxS6b699vfDhc9nHukdy5u1xuj3McTSwzsSctU6nzT7um2FTnG6gnCp0v/9lec6IG0x58lFRO/ApKm+AcsldL39ltdNpSfE+/mfkfD7i6pwmr6wy9VIP9/5/2+REpxuopDJM+VCnVc4rcV7nbL8sznmizh05Uwrb/ct0rl3GvFWmZUnJmd3z6pweHzjlWpmWC0B5YcUHeKIA8GWuJM3oHapW9z+r0aOGqG/ntnpjk9MrYZK6tb5e3aKe1YCekeb/EHW7YpLWuXtr3fi6ajp2oeZHtVXtBtcranFhd8hLackJ2nJzR4V7NQGkkJa6TXO1ebvTbcs00xyi6XUmaE5Ui/zPExxerzfuDVfD7s9o9LBHdVv7IZq90+lnpGxcoS29zTw8TwgUtCtRy5J6KbKNv5NQAle8PpuSqid6dcxrEsa+wz9AVYt80CFVscMi1LTBbYp8+FFFtn5U8/ea9d+TrLQC4wU0CVNkUoKSve/cSF2o0aMDFD26t653knKVMO+0xU+qaeuu6vv4s2b8hxTeoG3e75G2RFHNws0yDdGIsS+rx82NFBrldRdICdvWzaV1U57R551f1Mj2pdyGPsNftYPNv9Q0pSVNU8QVTyr2gLuP7bg0tiVwSlwSqGAlKMU7vwEVREbCCs1I62fqXWVpw9mrvHEnABVUkBq0kr74an3encWZaUoJbKLgOlbHdiW+K3Vr09LrfMBfTdt01JaE7XlPHQCVUbI5P1cXtW3ldeJ3SYjadkrS2u/czdR5K/25tqWMeassy7IrXrHL25lzYHe5VrblAlCeECgAfFniCo38obfmLJ+jeR+Yz/KVesJqF98Vr9cfHqeAUSu1dpFJX7RMM+4IUJx7rFxpSxOkv8/XtuStmtqpYHv2bik/LJECqqqq0+1RzXyS93iCCy5tmdhHkWOrquGl6dqyPX9zLFvefUbRfoMV9/V8eznjlr6gyEudnkbannhTx7HaT5ykqPt7qNv9j2rkjPV5TVKkpZpl91dm8kK9EWX176G+I2dpXREXmDKWm+Fq9dedbbwqRWYasaZi85w9fff4cV5n6lZ7832/76KZ369V3EdmGTe+pa7mZCfwmiZqqgRt2+UMaLPaFViilD3uLrt5ooEvKdh650BhwY4S5h3Y/gVt2bjM/Rt+tEzzo4M0Z0G8+0JCYDu9us69TPa2+/gFBc9doDgnSFHStrVkfP6yHtrUS1P7hxz3O/q8zHh9/h8pok2IAkPC1C1krpatztt/t3y1QPsG35X7u7ItUekkLNDUKdPyfaYvP/5E9lRL+XqxYgO7q1VjJwGoQDLStkshgQrwqmaUyLu8cZKAislfEQNnKnzNIwp/ZJLmm3p39OgVunN6P7Wyeu9N1Wbzr2aN/BmkqtUc6OJUAmWo1NJSE83fgjeImbMGs//Hph5/Y17pzrUdZcxbZVmWLf+ZpWXduyvSCQyUabkAlCsECgBfdmktRWxfrjlz1yvNu7HA7Un6Iq2j7myTd6dbwCWFnJZe01LhIbUUYCobfqYC4crMVIbXx+Xdzn6xXHIFdtLoUe3UMCNe4++5Td1meBrhTdWWr5MU2aWdGnjeF3B+gGrmts+frhTrroRFixWnFhr45gS9OjhMWf/OawMxbY81wEJ9ZrV9/dgETX1pkMKzpimy9yRtOa6RxCTNeX2uIh/roqZOiq1eR81bNFMzY94y4w9VtytWaECHIU57jkmK+2i9md5dalXwJvGQXnp1WIaiukTYF/m73d9V4d0naa3CFGhfkLeCJM9o3s1va+TN+SttuYqdt2FtfMPe/mZ9AgK8F8L8NtZ2c1m/ielZI8BU9zxK2rbG3iUaMSxNz0d3l3UjI6S1bw5x/5b3Rqhp4x6a32SCortYeSVEkX9vpzlL450gldkvPklTj5udu3bYlsBJyAuWRobVVWh0pp6Y3F/hRRw2gfIs40CyFBzoVR4XrujyBqjYXJmpSslqrwFmf06ZO05v7PaX3x/HVcoBVAjWOU+S+t4RVmK5BqD8I1BQRm9cUVe1C/1McoYAKpC63TVlcXdp0RA1rddWPV9aqOTDJj3LpS3uIcogXbHDrlfDxnmfqZukwKCOdtM5zrv58qmdezeDv1p176cBA81n2Gua83onxY1aoDj7fCFdaV+bf+cXdf91LQVbd5Te219PdAlTg8BaatCml0Y/013rpq/QNtMrMKiJ+dtdA6PuUnj9WgqsH6a+zzytHgnv6ovvrWnkca1arCnpg9S34BMSl9RXeMv6CvT3N+O3UOTgoRpYa6HmrbbuiHBZrTgVsYx+ahU1XymLJtgvJBw99n3FzRmkhma5A6qbMTdN04iPWmrE/fWVZQdYMnTUjHU0w3y3fgtLsfM2Upcoqn2owns+qr69e6jr6CXudJvTJFK7Purb/yF16/mSYp0+JW9b85tGP6PMxwfrtgB38MdepmNZ7kCQeyCfE/rwC5oR85ZmTJ+vuO+3au34uxTs7MrBt3dXj7kL9IUVxEmK1zx5nkxhW6KSatnFfez2+jzc/nRcyLxLUVa+M585SzYrZd0cjSxtc3JAOVM7qKW02GqasHjFlTdAhWU9udxzicLHv2bq23fpibdXatvUlorr0sf9su46QWpg/h39wx46vxA/ryZTgMon8Ir65m9hZ85S0wJPAlhKd67tKGPeKu2yeM6fI2/Oq5eVabmAUllf7PVYTxPZOHkECsroiT27tK/QzyBnCKBiCbihu6LfW6l9iW/pttQhGjDb1NADgxSpVO0rU9vPtdT17fz54glzHhxcr4kCFycqxftK6K5krVSYmjYo/CKPX4D19EKaMuzbsmsp8GYp43DhlRRLYGCY9H3+xyWr1jDTNgn2bC+tpXCZZfB+J4DpH6B0uwKTJ1Xzpk5S7f6dSnGXqtNWsK3kZfQLClF4G7POQX5K27hCce3Nd7OaGT8kat32aerZ2hNgeUhvmOHfeNB8j1nvHvk43vNOV+zYR5XS+313M1EfzNH80aZi5khbNE59U3tpfry7aaF5s0eZ39ajpOVOVfLH6Vo2KjI3+BM+bIm0+EmFNx6e90SDr7GeyvA3+4/9KbCjXBKmyN5L9NnqVLvZodp/7+g8mcK2BE5OVdXMzXf+7ielgAoqsEFLUzaYukBCCWHi4soboKJKXK830lroeusapCPghi7q1nm91iZbN8EEqVFnaV2ydzN2Lm1LNPWmW0LU0EkBKqWgBuZcbX3+Zmtdydq8SOacwSvTOMp2rl3GvFWqZXFp7YpJUu/2+c6fT+QaAFC8FsVej7WbrsMpQaAA8GUuV96dzJfUV7DnJvqgMHW7J01TxkzSsu3pStu+QjPeW+70LKOW7TSw5TRFT3HeGXAsXcvem6W4zt0VYbVh6EpXsplHbjNFrlTNf/ddqXN7hdqtHQWpafsWivtgoeKcwIVrb6I2e71wN7jNXYpYFKMpnzt32B9LVezHCxQ4uIX7Im1dsz7tl2jK9BVKc+aTsmiu5gWaAsV62MAjaYlmLG+nvneEOAl5MlK3K81zh7/ZamnL52r64hYKbWBtNM8yztUyT7TimNm29rwylbY3r4aU8f1cPTc6QQP6d7Gbnwns8laBQm6+Rpr0kYvM96gW7nGKnbdJ8a6AHctUyh6vdzwUeIw7IzUt790NJW7b4wvjLVM6mt9mgrbscb+DweJKmmt+X+edCLZ0xU0Zp6mrnN/DsjdeU8dOy303QuXlr7Z3DtLaxeM0JSZI3W723Fldum0JAPABId01oneaogcPMWVlqvOEmUsZVnMsXnUGoFKqV189ZOqyH3tdrExdrs8WhTh121q67Z5e2jZ2nOY7g1j15xlTQjSyk/dLWIFKqE479eidrOjXFyrFOZdM/mCWpoYM1Z2t3Xt/ytfm3Hquu4ndEs+1lWqfl81JsoYuOW95zuvsFxuXYll0YIXmmfEHdnCft+YqcbkAlFcECgAflrFqnMKvqKvQzlabz40UtXWoXu1pXSSvpcjo9/V8g0RNHTVEI6anquEtYe6RyixEA6bMVGj8I2poPRYWHKqoTe00L/ou98v4XIma3f8OBQc7j43Va6to12AtG+v0N5r2n6AZjRdoQBNrmFDd9uJ21Wzm9LTU7a7od8O0ZVioexrB7mnMeTzMOZkIUo/omQrfNFxNnfmEvu5S1OzBXnc+ZJrKS4z2De6nboVUXlI+H67IBs4yXtFITUcl6fYP3tEAJ6ZgLePslusV1cwZplWk3K9ZSNW8nuHOeHXV8P6Fqj36/aLfR1CI4udtKny9+ilrZIT5Hbsq9Obh2qy8u00Cb+6lAYefVXhYV/Mbt1VUovLdLVLiti2FbcvH6Y2YeG3zXNs4lqqVMZM0Zb3XMx5p6zVlfIzWeT/2UUn5temkgTsXan67LrqNAAAA4Dj+ioj+QrEP+mn2Y23V0CrjgxupYeMeGp/oFewHKqNLOmr0B72V+Xpb1W4WYeqoZv/vvFDBUyaor1OvDrj9aVOPdym6tbv+27D9NAWMn6ABLUtffwYqJlM+jHpHUa5xCrXPW69X+NsBGj+1n1rZu3+mti2N0RvvJbgv5pd0rp25XbHmvGz2andkoKS8lbJ6rjmvW6JtdlFU0rKYU7yvF2iOOd+MPO4+uxKWC0C5dc7+AwdyduxK0Y3Nb3CSTo1hz7ykQf366Orgq5yU4v2Y8pMmTXtHY18c5aQAODOsO9isK7x+xT/WvmacavevqmUbB+V/yW8ZWC/bzSpqPoczlWG1l3ievwJquJOOYw1zvulf5GI661LMNIpdhhKVYltZdwQecamq1TSGk2Rxz1fHpZdeCfO2XlbsKmq53ONWrV5Mcx0lbtviuOQy83beqexmPa1iEvIlHXbJjzYpAQDI5+TrCEDFVOK+b9dvTf/i6rBAJVX0eav15Lo5zyqQJ4oc3nr8PN+JmlFM3ip88MKmnao5D7ZVbOeVmt296PdTFb0eAMqbNRs2nb5AwTdrEjR/0WIdOpTbXkaxLrywhrp27qSbbmzppAA4ezKVsilNVesFKdAU6K4DSZo3uo9mN3hH8weHFF6RBwAAAAAAlV/SNEXcvl1Ria8p8hInDUCFdloDBQAqMpe2vPusRrw9V+uslxcF1lfX3i9oZFSY3a4+AAAAAAAAgMqBQAEAAAAAAAAAAD7MChTwMmMAAAAAAAAAAHwYgQIAAAAAAAAAAHwYgQIAAAAAAAAAAHwYgQIAAAAAAAAAAHwYgQIAAAAAAAAAAHwYgQIAAAAAAAAAAHwYgQIAAAAAAAAAAHwYgQIAAAAAAAAAAHwYgQIAAAAAAAAAAHwYgQIAAAAAAAAAAHzYOfsPHMjZsStFIY0b6sjRo04yAAAAAAAAAACo7H74MTUvUHBj8xucZAAAAAAAAAAA4AvWbNhE00MAAAAAAAAAAPgyAgUAAAAAAAAAAPgwAgUAAAAAAAAAAPgwAgUAAAAAAAAAAPgwAgUAAAAAAAAAAPgwAgUAAAAAAAAAAPgwAgUAAAAAAAAAAPgwAgUAAAAAAAAAAPgwAgUAAAAAAAAAAPgwAgUAAAAAAAAAAPgwAgUAAAAAAAAAAPgwAgUAAAAAAAAAAPiwc/YfOJCzY1eKbmx+g5N0anyzJkHzFy3WoUOHnZTiXXhhDXXt3Ek33djSSQEAAAAAAAAAAKfTmg2bTl+gYNgzL2lQvz66OvgqJ6V4P6b8pEnT3tHYF0c5KQBw5rhS4xX7eZIOXtJSd3ZqoUA/p8cZ5tqbpLU7/dS0TX0FOGmFyfh+iWKXp0r12imyU/HDAgAAAABw+ri0ZcEsxfl31ID2QU4agIrktAYKBkSN1NTx0U5X6ZzIOAAqgGPpiosZp/GLE7Svan217dRfI/q28Lq4nankBRMVPXuFtmUFKrR9Lw3s31ENaji9LcdStWziJE2NN9MwwzRs0lEDR/ZSK3+nf1HSVmj049O0xen0aPrwBI2+vZa7Y9dc9QwbJ/Xvr/BAf4U+2F1+H/fQ6KXu3nk6avQHvdTU6UpbNUvjZy3R5uQ0VW0Qpm4Dh6rHDSUtUPHSFjyqpgObKHbPILVy0gpyrRqnVvfGKyKqkxrWqK/IgYFadv/LinX65+rwtOb1DXE6TtCmWeoWvcTpyC9y5Bz1dYqOjDWz9Or0JVqZnKXaN7RX38f6KbL+WYq2nDLpWjZ6iKYGe7aj0/29u68C6qvVDSFqe093s984aaVmKtIxQzR6T3dNHd1OZR4dKA8Ob1dszDTNcI7LteuHqNuDg9WjpXMcPLBeM8bGKDZxuzn2m+N2/Xbq8UgvRdS1jg1JmmGOWynex2LHlhnm+KtTcPwCzooCZUVBjfvlHffT4jUnZqHmJabavQLqtTB5ZKjJI6eyvAHKoUxTfkzPKz9C2/dT1OB2Cj7f6W+dGyyepSnvxmttmrtuOeAfgxTBtUf4hFKcG3sr8Vw7v4zvF2r8+LlaVqrztjIsS+YKjWw8TsGfx2qAVYUr43IBOPusQAHvKABwmmVq2TN3aMDqIA0Y/77mjGgnfdJVPSYmyeUMsSWmj8KnuxQxYqbmj++nqzc+o64jlyjN6S+lav4/umrk9/U1IPp9xc5+TVG311epLkMHNFG3wYPMyYfzeThMVb9Oluu8vLEzkpO0TL0VNbqfBgzsbgcfgm/2Gsd8utVLU9xhqaozjjZNUtep29Wgy1C9OnGM+jZJVXSnIZqzy+l/Gm1LWqG0zr01cpi1vOakSkFq67WsUYPvUsM98coq3RYqXlCY13Sdz/0tlPV1hlyek7mkaerRP0FNH5+g2AXvaHznLE25+dEzsi1Ot8y98YrL8Oyp7m617OXeDr3aqVHGEg1o1lVTk5wBSsmVME0jRi9R3N5MJwWoaNIVO/IBjdgYpL5PTNDUV02e6NxEGXucI7crSW/07qp557XTgNGm/4hB6nuzv1J2e/Z5lzK/jldKIS1UujLy5zugYvHX9XfnlZmRQWZ/DuqYV4be3cS+SJK2/FlFNhuieRn11bO/u1+3Zmb/z3JP5VSVN0D5Y8qP5x7VZwpzlw9Rd6nq8ocUOTY+99wgbdHLemiR1Lb/05o6cbC61Viunp3HKY6iAT6g5HNjbyWfa+djnbe1f1eu9kM154MxGnBNgkbcM1yxe53+BZRlWTJWLdGMkC4Kt+/zKONyASg/rCcKVq/fmHOqPfrECOdb6Z3IOABOXta+5JzNyWk5Bw85CR5ZGTk/Jifn7MvIchKKcCgj52BRgyTG5NxWp0/O7B+cboudNjzns1/M94zlOSPqtMp5Jc5rAr8sznmizh05UxLdnQf/MzwnMCImZ7O7s3BmWQ+a9VibmHL8engcSsgZf2ernEc/SXES3PZ98khOYJ2JOWud7oJ+/OTxnCZ3mv7e0z2UlZN/lRNyXqlzdc6jn6Y53R5ZOQczzLIV3IbWNktJzFlrbXevXt7L4vldsrLd/TzWvn51TmD/BTn7nO78UnLmDW6Vc8frCQWWzy0rIyVnc1HbyGzDfcmJOdv2ZRQ6rsfmt+/ON//Nb9+REzgmwemymGXoe3XOQ58U3BYVTVrOvP5mW5tt6d2df70ycj57wgyTb/1LYO+Hd+c8OviBYn5HoJzbsyDnIXPMG7/O6S5o3URzLHskZ94ep/s4Jh+Y8Qs7TtjHuNx8B1Rshe7Pv5i6zw1m//8of30kzykqb4ByydShC9RDf/zI1H9vmJhb188y9ex8Uqwyp1XO+FN/2QIoX0pxbpxPSefa+WTkfD7i6pwmr6zyOtdzly23TS5k4mValpSc2T2vzunxgVOulWm5AJQXVnyAJwoAX+ZK0ozeoWp1/7MaPWqI+nZuqzc2Ob0SJqlb6+vVLepZDegZaf4PUbcrJmmdu7fWja+rpmMXan5UW9VucL2iFqc7ffJLS07Qlps7Kryuk2AJaanbNFebt5vvyWYZ1EVtW3nd/X5JiNp2StLa76xH8V3akjBXTe8Ny23yp6C0xU+qaeuu6vv4s4oe/ZDCG7Q9fnmOpWr+yCHaev/7eqOL57nldM1/xKzHQKtpnXGKvKKual/xqOZ73VGRsWaSBkwP0tR3B6mV9yOWNfzy369/IE1pqqVGV+Q1oWHdNd4zrJEaduyjvj0jVHv8ejt9yxSzzW43acNeVnRUVzVs3UNTN3nfW5GgKY90VVezPqP736Hgm59UrN0qwXq9YZYxcqz5umiImtrLm/ebWHdurBs/RNPrTNCcqBb5l++w2c6PtFWrLk9q9ItPKrJN/m2U8vnL5veO1EOjXtaIhyPV6t5p2lLY7R6ueH02JVVP9OqY21xOcL2W0tLlWpd7Z3Cm9qXU0vVB+ZsTqZz8VTvY/Es1v3/SNEVcYX6rA+4+tuPSXFo35Rl93vlFjWx/cs1UAWdVDbPvm3+bt7ubTDlOVT9zzE7V1p08NQMUlJGwQjPS+pl6V1naUfEqb9wJQAVl6tAFmi3JSDNlSesgu1yx+Jl6dj6ZaUpRSwXT9BYquxLPjfMr8Vw7n+1KfFfq1qal13miv5q26WjOt7ebPFZAWZZlV7xil7dTpMnHlrItF4DyhEAB4MsSV2jkD701Z/kczfvAfJav1BNWm/OueL3+8DgFjFqptYtM+qJlmnFHgOLcY+VKW5og/X2+tiVv1dROhV8UTvlhiRRQNa/JHkc180nek6601ETzLcC6puTFDH2+FJtqXcg2J8Q/SMHnZ2jZjGfV9/4e6nb/k3pj8fbcxxYD27+gLRuXudfho2WaHx2kOQvivU6k0xX7j64asDFEtc/frm17PWPWUte3d2nLlI7m+1DF7tmlfXveUtc67r6uTZPUo8s4VW0coLTvtivjmDv9eC5tmR2jOS3767aWTtKBFRr9cIz8/7FS++Lnm21o/ke1sHs1fXiZO81aXrNtZ98Zr9HLvdsSCFKPsfMVa/8mX2j2HcvV9/UlylALPWGWMXaYGaTzBG2xl9fzLgOzDBP7KHJsVTW8NF1btue/OLfl3eEaH/SC4pzf+os3O2rZyLnudzccWKLxvbcr8uOV7nma33yk38uasvT44E/G8oV6o1Z/3dkm7wcLuL2fZrdZr4duf1RvLFhhtv/LWva3tzXAsy0qs8x4ff4fKaJNiAJDwtQtZK6Wrc7b9lu+WqB9g+9SxCXu7ozPX9ZDm3ppav+Q4/IEUKH4t9OAt7trS1RbhT74rKYuWK807+BiSC+9OjJAc+69TeEDXzblTOHH0JTl72rqlGn5PvNM0QJUZhlp200eCVRAvrpPCbzLGycJqBT2LtGUmDT1vaeodzaZevzbMdrXu7tuc+roQGVV8rlxfiWda+ezN1Wbzb+aBQJxVa3mZBenHheELsuybPnPLC3r3l2RTmCgTMsFoFwhUAD4sktrKWL7cs2ZW+ACz/YkfZHWUXe2ybvTLeCSQqru17RUeEgtBVh315sKhCszUxleH1eRF9bLIl0pi6W1ixcqpU53jY55TaPvr6WVIx/QE4ucSoY1c8Oev1mPgICCd2pnya9xfzNeS9VOXqC+LSM0cnnJd7lmHaulO0c9rYh6GVr5xgMKf2DWcS9FttjtzVtPHUzpl/vUg/tuwe56+J5C7hb0Wl7XMT/VvNTu9BKomrmr4K+IDt2luYlKdlIK55IrsJNGj2qnhhnxGn/Pbeo2wxN8SFLcJ0m684YmkvPbZAXWV2iameZea1njNefGMF0f6PntAhQYIs0/7k7hJM15fa4iH+uS/+mOw5lK2ZuliL93UfAPcxU9MVUB51lbvXJa++YQdbMCVvdGqGnjHprfZIKi7adUQhT593aaszReGfaQ1nZPU4+bnbt2zInwiGFpej66u6ybQoGKLrjza1qbuEzR7aW4MV3VtHUPjf7cc9zwU6vBc7Qu4W39o0GapvwjQg1vflQzkrwLG8A3ZRwwJXpwYIkvdCy6vAEqi1TNj35GKb3f1ujbC3/SMmXBSxrxQ2/NNHVcXoIKlEfuc82+d4SRR4FKgEBBGVnNftQu9DPJGQKoQOp215TF3d3N2NRrq54vLVSy1XxMlqvQC+LFS1fssOvVsHHeZ+omKTCoo3Ss8IvGtWv4KfCK+uZb4ZeUm9p3OwQpuLMU2nOo+nYKUbB/kJp2GarR/QM1//ME950PqUsU1T5U4T0fVd/ePdR1tNWUkLcgRQy0XvxrPqPe0pzoIM2IWXz845UFBLTs7h5n4FCNf2eM7lz1rOZ9nf8ilytpmvo+vFy3Tx+jrl7n7q7D1pIVfs+4u0miUN328KPq8WBXDbCaEirOedZ0tiuliJdMufmrVXdnHYe9pjmvd1LcqAXOS99cVitTWhYzRH37m21kfUYvVMbNLdWgjrOsu+Yq2tPPfKZuClPfxvkvRrhWLdaU9EHmd/B+esSluDf7KDZsjMb37aiuUW9p7fdvKTS+q3rEVM43LoY+/ILZf97SjOnzFff9Vq0df5eC3bEfBd/eXT3mLtAX1m+VFK958jx9YfKHORHOfHywbgtwAjJWXjuW5Q6qWSMDFdEl9RXR9wXNjt+s2N5Zmtp7mpZ5xWH96rQwx4UJilu3UlNbJWjkE/kDrsHtezvH2bxPN194Ggk+rXaQ2ckXJ5fYhFBx5Q1Q8aVq2aghek6jNLVgk5mOlM+f1YDR0vNTCjQBClRSJZ8b51fSuXY+dYLUwPw7+oe7M5+QAs3qGqVdFs85YuTNecG+Mi0XUCruZpiLuh6b1xwzThaBgjKymv3YV+hnkDMEULEE3NBd0e+t1L7Et3Rb6hANmJ1kleyKNJX3fd5trZfI3YyPd754wpwHB9drosDFiUrxvhK6K1krFaamDUxlIqiBmdd6bdvl9LO4krV5kRTe2Kqc+FuLo7U/5L+7PSAgwAxnTTRdsWMfVUrv993NJH0wR/NHW00JFc1+4uD7dOeu71KqEWC3m7ovw+sKWOpCPdFzsZq8+Y5Z1/wVnoBLrIvsGVbMpYAkTX34ZQW/FKe4j6zlna+pVlNCxXAdNksa2MS+qF9afgHWEyBpyrBXspYCb5YiHn/L3dxR7sf9BIS9rLW6a3S+fnMUnS8gkKp5Uyepdv9OCs+3qklaNzFdrf5i/VYO/xB1u6ej1iVsL/EiSIVk9oUAf3/nU6Cie0mYInsv0WerU+1mh2r/vaPz9EWqkj9ONyfEkbmBtPBhS6TFT5r9fLhiiw0CARWBv1rd09scz9OUmfu+Ei/nB6nrg93NIcNFYAw+L7BBS1M2rFBcQgm5objyBqjQXPZ7taIyu2t+9F2FPmlpvS9twLAM9fw4/804QKVW4rlxfiWea+cTpEadpXXJ3ufVLm1LNOckt4SooZOSq1TL4tLaFZOk3u3znSOWbbmA0nA3w+x9vSnv42mOGacCgQLAl7m8LthcUl/BnuvCQWHqdk+apoyZpGXb05W2fYVmvLfc6VlGLdtpYMtpip6y3n1h/li6lr03S3GduyvCasOwTjv16J2s6NcXKsVuqihTyR/M0tSQobqztVXb8FNou0HS2BjN+N65SJ+5XvM/iFdE+xZ2W6Z2vMDjWKZS9nhdzD+wXVtSve7YPhCvOdOXqGnvsOMrQ7lcSvt+u9JyL3a5lPLxu5qujrq9lbORUhdqQOeJqjpqjAY2k9Nkj/Vxz8mvSZj6Bi7Q7I+35wYkXIetfubjffXclW6W1/meK1Gbkzzrul2zZ08rfnnNNJLN75Tb1JMrVfPffVfq3F6hdotRQWpqttWMd+dqi9em0QH3drGXNT1GczxNOdlcuetiS1qiGcvbqe8dIU6CR3016C7Nec/z+xnHUrVssdnGN9T3wXaU/dX2zkFau3icpsQEqdvNnjPb4ys29rsx7HdN5L0XA6gwrGOXdWzNzffWsf1dxYa4n1TSgVQlp3kde82xbM57c6Xu5pjhJAE+K6S7RvROU/TgIZq6KtV5wswqd1OVkvseJaCysoIEDyhyY3vNHNZJgX946tDm4+z+VpCga+cE3R4zVJGBVt7IX88GKq0Sz42llK/NufXcJHcdq6RzbaUqbso4zbGbfqyl2+7ppW1jx2m+EyvI+H6uZkwJ0chO7qZSXUlzzbTi3U/el2JZrPfyzTPjD+zgfhdfrhKXC0B5RaAA8GEZq8Yp/Iq6Cu3cQ5FhjRS1dahe7WldCK6lyOj39XyDRE0dNUQjpqeq4S1h7pHKLEQDpsxUaPwjamg9FhYcqqhN7TQv+i7nIrK/Ika9oyjXOIUGW4+NXa/wtwM0fmo/tXLqH35tBmvOS9LU9te7Hy1r/IhWtpyp6O7WRVhT4enVT1kjI8x6dFXozcO1WV53W6Ql6NXu1yvY81hakyFm3Lc0Y3Dhjzi7ubT540d1WwNnnCsaKfR1l6IWj8m9oJuWsFjz07ZrzuMR+Zpbath4mvuxt0vaafTswXJNNv2deYePtl6w3EKR49vpswfDFd7ZLPODMdoXWOAJiPb1lflOVzW1xmscoal6QeP7F7O8rkTN7n+Hgu3tZz712iraNVjLxnq2sdS0/wTNrr9CPRpbv7fZTma40Med5pecZd0XHarazSIU2d76H6nx6zwnY5mmYmeWc3A/dTuuYuevyGfm6OED1u8XqvD2bc1v3FXz6kzQ1N4Fgwq+wa9NJw3cuVDz23XhpXuovMxxZ0bv2/KOO9axfX1LTZ3ay/0UTVq8RnfxOvaaY9l4V3/FPtOR9msBq+4T/YViH/TT7MfaqqFV3whuZOoQPTQ+0TuiD1RGSYobu176fJwiW3vXoa83dW33TStbvh5n6tMrFN3F5A+v/g2HLamcT6sCuUo6N87UtqUxeuO9BKcZ3RLOtTO3KzZmkmavdkcGAm5/2py/uhTd2l0/a9h+mgLGT9AA5+n4lNVz9UbMEm2zi6KSz9PTvl6gOTf3UuRxp30lXQMAUF6ds//AgZwdu1J0Y/MbnKRTY9gzL2lQvz66OvgqJ6V4P6b8pEnT3tHYF0c5KQDODM+d437FP9a+Zpxq96+qZRsH5X+RbRlYL+/NKmY+JfW377Y7YpbVz18BBQdxWXchlTRto7Bxi+KZX0nbpgT2vM8z8/VuW/WwWd4/SpiutU7HCoxXHHua5n/BeXmzt5P5X8Qwnu1U1d+/6MBEUTzzL8s2BlCh5R5bizhO5vYv7rgE+LiTKnsBAJWSu2worH7lkuuYn/zOdzodRQ5vPX7vVzDNfU5YtbopdwpOp9DBC5t2quY82FaxnVdqtn0DX+GKXg8A5c2aDZtOX6DgmzUJmr9osQ4dKqyh2uNdeGENde3cSTfdyBvsgLMvUymb0lS1XpACTYHuOpCkeaP7aHaDdzR/cAgnsQAAAAAA+KqkaYq4fbuiEl9T5CVOGoAK7bQGCgBUZC5tefdZjXh7rtZZLy8KrK+uvV/QyKiwQl82BgAAAAAAAKBiIlAAAAAAAAAAAIAPswIFvMwYAAAAAAAAAAAfRqAAAAAAAAAAAAAfRqAAAAAAAAAAAAAfRqAAAAAAAAAAAAAfRqAAAAAAAAAAAAAfRqAAAAAAAAAAAAAfRqAAAAAAAAAAAAAfRqAAAAAAAAAAAAAfRqAAAAAAAAAAAAAfRqAAAAAAAAAAAAAfds7+AwdyduxKUUjjhjpy9KiTDAAAAAAAAAAAKrsffkzNCxTc2PwGJxkAAAAAAAAAAPiCNRs20fQQAAAAAAAAAAC+jEABAAAAAAAAAAA+jEABAAAAAAAAAAA+jEABAAAAAAAAAAA+jEABAAAAAAAAAAA+jEABAAAAAAAAAAA+jEABAAAAAAAAAAA+jEABAAAAAAAAAAA+jEABAAAAAAAAAAA+jEABAAAAAAAAAAA+jEABAAAAAAAAAAA+jEABAAAAAAAAAAA+7Jz9Bw7k7NiVohub3+AknRrfrEnQ/EWLdejQYSeleBdeWENdO3fSTTe2dFIAAAAAAAAAAMDptGbDptMXKBj2zEsa1K+Prg6+ykkp3o8pP2nStHc09sVRTgoAeDmcqrjPV2jLgQCFduqoVnX8nB55MrbHa4uaKLy+v5NykkoxTwAAAAAAfJtLWxbMUpx/Rw1oH+SkAahITmugYEDUSE0dH+10lc6JjAOgAjiWrriYcRq/OEH7qtZX2079NaJvCwU4vT3SEuZqSsxC6Z4JGn17LSfVkqo5D7ZV9Hn9NLB1oAJad1ePlscHA9aNr6tIzde+qBZOSlGSNOP+lxXrdOXq8LTm9Q1xOko3z1ybZqlb9BKnI7/IkXPU1z7EFjbfEA1482lFBLq7Mr5fqPHj52pZcpZq39BefR/rp8j6ZQtQFL0dM7VuxjhNWRyvbVmBCm3fSwP7d1SDGk5vFJCuZaOHaGqwZ79wur9391VAfbW6IURt7+mucOf3Kz1TkY4ZotF7umvq6HYq8+hAuZGp5MVzNWPBCm3LsLqD1PTu7orqfvwxvjxL+/xlDZie5HQV5HWctsqzeTGa90mSUqxe1nHgnn4aeXtQgWn4q2HLlmoa1kU92ngfh1H5FSgrCmrcL++4nxavOaa8npeYavcKqNdCPR4Zqoi6p7K8Acqb0tTDS1EnNvlnavQkfbYpTVUbhCny4aHqe2OBunpmqpa9N0lTvw7R6A96qamTDJRvpm61YKKiZ5u6VWnO2Up5ru1RtvPNMixL5gqNbDxOwZ/HaoCVlcu4XADOPitQwDsKAJxmmVr2zB0asDpIA8a/rzkj2kmfdFWPiUlyOUO4kuYq6t5QNR08TctWxyulYItlmdu1Zbn08ONPa8DAfsVfsC+VILUdPEhRuZ+71HBPvLLkVUEq6zyDwrym53zub6GsrzPkOt8ZJi1Va7+WWvX0Hq6LrvfUlpKmqUf7d+VqP1RzPhijAdckaMQ9wxW71+lfgpK245aYPnpoY4iiJs9X7OzXFJkVo/BH5rovdqFQmXvjFZfh2VPd3WrZy/3b9WqnRhlLNKBZV00t6vpiEVwJ0zRi9BLF7c10UoAKyJWkGb1vU/iLCfIzJ452vugfpuCsrNzj+4lJ1/xH6uqNBKfzDAho0iXvuNwpSHFfBynS0+05Tu81J8B3h2rAx5lqeH8/d78u5kw4y1lb6yk0tVBfe5xeuq1BhmIfC1VkTBkPEKjg/HX93Z59Z5Aig0w5EtQxtzvq7ib2RZK05c8qstkQzcuor5793f26NTPZKss9lVNV3gDlTynq4SXViQ+Y43GHIYq7pp/e+GCmRraX5nXpozc2eUqfdMWNf1Shjbtq9McmD36deZLlEnDmWOds4dNdihgxU/PH99PVG59R15FLlOb0z6/kc+18yni+WZZlyVi1RDNCuijcjveVcbkAlB/WEwWr12/MOdUefWKE8630TmQcACcva19yzubktJyDh5wEj6yMnB+Tk3P2ZWQ5CUU4lJFzsKhBEmNybqvTJ2f2D063xU4bnvPZL+7OfXGLcz5PzjDf0nLm9b8656FP0tw9PPYsyHmoztU549c53V48y56VnZOz9vWrcwJfT3D6WLJyDmak5Wxbl5jzY5HrkJIzb3CrnDvMePmGKGqeZpscNPNcm5hy/PYqYPPbd+cE9l+Qs8/pdk/zpZyVhS5KRs7nI67OafLKKq/lyMj57Imrc26bnOh0G8XMv/jtmJgzJeLqnFdWO52WFGt5HsmZt8fpdmRlpORsLnT9St6eWRlm+cynqK1dsbi3Y94+Vdh2df9GgWO897sSHErIGX/n3TmPDn4g//4BVDD2MS5ibM7aEo6FxbLKmUTrmOJ93HAfrwo75udkm+NQSmLO5hQzvDnuF8oeJjln2768KWZZx67E5KLLKm/rJuYE1pmYs9bpdLOO0a3sPPujk1LQvk8eOS5PH/zPcDMts42cbvie4+smxi/Lc0bcYMqTj1KchIJOUXkDlHuF1cNLrhNvfvuOnMCeH+Q7Hm+ebNKeWJxz0O5Kzvn8g4Qcuxgo9JgOlFMZpnyo0yrnlTivCssvi3OeqHNHzhSvU8JcpTjXzlPK802PMi1LSs7snlfn9PjAKdfKtFwAygsrPsATBYAvs+8GDVWr+5/V6FFD1LdzW72xyemVMEndWl+vblHPakDPSPN/iLpdMUnr3L3tZn6ajl2o+VFtVbvB9YpanO70yS8tOUFbbu6o8LpOgiWkpW7TXG3e7u4MbNNREUW8VyBtwaOq3XKI/XhydOe6qn1FXfVdYM0rVbFm3sEdHrWXvWuHHopebo/ilrZEUc3CFfnwEI0Y+7J63NxIoVEF737INOsxRNPrTNCcqBa59zEVNc+0xU+qaeuu6vv4s4oe/ZDCG7Qtcr3litdnU1L1RK+Oec3KHLP+BKhqoU92blfiu1K3Ni297qfyV1OzbbYkbLfv+i9p/sVtR+vurQatpC++Wp93F0dmmlICmyi4jtN92OwPj7RVqy5PavSLTyqyjdf0S9qeqaZ/+1AF32yW7+GuavXIwiLueqls/FU72PxLTVNa0jRFXPGkYg+4+9iOS3Np3ZRn9HnnFzWy/ck+GQOcTUmK+2i9wvt0V6siHoW3j6X5jgXuJwXcx3DT37qjul6kBrz4sqL691H44+aYYsqe2ldEanRSwWO+yT3b5yrKHHsiBr6s0QMjFdyqh95I8BzR1uuNK0I1YPTL6tbhAfUdNlw9mjVSZPQsTX0kQrdZx67BD6hha3NsL+VTWvlkJuiLd9NNedhRVpYvrYBAq43eVO3zjQMiSikjYYVmpPUz9a6ytOHsVd64E4AKrvB6eMl14nQlJyQpvFNYvuNx01btpLmJSra76iuiewsFFlrnBsqxZHM+pi5q28pr570kRG07JWntd+5m6ryV5lw7T8nnm/mUZVl2xSt2eTtFtnaXa2VbLgDlCYECwJclrtDIH3przvI5mveB+SxfqSestvRd8Xr94XEKGLVSaxeZ9EXLNOOOAMW5x8qVtjRB+vt8bUveqqmdCm+DOeWHJVJAVVV1uj2qmU/yniIusnsJ7PKW9iVMUKT5PnLRLu3bs0szutRSxuJJ6ruio2Z/vcxe9tjlb2mA96tWAtvp1XVrFfeRe93iPn5BwXMXKC73ApFLWyb2UeTYqmp4abq2bM9rAqaoeQa2f0FbNrrnN++jZZofHaQ5C+ILPWHPWL5Qb9TqrzvbeFWs0lIVaypHz93fQ93Mp+/IWYrzjLw3VZvNv5o18p/RVLWaLVqcas+jLPM/nr8iBs5U+JpHFP7IJM03yxc9eoXunN5PrZwhtrw7XOODXlCcsz988WZHLRs5V1usnsVuzyRNHfiotnV+W9us5TPLtuXtu3yj3f3MeH3+HymiTYgCQ8LULWSulq3O25e2fLVA+wbfpYhL3N0Zn7+shzb10tT+IcflCaBCcWVoX5LUMPBEW5pNV9zcWQp+e75irWPaB/O11hxzAlsOMsfc+RpphvA+/lrHmRlRTyrtkWVOuWTKp9G1NP3hiYrLjX6mKy24uynL5tvTmzc2TOsmbldw9DL3sWv522a6CzVvdcllz3EOpGmbQlT70vzH6OJlmuPpYql9mJrSrjy8ZKRtl0ICFVCm3cmrvHGSgIqr6Hp4yXXiVKUsMqcXNQrUpM6zurcr5USCwUA5kZaaaP4WvLHM7Ntm/49NPb7+UqZz7VKcb3ory7Js+c8sLeveXZFOYOBkrwEAOHsIFAC+7NJaiti+XHPmrlead2OB25P0RVpH3dkm7063gEsKOS29pqXCQ2qZirqf/EwFwpWZqQyvj8u+g/50MCcXCXOlnp0UkXtTtr9qXup8tZllsio9LmtZzMrVCCjw4iSXXIGdNHpUOzXMiNf4e25TtxklNPxrraRhr6eZZEBAUXeEJ2nO63MV+ViX/C9Nq9dR8xbN1MyYtzT1paHqdsUKDehQhrtbSz3/wrkyzYlVVnsN6BKklLnj9MZuf/n94fnhkxT3SZLuvKGJ5Px+WYH1FZqWqGR7+YrZnknxmpfQUQ/f4xsvp1r75hA70NPt3gg1bdxD85tMULTZptYLTyP/3k5zlsbLfqervU3T1ONm566dvUs0Yliano/uXqY7koFyKSNT+8w//zIeh/L4K7BuLcV9PFfLvC8QFcU5znRrX99JkII7dVe3tEla6TwJZwm4JO8oVLWGtWyBqu0E6qwnq4JbO1/LKiNd28z4tUta3dUTNcAJBoc3u17dPmlijvddyPPIJ+NAstmBA0ssM4sub4CK7gTq4QDKKfd5ZN87wnziXBCo7AgUlNEbV7gfgz/+M8kZAqhA6nbXlMXdpUVD1LReW/V8aaGSrRfgZrncd5GXSbpih12vho3zPlM3SYFBHe0md5x38+VTu8DdDKWXad2cb9/NULRUszzmxLpdH/Xt/5C69XzJbkooj79ade9nv6h4wLDXNOf1ToobtcDrztRCOM3rhPd8VH1791DX0UucHvm5Vi3WlPRB6lvwKYtL6iu8ZX0F+vsrsH4LRQ4eqoG1nLtb6wSpgRnk6B/uQfMJ8XNfaC7l/AtlPSXSc4nCx79mlusuPfH2Sm2b2lJxXfo4L0Y0J2zm/7KYIWZ7melbn9ELlXFzSzWwmyYqZnt69pdif4/KI/ThFzQj5i3NmD5fcd9v1drxdynY2ZWDb++uHnMX6AsruGJd2JTnqRKTP6KfUebjg3VbgDsQk2HltWNZ9vfidjugXAoMVCPzLznl+MfgS8dP4cPma3yzZI2+53o1bT9EU9cUEzAo7DjjV1U1zb8zcmdaYJBCtURbSwrstuynV63jg/nEfr1ZKfGvqWvdEy3rUFnVDmopLU4u8YnA4soboGIrph5eYp24loI7me+mDnW8QPkX0RweUBEEXmHdEFHYvi01LeTcuUzn2qU53/RS2mXxnPtG3px3N8XpuQYA32Y1M1rYtVjrk9dENk4egYIyemKP+zH44z+DnCGAiiXghu6Kfm+l9iW+pdtSh2jA7CSrZFek1aayd1vrJaqlrm/nzxdPmPPg4HpNFLg4USneV0J3JWulwtS0wUnciWrdUHc4q8gLrGmLxqlvai/Nj7eaoJijebNH2U0JFcUvwHpiIk0Z7lvBC5Gu2LGPKqX3++5mL8w05482FaDjpGre1Emq3b+TwkusAzntDduC1KiztC7Z+6KbS9sSl0i3hKhhqedfhERTsKa10PV5N+Oa376LunVer7XJ1kW2Wgq8WYp4/C339sr99LOfiih2e15aS+HKtK7j+QbraQp/f+dT4Ee+JEyRvZfos9WpdrNDtf/e0XmqJFXJH6dr2ajI3EBa+DDz2y5+UuGNh59Ym+nAWVVfTXpLsZ+vL2XzZ4U4P0gRURMUt3GrvhgZqHldxmlZUbEC+zhjeD+p5srSQfOvwRWFN313StWpr9AQ6YtVXu95Kcz5Vb2OD/7HnXQDlsAGLU3ZsEJxue/YKEJx5Q1QieSvh5dUJw5ScJNaiv0+Nd/xOOX7eOlm0/9ETy+A8iCogTnHWq9tu5xuiytZmxfJnDN4ncg5ynauXVLeKqBUy+LS2hWTpN7t8537np5rAPBtLYq9HutpThknj0AB4MtcrrwK9iX1Fey51hIUpm73pGnKmElatj1dadtXaMZ73m8KLoOW7TSw5TRFT1nvbo7lWLqWvTdLcZ27K8L75UZl4qemrXsp8OO5it3lrMGBJG3+3v3VltukjltGqjn5cL7Lla5ks165TSO5UjX/3Xelzu0VWkzDv2Zz5TmWqZQ9hVzRSlqiGcvbqe8dIU5CnozU7Uqz7iK3uZS2fK6mL26h0AbWhq+l2+7ppW1jx2m+U3fL+H6uZkwJ0chO7qZrSjX/otSrrx4y8/vYq2KYulyfLQpx5h+kpu1baMa7c7XFe7IHnLvdi9uedZsoomW8Zr+/QmmebXo4//C+w19t7xyktYvHaUpMkLrd7Gki4viKzZYpHc0+N0Fb9rylrp4XSgMVhr8iHnxarRa9pAGjF2pLmvtYYTWNlrY91X18OM8cuVYnaptz3HPtTdTmne7vFlfu8dBPgfWCvB5XN+OZY/GP3k8K1DXlUvsl5hjmlCVGyoJZmho4SG29309z2oSox/Be2jd2iAZMiVeK1QSbYa1vyi5TnthdQCmFdNeI3mmKHjxEU1eZ/GI/YeZShtVE4F72JlRyJdbDS64Tt+rQX62mjMt7Ei3NnKu8E6/I+9vT1Bsqtjrt1KN3sqJfX6gUO49kKvkDU98JGao7W7uvxKd8bc6t5ya56x4lnmunKs7klTlJ1tClON9MmmumZeo5Vs9SLIsOrNA8M/7ADi3c3R6n5RoAgDOBQAHgwzJWjVP4FXUV2rmHIsMaKWrrUL3a07rAXUuR0e/r+QaJmjpqiEZMT1XDW8LcI5VZiAZMmanQ+EfU0HosLDhUUZvaaV70yb3sNuD2pzWzf6aizXJbj5uFPr5AmUF5yxh4cy8NOPyswsO6mnVrq6hE5d0l4UrU7P53KDjYeVStXltFuwZr2djilslUrHr1U9bICLO9uir05uHarIJ3dWSaClCM9g3up26FVIBSPh+uyAaex+MaqemoJN3+wTsa4MQUrHWa87hL0a3dwzRsP00B4ydoQEurIlaa+Rfjko4a/UFvZb7eVrWbRZjtYubReaGCp0xQX2f+TftP0Oz6K9SjsbVPmHnY23WxXVEsdnt6fuP1w9XU2aZNO886gearKge/Np00cOdCzW/XRbcRAEBlFtJP878epabbxymi2fUKNnk/uPH1uq3/Evdxo00X9a0+Td3s415b9Z2eZo4/7lGtF07O7hNqH4/s9tdvnqbgt/s5750JUeTIjop7xPQ30xywyAoYBKlHtFdZYh2fJkjRsweX4umtUyPg9hcUt6CX/D4eotDG7rLHWt9ukxPzAqdAqfgrIvoLxT7op9mPtVVDK48EN1LDxj00PrEMNwEAFVEp6uHF14kNU/5MfbelVva/3j2NZsO1pcMcjbdffg9UZKZ8GPWOolzjFGrnkesV/naAxk/tp1b27p+pbUtj9MZ7Ce6L+SWda2duV2zMJM1e7Y4MlJS3UlbP1RsxS7TNLopKWhYp7esFmmPOEyOPu0fu9FwDAHD6nbP/wIGcHbtSdGPzU3s71rBnXtKgfn10dfBVTkrxfkz5SZOmvaOxL45yUgCcGdYdbNYdBn7FP9a+Zpxq96+qZRsH5X9BbxlYd15mlTSfsrJernvMXwGFtkfqXreq1f3dL+It6LAZ12qj8byixi+ENT/XyaxDKba3PQ8VvtwnPX9rEtbvYKZfVLMYzvyP3y4lbE+LvU1P8W8MoPwr4bghP5Ne2GHBOQ4Xe1wp4LSUJWXlKT+KWi+gDEosl4HKqDT18OLqxBbrSZwjxZQxQAVWdH3HJdcxv+PyRJHDW4+l+xVMKzpvFT54YdNO1ZwH2yq280rN7l70i/bLRb0NQKms2bDp9AUKvlmToPmLFuvQodznyot14YU11LVzJ910Y0snBcDZk6mUTWmqWi9IgaZAdx1I0rzRfTS7wTuaPziEk1gAAAAAAHxV0jRF3L5dUYmvKfISJw1AhXZaAwUAKjKXtrz7rEa8PVfrrJcXBdZX194vaGRUGO1+AgAAAAAAAJUIgQIAAAAAAAAAAHyYFSjgZcYAAAAAAAAAAPgwAgUAAAAAAAAAAPgwAgUAAAAAAAAAAPgwAgUAAAAAAAAAAPgwAgUAAAAAAAAAAPgwAgUAAAAAAAAAAPgwAgUAAAAAAAAAAPgwAgUAAAAAAAAAAPgwAgUAAAAAAAAAAPgwAgUAAAAAAAAAAPiwc/YfOJCzY1eKQho31JGjR51kAAAAAAAAAABQ2f3wY2peoODG5jc4yQAAAAAAAAAAwBes2bCJpocAAAAAAAAAAPBlBAoAAAAAAAAAAPBhBAoAAAAAAAAAAPBhBAoAAAAAAAAAAPBhBAoAAAAAAAAAAPBhBAoAAAAAAAAAAPBhBAoAAAAAAAAAAPBhBAoAAAAAAAAAAPBhBAoAAAAAAAAAAPBhBAoAAAAAAAAAAPBhBAoAAAAAAAAAAPBhBAoAAAAAAAAAAPBh5+w/cCBnx64U3dj8Bifp1PhmTYLmL1qsQ4cOOynFu/DCGurauZNuurGlkwIAAAAAAAAAAE6nNRs2nb5AwbBnXtKgfn10dfBVTkrxfkz5SZOmvaOxL45yUgAAAAAAAACUby5tWTBLcf4dNaB9kJMGoCI5rYGCAVEjNXV8tNNVOicyDoAK4Fi64mLGafziBO2rWl9tO/XXiL4tFGD12zRL3aKX2IMVFDlyjvqaQ9OWGT00eqmTmKujRn/QS02VrmWjh2jq906yt8b9NHV0OwU6nR6uTdM0IDpNPd58WhEFexol9c+vLPPPVMryuRofs0JNnXXLdXi7YmOmacbyQrZRQXuXaGTULDXwmkbx20hK+/xlDZie5E7OFaIB3uuYuV3z3xyn2cu3KyuwpW7v3U8DOtWXn9Pb9zi/bfDTmtc3JK/b81sH1FerG0LU9p7uCi9xPynIVKRjhmj0nu6F7qNAxZGp5MVzNWPBCm3LsLqD1PTu7orqXsTxq5wq/Bjp4XWstMqzeTGa90mSUqxe1nHgnn4aeXtQgWn4q2HLlmoa1kU92tRy0uAbiqkXWLzrBmnxmhOzUPMSU+1eAfVaqMcjQxVR91SWN0B5k6QZ97+sWKcrVwdPfcst4/uFGj9+rpYlZ6n2De3V97F+iqzvVSs1+Wdq9CR9tilNVRuEKfLhoep7o7/T0yipP1BumbrVgomKnm3qVlmBCm3fSwP7d1SDGk7vgoo71y5EiXkrnzIsS+YKjWw8TsGfx2qAlZXLuFwAzj4rUMA7CgCcZpla9swdGrA6SAPGv685I9pJn3RVj4lJclm9g8IUNXhQ/s/9LZT1dYZc59sTUPDN+ft3q5emuMNSVbuvv66/O39/6xP5/9u7H5iorkR/4N/NboJv3TCNjUM0C2oD6i8D6grULIIbEBtwJFKwoYVGlFYUK+Js1EKqLtvapa1EdGUZhSdWU1hJhWIohVTUPEVeLOBW/uRZh93qzIuGYWs6pH1lsm7md+7cC/MHhoFWW3C+n+TC3HPu3Hvnztx7zrnnz53ThlaxgVFZnm9vQL9PFE6umDD4byXMmbf4USa2ffO1UmRFLYH2YA1ar7Rh8KESYSeO0cGXUDaUgJKqOjT+JRdhn29FdFGbfIxcmFBXtB+VbusY/xgBqtBkl/iclX5ovSXWPryAKLTpM+JxcigRhWfroN+jwRcFL2FXw4AS75sG74vv0eL4FqR5hG+Uj+PGWCyyNCNnWQr0nu4vemDtrEB+YTNa7w8qIUTTkLUXlZmrEf1WJ/xEwdF+XmRHIWhoaIxr12QMoG7rfBzpVGZ/BC7XyMRAcZ0OhHZ4PjcZS6RS7X1RAH4+EjnnBrHwxS1yXLIoCQ8pn/ZbE1qxHFn292zE6hALGl+LhLZ8khcImuZc8wXaQJGOBCaMzOueD7XfJDFfOgDtsjzUWoKRkS3HpS4Tp9WQvJZHld4QTT2BiBk+H+zTeiy814Yh51x7bwXS407DGrcb1WffQ84zncjfsBeN95X4B+J6/FweWp/ZgiNnT6EgDqhN3oQjN5Xrsbd4oimsu3wTok9aEZ9/CnUlWzDv8/1IKWiGWYl35aWs7c7bueVmMvtiudaMSk0you31fZPcLyKaOqQeBddvfG571LbtyldeTdz3eQ8R/XBD/QZbl8Fs+/obJWDYkMV212Cw9VuGlAAPvrHYvva0SE+5bfWcTbaqL5V5iT1sr+3jr5R5N10nnreps+tt/cq8s7sf7bSFrjtma3ffV2dfXbLlL11rK+lw36khW/vh521rc3faUuZstdXeU4JHjB8/ZBHHo6fTdrvfIpYcxxjbv33xrK39njTfaSuZM0/EyeF2FrG8tD2jMi+5fsimniM+pzI7TPr8EWL/Nruvw4m3YzTUccy2dulO1+2JsNA5B21XnT7Y15/stanjy21dyrzvMdtqs+fZ1Ic7XeY3f2RW5iUW28e7xDLvDS8zAd+I38C6523bcl/y+Dsnmg7s1+r4Q+Nfj72R0pmeHttdcX11XH56bGXxHq5x/xqyfW3ssXUZxfL/UsLc2ZcxiGu1Y41DFrPtdo/Bc1rlTFwPR19/LbYL+RH2c/auEuKu/6Oto85p+3V0jjhGyjz5nvbDzumIwp5PEOnJh84JsbNHlN4QTXlGW21uhG2tOEccl2fpejvPFvqnay5h0u9/9V967HNdJ9ba1BlnXa7HXX8RYbuabF9Lr73EE01Z9nJhhO1PrU4Zlq+abLvmrLWVyT9/V5Mqa3s/t1xMal+MtqqMebb0s0q69j3uARDRT0+qH2CPAiJfZm8NGomIFw+gcF8espJicOSmEtVZitQVS5CqO4CcDK34n4fUuaXokKPRUTIfYYfOo04Xg4CQJdA1jd3y3GzoRPeqBETPVwIkmnCsRg26+pR5Z9Y2fFxmwq6NCaOGY7F8Voqck4HQn96BCE9dLwXjhTOoDN2IlHDX/gTWz44h/1Ii3tkTN2aXR8/xvdBHzUd0xjbo3irGruQliHihAt0emkOMtf2QuDREzBnVv0Hmr0aQphkfX5eHHpBYvhLHMykQQcq8nek8CgtVKCrMxBIlyJ3XYyTWsSvXgIxz7yHFaehI8z0DzOJTz3DaRVVoFLS9nTB4aGFCEn8ESF+SyQxzbwXi576OxgdyjN2oMCs6yvbjQtJbKIhj93eaznrR+uENRG8S1zYP12Nz/TYEbD3v1OpM7imQVS+nF/YW1Qu0yHnrbeiyNyF6ZzPMIu0JmKtFYS9QlDRfvHYsb+2rgW7VIsRvfxuF27UIikjHkc7hC/ENHJkbiZzCt5H63EvI2rMX6csWQVt0Bvqt8Vj9Sh7yc1/CwhV5HlvNjWuwExdPD4j0MMH1uuyFSi1daE3oH7sZIPkoS+dlVJq3iHzXZMZwdkpv5ACiaW5QlCfycHLOUVTrljv1J+hDz2kgdWW4U5g/wlYmoLuzD0aRlhg6exGdGOVyPQ6LiAVqemDwGk80hRlE+RzJiIlwKpTN0iAmsRft/+MoKw6bXFnb27nlZjL7cqcNjZdioV0hp2uTvgdARFMGKwqIfFnPZRR8mYnqS9WoPSumS1exSxrz3tqGw68UQ7XvKtobRHhDCyrXqtAqv2uE+dNO4NU63DZ8AX3i2GMwG79sBlQzHCPcKP5DTIZ7oysXLJfO48jsbKxb6ZQhEaw3S5GeXIwZi1Uw/08fLC5D9zjrReN/XkZ6RqLrzZwHl1GY3YusY1sQpgxp5GLceA2yLt+Rj4U4To0XTmHdtbdxsUeJduFh++MS6z/yJnA4Bal7zohM1hnkHwIq9613qizphX77QQRJ42TPUoLceD1G95uRk5SH7jCxVkMfzE4VHepnQhGGTty+owTYSeMfNMN4T56jMQy24cInQPxKDdSaKKRqatBy3TGcUPd/1aM/d/3Id2a58DY239wIfbZm1DlBNK1YLejvBRaqv+9IswNorTmDoBN1aJTSn7N1aP9zAtThO9B/rw4FYomChjvi9R1UJkvpiyis6l6HeWuLki6J9KlwNk6+csw+zJtsAOagNJGW1dnXV3soCh3H+hBU1ILWD6U07oRY73nUXh+7YntcD8y4La7VAU+7pk3jG0TrpSYgLgrSZZdomMXcJ5J+NVST+jk5pTdKENH0ZUX3sU3QHpqBhU8PoLvPaSjG+yZ0iX9PzXQ9QWZI+fMmE8wwwdggihcz3XJSP5fm+2AU7x8/Xp4lmorMJqmA6dp4yz5WrPj9N5pG518mVdb2em65msy+dH9yBi1padAqFQOTvQdARFMHKwqIfNnTsxHfdwnVNTdcbhqjrxcXzQlYt9LR0k01a4xi6TPhiNbMFhlxP/iJDIR1cBAWp8nq8Wa+J72oPlwD7WvJ9gfwOht6OBvr9r2B+AUWXD3yEqJfOoNuJc6ZpekMCrEbGS6ttQfQWLgX/fveRLpzq4YR3uJh/3x4aBWfSxyomSoEyMGjjL197/rvmWB9Jk28D2jRH0Pr0/6wWoe/FKkwtR+1q06gYJVrxs6Z12Nk9cOS7DeQsVSN2/XbEBZ7AC3DLd01G/HOHgt0yfFIfTFdTCmITitFO6KgflpZhuza/5wnH6MX4hG2OB11oUdRlCydKxpoX41F9adtsD/TVfyeWz8yI32V0mrnfjPy95jxx6K0SbVIJpqSLIPoF//8Vd+3Z4w/1PNno/VcDVqcbxB50tuG2s4EpMYFKwFAUGIaUs2luKr0hJOoZjkqLmbMlPZNjYCRytVABK1QXk6WZQC3xfsDvH3c68eQY7+GpiN62RKkfhQK/cFknvPkwvLAIH7A6jF7NzrznN4QTXdWWNWJKNwXi4WWNpRsWI3USj6Ag2h6kso8vchaG+U1XSOiqY8VBZN0ZK7cDX70VKosQTSNzE9DWVMa0JCHsAUxyDh4HoZvRfiQdcyb8OMbQOOeJVi42DHpbwLqwATgodw23V2AW2sG67UmlA3sQNYYvRNU4WnI2b5FTLtR8v57WHftAGqvONduSExorKpB/Kvr4dxD0txwEPmWXOjiVHIlhkXemyGLeC1W4S1eKsx0lG1GZIQWWdmbkZqUhyL7Eu7G3r5Xd2pQkGnF5hO7kZK4ESUftqNxoxVlG96238i33qxA/ofhyH8xGEP2ShgLvhNv+07aP+n7Ung9RvNjlfgtKDxxCkVBZ6BvGu426ocIXR2MDUftD5YrPPRXtFbvwELMhuqXyiJkF/nKm6gsP47Kk3VovfUF2kvWI0j5voPWpCG9ph4XpdZq0o1NDPeOEedH0X4M7szFapX0HSrf3cMh+2v3XzLRlKdWY5H4ZzCO7gY/MX6I3lOHkmUGFG5YgrC4POg/G6fCYDhdcu7x5TcDT4l/P0rLNHUgItGML7y1RA3fgnek64OYGq90wdj2LlLmTyZBIF8QEBgONElD/o1vvPSGaHrzR0SanCfN2fMuqg8nonVfvdxDbE4gQsS/7/5tX9CVxk+kHrMRlCheizzUaGr4z/QWr7wkmoLUc6UGEWP9doEwt7KzZDJlbe/nlquJ7stwGV67ytGaYlL7RTQh0jCjY92LlSbHENn0w7GiYJJ23ZO7wY+edihLEE0vqqVpKPrgKvp7jmO1KQ85Vb1Syg6tNKbyyLjqEzEbKSdcz4tdohwctCAU6qYeGJ3vhN4x4CqiEBbi3DTThFp9KQKyExHtLe+gtOjvt7jeVLJeq0HRpTSkr3FtbWfsOw/zhQOID1UqMeJeRyOaoYuTn63gLR43K7D5YCCKrrXIQzQ1HLUPi+HO0/a9MX9+GS2J4VjoVHAJSkrGOvMZ9HwJWL7sQUdfBTJWKPu3eDOOiGWOvCxel9+Q3+DOwzFyUOEpFXD7gWu8X6AG0SvFdxPoZ9+vVg6ZMZo4tip/f2Vy+7HOioI2U37ehDTsUMCrCUrvGBMM5wbQsk+rfIdLEL2nGWh6HdGL936/MdOJflLBCM0EGi/c+P7jpf8iEPG6o2j9/AtcLFCjNrkYLZ4uWU/PRrT037mnmnUIX4t/IXPHHvrukZoTjEgNcPHajfEr9n4xw+n64D+q0E0kUYeEi7RBpLEjz9jwYLz0hugJ4qeSMptmWOxdMgOxKAnoMDhXRFtxu0fkm36nwUKpd1jobDTeMrlcj4232oBVIt7fW7wSQDQVBYaIcvgN1+FgrQZ0NUCUGRy9KodNvKwt8XZuuZnQvljRfrkUyIxzKcNPbr+IJmL5uPdjI5Sl6IdjRQGRL7NaHRnoWcEIGr7XEhiF1A1mlL1Xipa+AZj7LqPyg0tK5CSFx2J7eAWKym7Iw7E8HEDLB2fQmpSGeOdhfnqbUXkpFllrNUrAMCvMt/pgHmk5b4Xx3GmcRALWRDjfHBpEyzmRSXEaD35YhM4tIek8KjI9CdB3ymNfe4uXbkw53wiz3jfhrvLawfP2vbHfMGg6jTqn1rSWa5fwMdIQskDEJx933T/n8bt1y8Ur78fI0tcLozRsksJyrQYnGzR4JWo4kzcI832n+Fs1+ENhJ3KynYbMMLVBf6jG6SHOVnTXFKOovle8Ulh7UXeoGNW9jnX5Fn/ErNuB9qZilJUHInXVcKXR6IxNd1kCkHQU3feOI2WOshjRtOGP+JffQETDQeQUnke3We4ZIw1BZ+4zydf7n4sS4/Ue3FauTdb7Pej6h/xaYh25ZvlBvSDQqbu6eJ8auOvcU2C+SJfimnHynJKWCMb6M9CrdyBGerbOY6dB+t6N6D+Uh5yytpHrqfR5jXcGHNdAoonQpCE/04yi3Dzor4nzxd7DTBre0ASjU1pM9ESyDsAgyhcjQ5RaTag7fVrkieIQaW+cMhurN2zEbZGfrFPuZ0r50soyDQoS5eEcI57LRkRZsaMnmlmUVd5vg/bFOHu+1Vs80ZQ1JxbpmQYUHT4Po/0cGYThrMjvaHZj3Qr5Trzxiihb1yjlL69lbRNaxbkgl828n1vW3hqxLpHPkSInsC/Sc/5qxfu3PyeVSZ1M9B4AEU05rCgg8mGWa8WInjsfkUnp0EYtgu6L3XgnQ7pRPxvaor/ijyE90O/LQ/5JExb+Lkp+06RpkFN2CpFtW7FQ6hYWFAndzVjUFjk/qHdQZBzK0Z+7BamjMg5WdJ3bhtUhw93KFiHysBW6pvdcb66KTE1ZTSwKXop69C04wxNQsqYJGSvjoY2LQfoJM9RSl2ZnP2T7mo3Ql4TgXPYSBETFI3rZfCzc04fU+jegnVClg/djZL5ejNTFi5R4sf7X2hB58jh2hQ/vrQm1GdGO+BfPI6Dwry7PRDB/XoPCkmZ0j7R+N8PwaSmOXFJuCkosJlwoKcXVf3hqFvzk81uZiO3/OI+62GSsZgUAPck0W1B3ZR/C+ooRv2wJgsS1I2jxEqzObrYXMNUrk5H1ywqk2q9NMcg6aUbAMvmt0gMlqzZFivl4efz1VRUIOrEF8fZGZhpoCxLQulXEi3XmNEgVBoFIL3JKS8QUeRQoqsr13gvtEVGteROt9Rvhdy4Pkcr1VPq8qX/pcVwDiSbEH/FFF9H4sh+qXovBQukcCVqEhYvTUdLju+kn+QhrD6qy1yIoSL6WByyIQZE1Fy2HHGUD1Zo3UL3TiqIV8jIL4yqgKjmKnOF8q0h/9KfDcVXKO0vrWLYX3c9Vo8T+8PsJxBNNWSJ92Pc+dNZiRNrPkSWIPqFCiX6LMrTtIG5/Wo4jH3TKN/O9lbUH+9BYXoqq63LNgLdzy3i9BkfKm3HbnhR52xdRGrxSj+pVG6F1b+s3oXsARDQV/eyfDx7Y/n7HiGd/82ibY+3ZfxA7tmzCvKBfKyHju2v8X5RWvI9Db+1TQojox6E8oBd+43dr/6wYAdkz0PL5jlEPGp4oqeXlkLfteCK1tPu/CeznY2Tffz9/qB7b5if4XXji9RgNrx+Y4WFIDPk7Gif+W7F257FdxTatYkk/53HDvxXb4NiTRL7FqjzT5efiGuky/rNy3fF07fxWvO/f4przS3HNcb6OjOMHpSWPirLfHj8X0SR4S3uJnkjD19FR6YYTJW3xmEYM5309XYu9xRNNYZ7zO6L89dCt/CV4XN4qnQPuYZ7PrbEXH2vdJlS/HIPGpKuoSvM89O6UyLcR0YR89rebj6+i4L8/60RdQxO++WakX/m4fvWrmUhJSsRvnw1XQojopzMI400zZiwIhFok6NYHvagt3ISqkPdRl6thIZaIiIiIiIjIV/VWIH5NH3Q9706wFzwRTXWPtaKAiKYzK7pPH0D+iRp0SA8vUgcjJfNNFOiiOK4nERERERERERHRE4QVBUREREREREREREREPkyqKODDjImIiIiIiIiIiIiIfBgrCoiIiIiIiIiIiIiIfBgrCoiIiIiIiIiIiIiIfBgrCoiIiIiIiIiIiIiIfBgrCoiIiIiIiIiIiIiIfBgrCoiIiIiIiIiIiIiIfBgrCoiIiIiIiIiIiIiIfBgrCoiIiIiIiIiIiIiIfBgrCoiIiIiIiIiIiIiIfBgrCoiIiIiIiIiIiIiIfNjP/vngge3vd4zQLF6I//vuOyWYiIiIiIiIiIiIiIiedF/eNTkqCp79zVIlmIiIiIiIiIiIiIiIfMFnf7vJoYeIiIiIiIiIiIiIiHwZKwqIiIiIiIiIiIiIiHwYKwqIiIiIiIiIiIiIiHwYKwqIiIiIiIiIiIiIiHwYKwqIiIiIiIiIiIiIiHwYKwqIiIiIiIiIiIiIiHwYKwqIiIiIiIiIiIiIiHwYKwqIiIiIiIiIiIiIiHwYKwqIiIiIiIiIiIiIiHwYKwqIiIiIiIiIiIiIiHwYKwqIiIiIiIiIiIiIiHwYKwqIiIiIiIiIiIiIiHzYz/754IHt73eMePY3S5WgR+O/P+tEXUMTvvnmWyVkfL/61UykJCXit8+GKyFERERERERERERERPQ4ffa3m4+vomDP/oPYsWUT5gX9WgkZ313j/6K04n0cemufEkJE9ASyDqC7w4yACA3UfkrYJFn62tCNUEQH+yshIuxWMxovmYAFsdAmqmG+1oOhZ8IRNud7boSIiIiIiIhoQqzorj+DVv8E5MQFKmFENJ081oqCHF0B9CVFytzEfJ/3ENE08HAAreXFKGnqRP+MYMQkZiM/azlUSjQG+9B4sgKVbSJ+SI3IuC3Q5cYi6BdK/CNg7qxBWfl5YMNRFK6ZrYQqHprQcqwUemX7C0MTsL1gIyJG7sMPortG7P9HPbhtnoGApRrk5L2B+PlK9GTcP4+s8Cas6zyOlDlSwCAMTWdQdroN7eYhse445Px+B+LHyVt1lMyHFnXo1y23z1uvFSPihTbE6xKxcGYwtNtVqJubgq6ydlQmu33WSbDcrME7ZefRZTBjhjocYa/sEMfOlzJ9A2gpzIM+6A3UZmkc87fkWKiCESF+CzEb0hCtVsImTGSky/NQeC8N+sJYTPrtRD859/PDwXzhbeRcixK/7VB0OZ8z7hZvgf55E3KKmpWA0bQF1cjCGaQ6LRMUGouw8FikJgY70pFvRTpS7khHAoI1SH05F+nhjgpVoh+HW1rhTvrdD1/3zW2oFnmT2h6TPUq1YDnSt+4W+YtHmd4QTXH3m1GgO4MQ6Xo/5i2JATQW5KEyxJHe2NOZk7321w4if/5nkT/nOULTnigf1h9DUdVl3LaXjTdie3YCQmYq0e68lbXdWG6dR0lJDVoMctkz67Ut0AZ7alw2iX0ZvIyCxcUIutCIHOlUneR+EdFPT6oo4DMKiOgxG0TL/rXIuR6InJK/ojo/FvgoBenHemG1x4vM/x+24WNEIafwKPS69ZhxaTO0h9qU+B/G2lsD3QuRCMutQMv1NhhHjYZmQt3vU1BwKxg5RX9FY9W70K0JhiOrZEVHySakn/ND/J6jaKw/indeDsdTSuwPZW54G5sbgJjsN6A/lovUmZeQkVSM1kl8+Nu9l2FOykTBni3I2R6LICX8h7B2liI98zz84nZDX18H/cE0RM5SIn3I4P02tFocX4Y0j/CN0OXugG5jLBZZmpGzLAV697KqF9bOCuQXNqP1/qASQjT9uJ8fI741Kb9tfyx5Xpwr0vkiJm2gWD4wYWRe93woVIFRjvmM5cAVICJDmRdTjFQ3+XAQrVcCoVXCUsP90F0Wj+iCy7DYNyjdRHoJ+Z8HImuXSEfeEcslhcJyz2yPJfpxTeB3L5YyXzoA7bI81FqCkZEtx6UuE+nDkLyWR5XeEE1tIh9etB+VV9ow+FAJcmOsP4j8067pjSo02XFOiSlnpR9ab4n4GcoCRNNYd/kmRJ+0Ij7/FOpKtmDe5/uRUtCMsXM13srabnorkB53GlZRxqs++x5ynulE/oa9aLyvxLuZzL5YrjWjUpOMaHt93iT3i4imDqlHwfUbn9setW278pVXE/d93kNEP9xQv8HWZTDbvv5GCRg2ZLHdNRhs/ZYhJcCDbyy2rz0t0lNuWz1nk63qS2VeYg/ba/v4K2lmyDbktt27H261qZces3Up88OGLEZbV49x9H6KdXxtMdtud/TY7rrta39rk+2CwSJemW212fNsmz8yyxGKrz/Za1PHl4/a1giXffXE8/btpOPYo8Tdq7dtnrPVVntPifrGbXmjFB9hK3G7LA9/R0P/stnaD8+zqQ93KjHKfHa9rV+Zt9k6bSVzlM/qvO0xjH1Me2xl8fNsuz6Rjts4/iU+t7HH1mW02PfLnefva7qQfzOOYz3Wb8hi+3iXWOY9x/fh1Tfi+1n3vG1b7ktu3xvRdOJ+fjj0fySu4WP8tt2vXaO4XR9HdByzqeccs7Urs3b2a7NY1ihe2983z1bSIUcRTSVj/u6/umTLXyrSkw+lH/BYHlF6QzTF3f1opy0id6fna7jIF2/77U7bNg/pjWRIpBFrl+6U0wOi6c4i0gdRFvxTq1PZ7asm2645a21lPcq8M69lbWcW24X8ebbQP10Tpddhctqy+i9jrHxS+2K0VWXMs6WfVU7ESe0XEU0VUv0AexQQ+TJrLyozIxHx4gEU7stDVlIMjtxUojpLkbpiCVJ1B5CToRX/85A6txQdcrR9+JuwQ+dRp4tBQMgS6JoGlBhXZkMnulclINp5mB5NOFajBl190owf/Ny6LlrMJmBFIAKUeXwr9nNrDCKSX0fhW69DuzLGsT1zM3TLoqF9JQ/5h95G+qpFiNQ5WjmoVyYg3mksf1dWdHfWIOyFKIQpIe6Mn19Gd6bYf0+t6b1sf+Q45r8N3StaRO+sgVGJk/jNdOvmOWgW8eEIGuk2bUKjOMZBz22zf0cpz6Wj6JIShRs4Mnc+tIfEy4Y8hInXAU7fkfGj/cjYsA26t/YjdXE0Uo/dcLTgGO+Y3ulBS+9GEeZ5yA5r7xlkrRKf+/dvo/D3KYhY9bqjJcp4637i+CNA6sJhMsPcW4H4ueI4PJBj7EaFWdFRth8Xkt5CQRyHRCH63mapEYROGKVza6Y4D8W/rj55+Baiqc7SeRmV5i0i3zWZ4fyc0hs5gGh6M51HYaEKRYWZWKIEuTKh7uBBPPXHt/DKYiXInVjHrlwDMs69hxQOiU5PAoMoRyEZMRFOZcRZGsQk9qL9f0bnc7yXtZ31oec0kLoy3Kn3vD/CRHm5u7PPpYxqN5l9udOGxkux0IoyvGRy+0VEUwkrCoh8Wc9lFHyZiepL1ag9K6ZLV7FLGhvU2obDrxRDte8q2htEeEMLKteq0Cq/a4T5007g1TrcNnwBfeLYY+Ebv2wGVDNG9QT+DzEZ7o1x8/h+M8rKzcja4Bi3vfv0XpQEvolWZT8v/jkBLQU16JYi1bF4p6MdrR/Kca3n3kRQTT1aPXSfdCUK218CQb+woKXyALJeTEfqi6/jSFPfyA118702kX+SxmYshc4evw0FlTeU4S6EcbcvMlf5xZiha5GP44ctaH0rYZxxGQfQeKIc/ZlpWG1/fgFgaSpF1uUEVF1psa+/8dJx5IyM37ocu+7dQeMe8TLpKLrF6/57OxAhR0L1u92okrZ7tg7tV3IxQ+rarQxZMO4xNZvEd+2PQcN5HNFJnzkdWQVn0DFys1t8rl3HEHTwovy5P2yEfu0l5J+TVz7uup80g2248AkQv1IDtSYKqZoatFx3DCfU/V/16M9dj3ilosly4W1svrkR+mwNe8fTk6GzHvqyCpfppPRg9cfMeKUJjeo0REg3j/xjkXMiDd26GES+fAD6+hsws187TWEWcx+gUUPl1lZgXM7pjRJENH31Qr/9IIKkZwp4aIwjPcvpD4HSs8U8NKwQZYacpDx0h4kzwtDH6z49EcymHvFXhRku6YMoNfwCaDSNLjtPqqx934Qu8e8pt4ZqM6TnAjaZRlVCT2Zfuj85g5a0NGiVioFJ3wMgoimDFQVEvuzp2Yjvu4TqGrebKn29uGhOwLqVjqY5qlljFEufCUe0ZjZUIrPhJzIQ1sFBWJwmq4exRj2Txyk1Zp5wKhT0ovWjXqxbGioKyfJ6h9TBiDT3wGC/GS+2LWVurFKc+BAzVZN4QNIAjE1Ae9N5GOekobD8XRS+OBtXC17CrgYpAyPipRYPDU1oxXJs//NRvJMbhaH/dB5fcZzt21vmJyA1LlgJEFSe988+BuuXmTi1L1ZZRu7xgIxExI+Ukfzx1NPKSy9Us5y2FCw9+HO49cf4x9R8T/rQ5/GxNFb4a0ehP7gD0UMV0GaWolv60L1tqO1NROT/g/290ucOWBAOc48opHn9vqa/9j/n2StPUl+IR9jidNSFHkVRsnSuaKB9NRbVn7YpFUnSsTAjfZXSakcUaPP3mPHHorRH8hwJIt9Sgz/YK2vToY2aj8iiQez6SzailcJrUNK7aO9pQVEc0PpeCsJWpKPwAnsY0NRkeWAQP1q11/yK5/SGaDoT+dtj+1G76gQKVrnesBxmvVmK/A+jcEoX5dTy2Y3VD0uy30DGUjVu129DWOwBtDj36iSiH4lc/staGzWJcjgRTVWsKJgkaZiPgDGnUmUJomlkfhrKmtLkYWsWxCDj4HkYpIf9DokMvLzEJAygcc8SLFzsmPQ3AXVgAvBQrFJZylmAS2sGE1r25eEP2Ae9brlTocAqjZCElvI8ZGVvk6fC87CsCkeIvdW9SWxXFKBjN4m4zUjNOIhG+/smIhBBSUBkxm5kJWoQ5B+IsOTdKMxWo+5CJ8yYjSCpteoL2diVHIUQ9WyErNyIwv1p6Dh5Gbft6xhn+18NyL0wpIoEL4wXDiCnEPhj2Q5EjAzFNCg17p/Q+71zbv0x/jFVB4aKZdKwXbce0cGzoQ6OQtb+N5DeeRoXb4ko++/jMsp0ynvFlN8wiOjwYKi9fl/TX+Qrb6Ky/DgqT9ah9dYXaC9Zj6Dhm5Vr0pBeU4+LUqWIVKGCbKxbKUWK86NoPwZ35mK1Sq5AsUjn2sMh+2vnejqiaSU8GTnbpQepO6ZX4h7Hjcz10EnnnZiqm7tg7KhGgfvwaLOCEZ/1JqrautCYOQR9ZgVa+LxwmoICAsOBJoPXIYTGS2+IpivrzQrkfxiO/BeDMWRvVGLBdyL8O4uSNxIZSf2+ekTuTUPIv+U809dSQWLIIl475Zjmx46kO4UnTqEo6Az0TawgpulNPVdqYDZWyRkIcx+yVph4WVuYE4gQ8e+7f8uzLjR+oyrlJrov1mtNKBvYAe0qR75sUvtFNCHysMue7scOD79MPxwrCiZJGuajf8xph7IE0fSiWpqGog+uor/nOFab8pBT1Sul7NDChP5JtcqZjZQTrufFLlEODloQCnVTD4zOd0LvGHAVUQgLGc5MWNFRkgfdYBrqikQhWAmVzYZ6FRC/87h9GBvHtMX+XAFzQzGyTBtR11Ynh1ftE/s+Uf7SR0X7l66FCpVKJXZJ3mG1Ogq45doVc8ZMsd8iQFpi3O0/PRvRGJTuq49Leo5Bzh7LGOOryvuHb4cewY3kIal8hZRgaYXjH1N5v8V35twDQHxmFQbsGT45Pha6cuf3iilbIyK9rPtJIPUa8RfHwz65ZXRnRUGb2YyPr5vsww4FvJqgfG4TDOcG0LJPO1KRFr2nGWh6HdGL9zqe70BEHszAUyPnnb/ck8sjf0RsyBTXYjMGpZtORFOMOiRcpA2X0drpJXUfL70hmqYsX/ago68CGSuGGxdtxhERfuRl8br8BvCgD12dfdBnxozkmTKOiQWObRavKzzcDFLhKZF9v/2AtcM0zQWGiPzLDdy+o8xLrAZ0NUCUGZx6qSsmVtYeFohFSUCHwbnsa8XtHlEm+Z0GC5WQERPaFyvaL5cCmXEjvTwlk9svoomQh112vt/kmBzDL9MPx4oCIl9mtTpuQM8KRtDwYwYCo5C6wYyy90rR0jcAc99lVH4w8gTdyQmPxfbwChSVKeP6PxxAywdn0JqUhnj7GIZSJcFL0H4eh1N7EqFWWg7ZJ/vOBSIsbjkqT9eg2znvLwoC9uh/O+c+ROHDZHY8P8ArP0TG7gAOlaPylrLywRuoO9uGeLFNabCloJXrEd9QjrILyliKD01oPFcPde5y+QbweNufH4r48DZUfdQGi30YJivMPSLDZI+USZUEKUmdWFO+G1q11fHZ7S2m/BC2YiPU52rQeEfZzoNedEmt+ifAKLY1PKSU+cIZVF5JwJoI6Uv2ckzni+8/rhllJy/DbN9vsa6GGtSqRQIsdTawf64zOHW21+VYWx5I7/ay7ieeP2LW7UB7UzHKygORumq45md0xqa7LEF5tsRxpDwhvS2IfhLWARhNTsPd2dOZ02jUPDk9megJo0lDfqYZRbl50F8zKT3MpDyACcb7vpFaku9SJx93yQ/136tDgQgvaBCvdcuBOetR6RKvPI9rT514Ld8MsvT1wujUu8ByrQYnGzR4JWr0jVSiaWVOLNIzDSg6fB5Ge75mEIazZ6DX7Ma6FfKdeOMVUbauUYbB9VrWNqG1rBjVvdLSs7F6w0bcPlSMOqWuwHKrBpVlGhQkykOlWntrxLra5PLqBPYFDy6jVrx/+3Pi3HXmdb+IaKpiRQGRD7NcK0b03PmITJLGfF4E3Re78U6G3CpcW/RX/DGkB/p9ecg/acLC30XJb5o0DXLKTiGybSsWSt3CgiKhuxmL2qL1ysP4etF66AZwoRjakZZF8qRrkm/Oh2UfRVXwZaQvlvY1BZHSPu9ssmdg1Ks2IufbA4iOShGfIQa6HoxuDTEOv5W5qD4I6OOWyN3WFm/F1fBTKEpTbvDOT0PR6Sh074mU44NiUGQV79kpj5k6/valz34cCxvysDBIvHeZFn8wqFxa1ndfKUYHLqMo2dFqyj7tabb3YlCteQOnsgdRJL4fafuRO+sxGDiR72I2Iv16oYuVuuLNR9ieXkSffmPkhvR4x1S62Z9edArRN/ciTNpvKe6wFbqqXKWliPydhlzYJL7TGGiTYsQyMdiudPcef91PPr+Vidj+j/Ooi00eeSg1ET1G1h5UZq5GkHK9sqczN8Kh1298cnoy0RPGH/FFF9H4sh+qXhPpf4j0u10k0v90lPSwRTSRN+brxUhdLOeNpWnha22IPHkcu8KVm5dE05ZIH/a9D521GJH2fM0SRJ9QoUS/BRH2n/cgbn9ajiMfdCplKy9l7cE+NJaXouq6XE6TypbVO60oWqGcO3EVUJUcRY5y7hiv1+BIeTNu25Mib/sizsUr9agW5WGtdAvBhbd7AEQ0Vf3snw8e2P5+x4hnf7NUCXo09uw/iB1bNmFe0K+VkPHdNf4vSivex6G39ikhRPTjkFqwSS0M/Mbv1v5ZMQKyZ6Dl8x3f+8aL9LDjIW/bGY/0wGBpV3/uD9XIOP4S+TPM+KW34SjGIbXk+z+xcj+x7jF3TzlOo7Yt8b596bNDGi5DmZ806bM/HGvb3o27bY/HVObtO5PjMfZn97JuIqJHafh65DU9I5piRtLSH5JPIPI5w2UYnjv0ZPJcDrPC+tBvVNnL4/LSkLp+7mFyOW2sMtzYi4+1bhOqX45BY9JVVA03shuD589BRFPNZ3+7+fgqCv77s07UNTThm28mNjjsr341EylJifjts+FKCBH9dAZhvGnGjAWBUIsE3fqgF7WFm1AV8j7qcjXMiBMRERERERH5qt4KxK/pg67nXWhnKWFENK091ooCIprOrOg+fQD5J2rQIT28SB2MlMw3UaCLcnvQMBEREREREREREU1nrCggIiIiIiIiIiIiIvJhUkUBH2ZMREREREREREREROTDWFFAREREREREREREROTDWFFAREREREREREREROTDWFFAREREREREREREROTDWFFAREREREREREREROTDWFFAREREREREREREROTDWFFAREREREREREREROTDWFFAREREREREREREROSzgP8P1VLjzLYlee0AAAAASUVORK5CYII=;" vertex="1" parent="1">
          <mxGeometry x="-1650" y="-14.000000000000014" width="1546" height="348" as="geometry" />
        </mxCell>
        <mxCell id="UgRBFtctamIXkeDdi4D6-23" value="" style="endArrow=none;dashed=1;html=1;rounded=0;entryX=0.012;entryY=0.567;entryDx=0;entryDy=0;entryPerimeter=0;exitX=1;exitY=0.5;exitDx=0;exitDy=0;" edge="1" parent="1" source="UgRBFtctamIXkeDdi4D6-22" target="UgRBFtctamIXkeDdi4D6-11">
          <mxGeometry width="50" height="50" relative="1" as="geometry">
            <mxPoint x="-740" y="440" as="sourcePoint" />
            <mxPoint x="-690" y="390" as="targetPoint" />
          </mxGeometry>
        </mxCell>
        <mxCell id="UgRBFtctamIXkeDdi4D6-24" value="" style="shape=image;verticalLabelPosition=bottom;labelBackgroundColor=default;verticalAlign=top;aspect=fixed;imageAspect=0;image=data:image/png,iVBORw0KGgoAAAANSUhEUgAABhUAAAC+CAYAAAAyeY74AAAAAXNSR0IArs4c6QAAAARnQU1BAACxjwv8YQUAAAAJcEhZcwAAFiUAABYlAUlSJPAAAGGfSURBVHhe7d0JnE51///xd2kaWzMqRsJkV6GsuRtkaXLrlpKKtp+0qajc7hBF0YJwJ4mKlPwtaXEr90QSqcEta5lJjK0Z6wzFWMYY9P9+z3Wucc2Y5Zoxw8x4PR+PM3Ou71muc851vmf5fs75fi9IPHjwLwEAAAAAAAAAAGTjgvh9+wgqAAAAAAAAAACAbF1w7NgxggoAAAAAAAAAACBbF7r/AQAAAAAAAAAAskRQAQAAAAAAAAAA+IWgAgAAAAAAAAAA8AtBBQAAAAAAAAAA4BeCCgAAAAAAAAAAwC8EFQAAAAAAAAAAgF8IKgAAAAAAAAAAAL8QVAAAAAAAAAAAAH4hqAAAAAAAAAAAAPxCUAEAAAAAAAAAAPiFoAIAAAAAAAAAAPALQQUAAAAAAAAAAOAXggoAAAAAAAAAAMAvBBUAAAAAAAAAAIBfCCoAAAAAAAAAAAC/XHDs2LG/3H4AAAAAAAAgQ4sjl2nGp/9R4sFDbkrhEnRJad3X+U61bH6jm5KxxEOHtHf/fp04ccJNwfmgWLFiKlumjIJKl3ZTMlbY8wHOX/4eA/1BUAEAAAAAAADZevLZfnqhby9Vr1bFTSlcNm/ZpqEjx+i9t0e4KRnbsn27Qq+8UiUCA90UnA+SkpMVu3OnqlWq5KZkrLDnA5y//D0G+oPqjwAAAAAAAJAt+2R2YS5Itcvuz9Pl9g0FAgrnH/ub+/N2SmHPBzh/+XsM9AdBBQAAAAAAAAAA4BeCCgAAAAAAAAAAwC8EFQAAAAAAAAAAgF8IKgAAAAAAAAAAAL8UzaDCH5u1ZNky0/2qhGQ3rdBJVIyzDqbbnOim5aPkBEW53xfzh5t2VhzVrws+15QvV2v7MTfJD/t++UZTPonQyng3AQAAAAAAAACQ7/I9qJC4bZlmTx6uvg92VRfT9R06VbOXbVe+FpP//o263Gu+795xWnJWC8jz0mbNddbBdBGb3bR89Mf/NMb9vrm/u2lnQ8w8fTz/F+2+rJYqXeym+UjZvUUr1/6ilbFpWya//OrKSlm/XFP+u1pJbhoAAAAAAChcftuwSe9PmqJBr76hbt176cFHeurZPi/qzbHva+u2WHcs6Z4HH3c6AMC5l49Bhe1a+HJnXduyq55+eZJm/LhMS0w34/0hevre1mp573At3O6OmkuxCybp/ffNvNechSf5kQ8OaeHc1Uoq0VC3NSvtplnHlRizRJNGvaLn3pysKdM/15QfTl1IOC6+Vn+/4VJz9bFY3+x00wAAAAAAQKFw/PhxfTztU7302ggtWPSjE1w4fOSIko8d067d8Vq2fKX6DXxV4yZ8pGPHUtypAAAFQT4FFZK1ZGhndZ28xvkU2v5RjZwwRTM/GaeRT7RVqElLWDZJXZ8er1WHnVFyIUGrZw3Xq0OHa2Fsoa3j6Py2c4l+3C6VuO46XeuzJ/766VANnPiNfk2uoBYtrlWQm55epSYNVV5/alnkRjcFAAAAAAAUdDagMHDIG/rv3G/1119/qVWLMD3/r6c1afybmjLxbb0+eIC63H2HLr20jL7/YakGvPy6OyUAr5Q967R69XKt/v2AN0Xxm5Yrarv3cwFwdJei7DL+usssXcGz/3ezbGb5ovbk9dId0Fa73qs3a7+bUtTkT1Dh16l69f0Ep7fus1M0b3x/3ff3G9Xsxra674VxmvdJD9W1A9eM1otTf3XGcyQnKjHR0/mGCZLdtMREn9Tj27XxJ7f/SAbDfSTv+jX7NhaOJyv2V7cNg2VrMmxXIMPlMEvqXWbfZO+4ycfdz9uzW4ZkJXi//9eENOufNe/3n5rC+W43WJO6zL7BG7Ou3mX2Ll+2jicqZo13+2SyDn9s1ipnuOnWbE6zPTKy59eN2mf+17mmmifBFVSjpR7910v694uP656mFVTCTT9NSDXVCZaSon8VYQUAAAAAAAqHT2fN0eat25ygwSuD+qnnEw+rccPrFRR0iUqUKKFaNarp7o636fWX+uvSMsGKjdvhTlmYxSryu+8023QLN59eYLLjlx+cYbMj14vmI89H6zTjuT7qmUE3Y4M7Sjp//vyZhr35gYYtcqtN3zRd/QZ/oCH9pyvKk3LuHVytGXYZP12tP92kgmT7IrNsZvlm/LzXTckrm7XQrveb83WGFfUUWPkSVIhaNMndeVvpobtuPO1J86Ab79FDrTz9URO/T93RE+YN0LX1GplugObuchOVoLn9bZrp+s83n0xKxL9UqXpnve2JW5jh7dzpJmmVJ8m1XbNe7aq//e0Ot42FO9SgWVe9vSbtwTv510nq+re6CrvVbcPg3s5q3SBMXcat8Wn74fTlcOyar+ec726k5+Z5U0+NO3DGHL39UGtVb+a7DP/yWT/j8K96/9HWauD9/lvDVL3jMH3nDs5S6vcP19zNyzTiXjOt/TzJviWyRu+7y+b57Fo3yZNmuvfXuWlZSFwxXl3+1kitO3q3T/rtmKyoDx5XgwbtdIcz3HQdzW9Sa3y638PXIW3caLdXZVWt7EnxqtSwpa6/4iL3U1Yqq1Z18y9pqzbu9qQAAAAAAICCK2bzVs2eM9fp/2fPx3VN7ZpOf3q2/YQevfvrz/0F6KnrM3Jcx1KOK8V0+2I3pA0cHI3RrzuTnGEpKYW7qqf4X77XZ/O+0cItbgL8lKIjew4oPoPuiL+7RKXmuvfGUDXs3FxV3SQlROhF2x7J5NVuQv6Jn/+Sk28nFZiIBvJTPgQVErQp2i1cL9dA9ap4etOqpHo3lPP0JkRrk28Buz8CQ9Tsxupy56BytW9Usxa2C1Kgm+bxqzYdrq77XuivQc/eo2Z2goRlGvH4eC3xlofbQvmuw7XQLHK5G+/Rs2bcZ++70cw7QUtGdNZzs84snjRj4DD9J/jvGmTn27mBJzFhjiZ/751vspaMe0yvLrDbrJJufcIsqxn3idBEpWtFIBvf6IUuXfX2Mm9gI4/smqPn7h6tJQnl1KbfOM38ZIom9mulcnY7vjDVExD6dar6vPq92WJmnJ5vaoodZ6RZh87pfw9f8dq+x/wrUU7lL/Gk5MblZe2P+qf2EFQAAAAAAKDAm//d906VR21vbqlrr67lpp5nkvdo/e8n3Q9S/MYdGVeRctLWNLFHm2JiFLV1l/Yln5rGBikOJyZqf5KtguKkju7fpY0x2xR7IF2VFClJ2v+HHWbmEbtHh08roDbTJsQqKiZWu8z8TyQf1v7Ewzrq+1X2u/bYccz89yfrhJt6upPad9hT4HbimFk23/mc8XJ41zFGG3f+kcH0RUVDvTx1oj7z6R51qntxHY3VxtXLzTY4omNuUqqAULXo+qyeDb9apdwk7TTj2/9Hj+jwwQNZb7eUvdr6q62qaLP2px8vJd30J1I8nw8ecROk7ds8BbyH3PSU9DvKiSPabqtn+n3v6cOsrL7/qJ3ngVPTmXk5358acUlRiv181PM55cBmRa1ep60H0s8o7bDTtmF6znq76+Kss9vvx/bIlHc9N8Wevh3c39cOK+j7eL4EFfZsdXtvqKzybm965Su5BexWRjtSFsqF99fM0T3V2P3cuOe/NXPqFNM96KlWKVVb9Rv+svo98aieeG6opox+1BOISBivhT95DnJREeM02ymHv0dDxw91xu03/B0N7ewM1tyJ35zZK0PPjtOit/vrCTvf13rrCTd5SYJb+J+4THPHefrrvjBOE18wy2rGHfT2MD3spPorQeG9vtTSdau0eWOUfn3UZ/uegaiID+Q8P9BtqCb2bKtmN96oW3v20H027devtMTWXpWc7G6jBup0fwe1seN0NuswMv3v4euojiSZf5dcqmBPQq6Ud4IK0u69eRxMAQAAAAAAeW7HDk/B4w2Nsy638C1U9e0KvQsvVDGdVPy29Z5AwtEtitqdLF18kQKcEbxitfjb7/XN0rVas3mL1m/4RQsXLVJkrLeUPVbLly7Tt8v+p28Xfas5//tFP2/eoOXLFmnhNvdJ2j+i9fV3P+jbn+wwM49f1+rrhZH6OfXljyStX75Ic1at1/rN6xVp5j8nMlLfLl2hn7111RzZooXffaev19hxzPz/973mLN+i05tI/UPLzXJEufPev80sm3c+Z7wc7nBnHbfo519W6OvIX867aqIOR72rxx97VS+++YFe7NdL/Wake0r7j/ka+lQfdRsx39k2zpsDI903FCI/VjczbOiijJ/sjo/8tx5/eID6Df1Aw4YON/29NCry1Ljxi4annd77XU99rCjt0rzBj2vYD55BkeNs+nB951u1/J5FGvJEL/W21TO9OEAPvTRdG4+6w4zsvj/qEzvPPpqy3k1Y71kf77ra6qOm2M+D39aYQT10f8/hGvLm2+rXs48m/XqqdD5+/qt6KHVYD41a7A7IhGe9e+mD+RFm+XukrlfW2yNz8Qte1f3e9Rxs+p94VfPsQ9feYe7va4d1e/jdMyuTzmf5EFQop/Led2yO22yfsSTfQEIx938+C7y6oZq5/VHbbSF0gjatdtt0aH+jGl/m6ZWC1Lh5W0/vr6tz/iaFL98zQmDx0wvQN/+qyW7vP2641u3Lncp1r1VoUJACAwMVlBqSPBOntk/dxDWa/P4kve90X7k79a82niBVv1bdnLL9+Xq6WWt1HThVCzefqjgqX/lTSxIAAAAAACgQ4nbsdP7XqJ5aQcv5JaC8ql5+oZS0Uz/HntT+zdu176RUplKldNWHByqk8jUKC7tRt5iu5VW2oOe4du1KV6/FsWQVq3CdWobVV43StpjvpPbtcQuyLrpEFavbYZ55NAi5SPrrsGJj3dLeHeu1/s/jUrEyuuYGM84NVXWpZ4grWVFrY7Qv5SKFXN1cndo21zXBFyrlz1hF2UYy0yil0KqVVMYtBysVUk3XVK+iULvYZ7ocf2zRJju8ZCV3ezRR01oVTqtuvWhYpzE+7SmM+sGt6//ocn3w79XarwrqNHiYJr87SL2aZ/2Y7qXX36OnWrvj1G2tAf96TPddX9bz2dfOzzT0vd+0PyBU95l5jxvcVrUCjmj5e+8qtab3LJVVw873qI37ZHndux8z33WPGqapmcTM+5VRmjz6Od1XW0r5fZHGf+fuy2f8/T6271XpfzyncXb73FjSJBzRdyt/8wyz3zMlVimX1FOvEXZZ+jvL4o+FX8yXGjRVu7ZXKyS35dj2+yebdW54j8Z9PFGfjWivWkdjNWWuDfys05xpZtnKN9WA0WbZ3h2l0WY7VPJMWSDlQ1AhUEHewvlvohXnBkfTSlbcb+bHcITkUQG4H8qVk/fFutQ3BeCXqFnj9erQ4W43VQud1BtVzh7lg1rptdnj9EQru6tv18L/N0Rd2zRSWN/5OazCKRfSvdUHAAAAAAAKLvsgpPXXyb+c//7Yf+CAU1d796f7uCmFW8ValVTKvq0Qu0IrdiRJF5fXtbXSvqcgldc114YqxE0uXiZIxW3PX2nqJTJKq8LVFRQSVF4Vg9yRveMEher6muUV5BaCVriktKfH3fTx+xKdykOKh1RT3cuCVOayMiqepqRwl+LtM6PFSqpUyk6t37xTR52ixGQdPq2pi0BVqFJBQe70xcvUVN2aVVTBLvSZLkfJiz3rfmS3fo7ZpcS/ghRasZwn7XyxZZ2W2wfur2+t22uUValLQlW1si00z1xA+Xqq6x3niqvVsGFT1S2ffj8z+evX32SbQi/V9h51MvMOqXGP7mtth+zSj341YBygkGvrqaobRKhUo6n5rnoK8f2ByldXrSuDVarc1ep0e0Mnacfqdc7bOmf+/b5C1fTG6gox26dWTU9AJeWk502F1O+5qa2aO8tSXVWvcAZlq1bn/nq552N6tOv9apj6UHrOeL+/dqVgbf95uVbvPqKLzeeUbSafKVghNiizZ7U++SpSW4+UNNuxusrYCQuofAgqBKleE/cpf32VWs1QGodXa+Est799Q9U7W6HFXdvlbZf41qs8sR73XCYlHk3zVkWaNynykzmgeirwkQ4cyjACc055t0/dQV9q++8x6bopus/bZkalthr08SJt/t+neue5tiYLS7Gf9tSEBZm9sVBcJUuYfwf/1Jk0ubTHrfboCrcaJAAAAAAAUHBVCa3s/N+y7Xfnvz+2botz/le5yjNtoRdcW7Uuu1A6tF/7nbcUrlFFd1CqkwlaE/mdZi+21Qgt0zc/75JPbTH+ORKrSFs10o+eeXy9OcOWG6QLMnv02g1OnEjUVlttkem2Om02XKhiOak54kyXo3hNhdWroDIBx3U4YZuWL/tOc1bFZlAFU1FQT73+PUrj3K7PTe6bBSdT5BSNlws+1V5CHjnmFrpXvPzUmw8hV1Tw9LjD8lRQsKew/IT5bvPvbH1/Rt9zNnm/P+qrDzTMVnH05iJPTTClStr3fNSh32PqUFvavmi2hjzXQz3HLlL82SqfzoV8CCrYNg8e1BOexgv0fu8BmrHBp2D5j181Y+Bzet8pCy6nJ+5rm1qofspB7U9t1yJZTpsz6ZW6JLW9hsTEzKva8Q0OxC6b52kfQNeqcU37reVU58ZWTop+nK+Fmz299mn7JV+6b1K0aKWG7n6cKvHAqQZ0TuT4kJ5W7Qbq5PbOmuXzZP/xozk/WWRl3wGzJV1Hsw5enApunNo+UV98oyWZbWaf3yewQgN1fHaA+v3d83mP20DP6UJUyf6ASYe0L9tWUTK3zwkqXKryfkYWAQAAAADAuXNVqOchz28XuhWw+2GBO26Vq+wjjEXBhapRu7oqXnaZQspV0/W1vE+8nnI0ZoM2HTqugHJ11LHd33VPkwo5fjI/dkOMdiVLQVc1Vyc7j1ppn3u+OMBTLHj00L5MyqDcYsMLL1ODtmZ6Ow+nu0Utc/BTnPlySKUqXqdbbr5FHRpV0+UXm3ETtmi9b539Rd2FAZ4a1p2n2vNWqZKetxm27jxV/3u821/aHZaXUuL3espVywU71Vydre+/2GxDy/d7zibv99ftPiptWzF9W3sCRZc1VddB4zV93HPqen1JxS+frjkbnEkKpHwJKqjUjeo3sbca2f6EOerbtpEqNW6nO9qGqVKDO9R3lufp8kbPjVO/FqcOnOVC67gBhmUa+EhndXmwq+5o2Vp9v3ES0woKUWW3CYIlA9uZg1tntW48Xqs8Sa756tuste4w8+nSsbXCensCBeX+r7fuc6cNbd9D/Zy2gb7XwC7tnO/sYubV93ubVk5PPHG789S97a98tRv++HGIHupoxnuws8KaveAGKnIp8EbdOcjTOFHCrH+ZbWTn21Wt/9ZVbzupZ6KSWT+3d/ILanevmfe9ZlvdO95N9OETpHn/wXYK6ztH9lcKDX/A017Cr+PVpY27fZzOrPtVPTXb5sN141Wppfm9egzRiPcnaUT/FzTE+c28wZuMlFatWnZYrHLwcEI6Cdpipy1RVbUIKgAAAAAAUOCFt75JF110kf730ypF/erWdZ6Ftb9E66dVa5xpbmlzk5taBARXU9gNTdSyUU2FuEm+jp70vCVw8liS/kz8Q5u27/c8qZ4Dx4575nEsOVEHE/coKv6Q89mrTNVKss07KHGLvv5+mb79fpVi0zwbGqpQO8LJPxS1dK1+jolRlOl+Nr/JxgwfPC2l4m7tOvt3mPF/26BNZrwzXo4/YrT0lw2K2rpHiScDVOwCN71IitWcKR9okk8Xud0k126qdrZ6oU2zNWrKfK1ePV9zFmdfOH5psPumw+pFmrMsUss3nV5fSKl6TdXQ/G4piz/TpB+Wa/UPH2iKbcA4oLpa1Ev7VP/W5YsUuTpS8/4Tqa1umkdZXeoWAf5vwWeKNN+18aDns+P3SH0xP1Krl32mMdM89cg0b9rUCZTk5Pv/FxnhrPuMr7I/dqRXpklT1TX/UxZ8rFERnmWZ57ZjnVuZbw+zQk5e+E3fzV+t7WZblGnS3FnPqCn/1hS7nqttN1+zIu0j5pu18HP7u/6m7ccC7MsLBV7+BBWMwAY99OnCcerX3m1SImGzVm3wBBNUpa36TZinT59toDSx2Aa3a2hnd/xta7TkxziF3DVOX45+0JOWxrXq9u+Xdatb/U7ChjWKKRWYdn4t+mvi239X8d+WackamwPLqeZ9Q/XpgFanGnMp1UDPfjhF/Wx7AGYZl/xoxrXLWaWVnpj0qQb5BD0adRqcWt1P7BozXlw53TvhU73zf5603Kr72Aea+VwrJ3iRsMHM16x3jcff1CBvQCDXyunWx3urmZOpExSzbJk2qqF6fT5Rg9K3CR3USt3H3+MGULYrybslL/NpL8G7fZxujdSqjsrZUNqlldUxcLuWREzV20OH6+0Zy5RQ7kY98fab6pZF29Plr62ly3XUXCBscVNyKP5X/bxPKlHn2tS2MgAAAAAAQMFV4YoQ3d3xNqf/7XcnZRlYWBe9XuMnfOT0d7nrDpUre7nTfz4oU9XTnsKJA1u0eOkKRR280FNGmQM1ql2pUhdIR3f/om+XrtXW4+7T7l7Fq6nlDTUVUuIiXXgiWScvKa+QNAVrF6pGI9sA9EVKObRHG90qkDbu2qfDGbZxGai61curuPnOE4fN+Nt2ab8Z78yX47j279qm9Rt+0eI1GxSfLJWqWEcNclm3fcG2V6vnL9c8n26Dfay/WD3d1a+t6haXts7/TMPGztefV4Rmu08ENG6vrlXNWH/8pinjPtZX2zIITQW31rP9W6tqsb2aN+EDDZuwXFuLVVCn/s/K2xZ0SIPmznenbFikMW9O18JSDdXC+3SyI0BNb2uvqmac/Svna8y4Rdri81UB1crq8NyPNWzcfC3/I0BVOz6rxxq7S+/H99e+obmTH/ZHznbWfcf1DZ0AQY4Et1WvZxqa+RzR8hlmWSatc5YrN7LfHvXU5s6yZqscUeSUCEXZbeFdT+3SHLueThVIn+mrOBvoOaLt35nf9c1/q3fv4Xp32RGFtH1K92ZRrnquXXDs2DH/W8bJrcOJSvxzu9YlBqlepXIKCkpzZDhNcmKiU1VPYMkgBfpRR5szfrGgLBp8TlZiopljluOc+l4rMMh8t9ufxnEzryPO0mW7HjmWbLaTmbW/6+03d75+LbNdv2QzXkbbyf6O3uqkAs22TDerNNvPr3U4pIVvj9DsfQ315MsddW0OQ1zbI0ZrxGKpzT97q+OVbiIAAAAAAMgX9z/cw6mu40ydOHFSL7z8urZs81QC3apFmJo2aahaNarp5F8ntWHjZq1c/bO+/3GpM7xG9ap6/eX+uvDCM3821jb4PP2jDGpw8BHz+++6tkYN99O5dFyHE48oJaCkypTIZUHRyWQl2mquA0srKDCb7XcyVosXrFf8yRKqEXaTGvi0gXoi+bAOJp+QigXqklKBtonQLKUkJ+vCQJ/xzng5Turo4UM6ahYhoESQSmVXmp5Lv27apJpXXeV+ylhe5YPcSVHKwRSpZEkFZPcj+Dph22QIyGYaO+8jOmbGK3VJBo/Knziiw0dSdHHJ4Kznk2KWLyDjHyjlyAGzD2Q2fTbfn2K+/6jM9+dw3dMz28KuR4bfkRP+bo/TeNfTrku6aY8e0GEbgCgenG/7uD/HQH+cnaACkJmY2Xp+4mpd3qGf+rVwW//3x7FfNen1T/TzVR31xiMNZdt8BgAAAAAA+ScvC1OPHz+uGZ/N1pyv5+uvvzIumrrgggvU4R9tdd89HZ3qj/JC4Qoq5LdtWrxwu46VLq2yQRcqcc8exSedVLEyNfWPv1XLcRsOuVdQlqMwBBWAM5NXQYV8q/4I8EvNdnqo7XW64o+N2p6DBpv3/RangGuaquttBBQAAAAAAChsbJDg/+67W68M7Kfw1i10da0aKlmyhNNo69W1ayi8zU169aXnnXHyKqCA9IJ0ecmTOvjnHm2yDQAnScUvq6mWN5zdgvyCsxwA/MWbCgAAAAAAAMhWUXhCmzcVkBXeVEBRx5sKAAAAAAAAAADgrCKoAAAAAAAAAAAA/EJQAQAAAAAAAAAA+IWgAgAAAAAAAAAA8AtBBQAAAAAAAAAA4BeCCgAAAAAAAMhW0CWltXnLNvdT4WOX3a5DdooVK6ak5GT3E84X9je3v312Cns+wPnL32OgPy44duzYX24/AAAAAAAAkKHFkcs049P/KPHgITelcLGFafd1vlMtm9/opmQs8dAh7d2/XydOnHBTcD6wAYWyZcooqHTWha6FPR/g/OXvMdAfBBUAAAAAAAAAAIBfqP4IAAAAAAAAAAD4haACAAAAAAAAAADwC0EFAAAAAAAAAADgF4IKAAAAAAAAAADALwQVAAAAAAAAAACAXwgqAAAAAAAAAAAAvxBUAAAAAAAAAAAAfiGoAAAAAAAAAAAA/EJQAQAAAAAAAAAA+IWgAgAAAAAAAAAA8AtBBQAAAAAAAAAA4JcLjh079pfbnyeWr1yjLyPm69Dhw24KAAAAzkelS5XSHe3bqmnjBm4KAAAAAJx/9h88qDKXXOJ+KvzyPKjwwpA39HT3broqtJKbAgAAgPPR77Hb9c6EyRr68vNuCgAAAACcf4paUCHPqz+ybygQUAAAAIC9JuTtVQAAAAAoWmhTAQAAAAAAAAAA+IWgAgAAAAAAAAAA8AtBBQAAAAAAAAAA4BeCCgAAAAAAAAAAwC8EFQAAAAAAAAAAgF8IKgAAAAAAAAAAcu3osWPaHBfnfiq8NsXGOutS0P2z30u6/+EeTmf7z7ZzHlT4duEPGvbmO3q6z0Cns/02DQAAAAAAAABQsB1NPqYfV67Suo0x2rZjp5ta+GzdvkNRMZsUuWp1gQssJCUd1YjR4zTn6/n67vsfFZ+w1x0ip3/RD0v0VcQ3GvnWuzp69Kg7JP+cs6DC3n1/OAGEWXPmKjZuh06cOOF0tt+m2WF2nEIvOV5Rqzdod7L7GQAAAAAAAACKAFv4/uOqVTqclKRSJUqoQrmy7pDC58qQcs46HDpyxAmSFJTAwrFjKXpl2Jta+0u0Znw2W5M+nuGk33dPR93TqYPTP/Gjafrk8y+15ud1eu2NMUo5ftxJzy/FBg0aNNjtzxNzv12k29qFu58yN+a9SU4AIbRyRd1/z53qet9duvWW1qoSWlnxe/c6wzZv/V0tbrzBnSLnUvau1Yz3PtTkWV9r9sKftGr9nwquXVsVirsjnA2b52n4h5t1RXh9hV7kpgEAAJwnIr75zrnGAwAAAFC0OAGFlacCCjc1bqTAiy92h+ax44mK+naSRg4eq0nRl6pVyyoq5Q7KKxcVK6ZK5ctrV0KCs072f6XyVzjpZ8puq+KBge6nnPno/33iBBSCg4JUvepVqnjlFXrw3rvVqkWYrqldU1eFVtIRs7yXX3apks337N4Tr4MHD6lh/XruHPLeOXlTwVZv5A0o9HnmCV1X9xoFBAQ4ne23aXaYHSfXVSHtWqSRw77U3pp3qPdLL+iNPg/qH7WLK5+DNKfZG7dTSWWvVPXc7TMAAAAAAAAAUKCczYBCbMQQdb25kdp1H60ZPy7Tkl0H3SF5z66DXRe7TnbdIlevUvKxFHfouWHLya0bmzbSwOf/qX69e6YJGDRueL2e/9fTev65p1W/Xh0n7apQzzT55ZwEFVau/cX5377tzU4gIT2bZodZ3nFzasOPPyiudnv17FBHlS+5REFlQ9WkbVs18X0D5+RxJe3YrBUbdiopfbDBDtsbqw2//6mkzKouSj6qRN8J3flt2HEwdX5xth6xCiG6Qp75bdlxVOd2NwQAAAAAAACA3DmrbygYCZu/14EbHtXI4T3UzE3LT76BhYOHj5zzwMJll17q/PdtR8G+vfDIU72dzvZb9o2K6PUbnH7vNPnlnAQVduzc7fy/pnYN539GvMO84+ZUSspRaU+84k66Cemk7PhRbw0eohc/mKnPPxqrf721SN5v8gwbpOffmqoPJ7+t5/sP0JD58Z6Bq6fqqWHztWL+WD3bf4hGfu9p9yFp/Vca8vwg/WvsTH34/ggN/W+sSTXfv12qfFmSPhn2ul4cN1VvvTlEz0/bQGABAAAAAAAAQKFiC9fPZkDBavTsIn05sr/ua1VDQW5afisogYVefQfpzbHvO/1NGtV3/tsggq3d5+jRZKez/Tbtggsu0J23/8MZZ9SYd9X7+Zed/vxwzhpqzm9127RV5cQfNfKF0Zq6bKcSfYMLSSs14c2FKnnPi3rz5Rf0RvcbVWLHDu2yw+IXaeSbX+vIjc/o36+ZYS/fq/pmK1UoG+JMuiU21oyzTEv0D7009GW9dItJ37VIoz9Yo7L39NO7w800r7yqVzuGmlwWq7i90u6fN6vyEy873/VC+KVKit2pfc7cAAAAAAAAAKDgs/X1R65e7QQUSpcsqRaN8j+gcC7ZdbPraNfVE1hYfdYDC3/uP6BLywQ7DTK3bH6jk/bj0uXO/9deet7pLG9am5bN1OmOf6hMcJAOHEh00vLDOQkq2MYkrPUbNjn/M+Id5h03xyq01gvD+umRxsW17vOxev6lD7TYiRpIUbMjtLnxveper7jJDTv11axlUuMmqqvjWvHVfMXVvku9b71STsVMu37X1pNXqnKo/XBcu+IPqsQN9+qfbaurbIniCrjooBbMmK+9Zn49b0j3WsnueMXqSt3e60E1u8xNs8yMabMZAAAAAAAAQOFxgftfCrjo/CndPNfragMLpUqWcD9lr2SJEtqfjwEF65wEFRrXv875HzH/O6WknB7dsWl2mOUdN1cuulRN7n5Kb7z2mJoFbtYn86NN4matXXdUZZM2a8LYEXr25cmKu+4xDb6vtgKS1+onM0qDGxvL+zOlxO3U3hJXqprTFsPv2rpNql69ujPMcTBKa+KKq2HD2m7CKYmxvyuxTHVVK+Mm6Lg2x/2pEqGh8m3aAQAAAAAAAAAKssCLA9S8YUNdUqqk/kxM1I+rbJVAx9yhRY9dN7uOdl3tOtt1t9vgbLr00mDn/+Spn+qHJf9z+luENXX+D3zlDaezvGnf/7BUUz/5wukPDs6/yqLOSVDhljY3Oa1Wx8bt0Kix7+uXqPVOIMF2tt+m2WEXX3yx/nZDQ3eqM1CiuurYNw2Sk5SiozqSJAWUqa7w+57Vv4e/oJ5tqyvIbokDB7VXIapc3pnKsWHz71KFK1XBftgbq9ikS1W5sk90KsnMT0G6PIO2L2JtVUmVr1Q197M3KFGhgqcqJQAAAAAAAAAoLDyBhUZOIbutBumHlUUzsGDXya6bXUdPQMFW9XR2AwrWmBGv6pGu9zr9K1atdf4//H/3OuXrxYsHOp3tt2nWT+44jz50n0a/McTpzw/nJKhgPf7Q/amBhXcnTdGz/V5yOtvvDSgcMz/euIkf6+ChQ+5U/tm9JVZ7k90PRuKmrzX3F6lu/boKUHHZt0VSLrdvHxQ3n48rccNm7bZtLpitEaBE7XMaPDiuuPljNeGnowoyy+nEdXbtUJyuVAWfoINKmPkpXlu2HfV8Pn5QGzbZRp3jFRcrla1wpSfdOhivXUmXqFroJW4CAAAAAAAAABQe3sCCbcS4KAYWCkpAwevkyb+c/8WKFXP+WzaI8OG7o53OG1CwihXzFPf/5Zkk35yzoELZyy/TgH89rU4dbnWCC3aj2M7227TXBvXVVaGV9Hvs9hwHFuJ+nKpB/Qfoqd6e7vl316rk35/SIzcUN0OrKzz8Su2ePUL/GjJU/+o7SAO/XKu9h82gso3VrMZxLZkwSM/2H6EvSrRQeIiZItRpUEG7t++UKlZUVd+tdsmN+r/2V2rDjCGe73t+hD5Z/acST+5UXLxUNdTnrYTYWG1RqFlH9zMAAAAAAAAAFDK2kL1F46IXWChoAQXLlo9bmzZv1fuT/p/GTZis3zaeaqvY9tu0CR9O1Zatvztp3mnyywXHjh3L07iF87bB6GHupzNjAwk2oGA3gg0w9Hz8IV1SurQ7NBvHjyoxybbXEKASpYorIF34JCXpoJKOm6EXX6ISgW6i47iSDiZJJUx6TtrgSDbfdyxFATmdDgAAoAizD128PeIV9xMAAACAouTosWP60S2EtwGGmxrbQviL3aGFi29AwbMujfMsoLD/4EGVuSR3tdfYJgNeem1kmkDBhRdeqF49HtPx48edgMLJk7YaHo9qVa7Syy8+l68NTJ+zNxX8YQMINpDgfWNhcaSnMQq/XFRcQeaHCrrk9ICCZQv/7fC0AQXrIpWw6Tnd5oGe7yOgAAAAAAAAAOB8UPzii9WiUSOVLulpY2FXQoI7pPDZGZ/grINdF/sWxrl+Q8ErICBAL/X/l66re63uuK2d016CDSKMfmeCxr73odPf/eEH1bFDO9W/ro4GPt8rXwMKVoF+U8HLvrFgAwq3tQt3UwAAAFAY8KYCAAAAUPQdTT6mHfF7VL1y4a73fVNsrCpdcYUTLMlLZ/KmQkae7TNQe/f94fSHlCurt87yPVehCCoAAACgcCKoAAAAAOB8l9dBhXOtQFd/BAAAAAAAAAAACg6CCgAAAAAAAAAAwC8EFQAAAAAAAAAAgF8IKgAAAAAAAAAAAL8QVAAAAAAAAAAAAH7J86BC6VKl9HvsdvcTAAAAzlf2mtBeGwIAAAAAio4Ljh079pfbnyeWr1yjLyPm69Dhw24KAAAAzkc2oHBH+7Zq2riBmwIAAAAA55/9Bw+qzCWXuJ8KvzwPKgAAAAAAAAAAgKKJNhUAAAAAAAAAAIBfCCoAAAAAAAAAAAC/EFQAAAAAAAAAAAB+IagAAAAAAAAAAAD8QlABAAAAAAAAAAD4haACAAAAAAAAAADwC0EFAAAAAAAAAADgF4IKAAAAAAAAAADALwQVAAAAAAAAAACAXwgqAAAAAAAAAAAAvxBUAAAAAAAAAAAAfiGoAAAAAAAAAAAA/EJQAQAAAAAAAAAA+IWgAgAAAAAAAAAA8AtBBQAAAAAAAAAA4JcL4vft+8vtBwAAAAAAAAAAyNQFx44dI6gAAAAAAAAAAACyRfVHAAAAAAAAAADALwQVAAAAAAAAAACAXwgqAAAAAAAAAAAAvxBUAAAAAAAAAAAAfiGoAAAAAAAAAAAA/EJQAQAAAAAAAAAA+IWgAgAAAAAAAAAA8AtBBQAAAAAAAAAA4JciGVTYf/Cg2wcUfs/2e8ntA5Ae+QPIHPkDyBz5A8gc+QPIHPkDyBz54/zCmwoAAAAAAAAAAMAvBBUAAAAAAAAAAIBf8jyosHzlGr0w5A3nlRd/OjuunQYAAAAAAAAAABRseR5U+DJivp7u3k3vjh7mV2fHtdMAOM+d3KeYtVHaccj9DP8k71b02hVau363UtwknGfIOwCAfLA/1lxfmGuMbQfcBABA0XIoztxLblDCSfdzPjmyI0prN+9zPwGFX57t02cpD+aXYoMGDRrs9ueJL7+erwe6dHI/Za9McJD+M2eubr2ltZty5o4eO6bigYHup7yyT9+Pf0WjP1+gdRfXVbMqpd10Kebz/nrl42iVaPw3VSnhJgJ5ZO63i/I0f6Q6tEHfT5+o0ZNm6P99Nl/fLVuh6L0lVateRZVyRzmbYj4bpJenLtO3RyvqruuvcFORrf2RGvfqTM3ZHazWN9U4J7/duZQ/+ePU8f5glXDVudwkxcxUrxFTNW/BAqf78dctituXrHJXVlbQxZ6pzhXyDjKTH/nj+/H9nbzhzQtpO66FUHjk9/nDkydWaEv8Tu0vVkHVQ0q64xQem798XcM/WatiddurfoibiPMC+QPI3FnJH0vXKm5HnPadDFaFkGAFXOCOlqcStWTcYP37q+XafEkjta52qowrTx1arNF9J+uLH9brkuYtVZ3sXqQVnfyRhTzbp89SHsxHFxw7duwvtz9P2CqN7BsIOfFU7wF6e8Qr7qczt//gQZW55BL3U17ZrfmvvaLJm01vQF31fquHmrg7TvSUHnp90RXqNvIltS3rScP5Y+LH07Uu+jf3U8ZqVq+qZ5542P2UMzZP5WX+cJzcoGl9xijiT7M7BwepjBODS9H++Nrq91F31XFGOrtSdszThGlRqnhnT3WsaUuk1mrywxM0v/rtGjOwncp5RkN6e+fp5b5fKaaAbqdCmT98jvdt+4xXN5shoifo/lFrpcASKhccIB1JVIJ9M+DS+nrxNZNnzuHF8el5B4VFYcwf81/r4bkWyhDXQsg7hf38UbJskEpdaK+tkpw3CWs+8JKGhJ9Z4Pds33N4vs/nXIgCg/xxuoQFr6jXtN3sryj0+SO9gJq3a1R/c593hvWMZHQO2R89VeMijqhtt+5qkifB44zu4RMVPWOcZie3VPeuYWe8Hjgz5I+8kLt9+uzkwbOL7JwbKVH66D9RWVY1knIkUTs221eGo7TtgO+YKUo5lKgjyTbN9O/aYMbZoATvKMn7tG39CkXHJroJPlI8w9ZujlNKIX01pij6c3/274QfTU52+wqIDUs1/0/zP7SdRr01XGPesN2/9fGk9AEF7z6afj92nUzSETM8ZlfiqX0yxaTZfdw7+skUz+dDSWk/u8NtXrH9ASEt9XCP7mrrfcQ1PlYb7f+UIzrszTPeeTv5x5V+/hlIiffJZ848zA2Ms7y++dFITjdvb55bv0X7fZJTp/P9TjutTfOO5/s9yXFO9TQZbkOvTLaLd76p29duczte6hdlJpvf7iwplPkjK2H/58kvY/+tfs3NvvrnWn26PN1rj5nsk85vmu63dM4T6fevzPYF239gi1PdVXTsvtT5nJZ3vLLbf9193TPPc7ufnK8KY/5oO3C8pn9ku5fUrbpNsRfG3rQBal3cs++n7ueW7/HR32NjZvkD543Cff64Qp2fd6+t3minmiYl5tO5iraDsjjGO8dn59y9wlxbpb+u2a1tzs10RueYrKZzmXy4Y/MG7Uh3bkrNa+Y6aYfvNRAKtCKbP1wZXe84ssg/O37f7fx37hvSn4e8nPORmweca2pvv52vPSdlcN7xPW9588vm3afP/2Siz3182mstL+96ZZpPkScKe/5Iva4a20udTQZJiflKL3++wR3uyuo6ybm+svtpnM/5JeNzSJkat6t3j3tV3xuo9md/zyq/ZHQPrxKq1aGnet/dIF3haxbnLn/zHXKM/JFR/nCZ6TIu3/Lui3bft/0Z7NM+5xfPsT79dZWfedDl33nQm4d8ypTPMt5U8Js3Mna5Klbcpx07Llfn115Vx4qnR5tiZvTSy/PT/qLlbu+lMXfWNn1u5PbSK1Sz2G7F7PUMV8Dlql8nxew0Zud1k8rc2kvjO9tppIRFw9RnSlzqMAVWVrdXBqgtryKfczt27tbIt99z+vv37qkrynvi8Zml51S+RHo3T9Vjry3VkdLV9MBz3dW+SpA7wMcRs6++bPZV7z5qlAvvrmEP1Jd9KHv/igl6eeLaUwevgCZ6ccLDCnGfEkp94sj7JL3q60X7FoT7eVvzdnrgz+80OTrFGfdpTTg1XYWvPE+F+2rdXdNv2aK+LyzQjpBwjXyjk0z2Mxlwgh6y44Y9rA8eb6IAZ2SvJEVPG6IRC9x8FRCkisHmpnqvN796n6RoqW5V12iaHc9+T9f6Slg6xqzfBu135mOVUJPH+6p3mH2Kyp3Ou04mxfs0n3e9vU9LlasQpP32pOTMQ6pijgVDzLEg7XIamWyXzjtfSfuUoPeJee/THxm9qZDNb3c2Fcr84fMkxGnb3d0/LO9vHBDeQx8/UNdJ84hTxMBhmrYjyJwnhjvnCSUv1bgnp2pJgNln3uuuqus/0oAxK3zyT5Da9nrZfFeJTPaFfuq8571T+7Ll/uZKn+cMv/bfirXVLGCLlmzzzrGE2vYbrm7XnLZ3Ip8Uzvzh5c0np65/7IXtiom9NHqp1KzHGPVsYvelU9dPDwx9VTdEZ39sPBKdRf7AeaNwnz9884X3msFcu79prt1PZHy+HxK2V9PeGK+IWGdGjoDQMA18/kHVLOmdhy/3GuRIVBbTmQ8n92nFRyP1TuSp/OY9bx2JmarXRi5V6mnAqHJrDw3sXNe5XuBNhYKryOaP4N1aMn6kxq3yKWC8tLZ69u+lZva+N8NrpB5q9r/xznXbKb7fcYr3vr3jA5W15FN7nrH5KExrnzR5yLcMzZx3Oj4/XJ2rn7req9mktvb7FNw4T8e+4F57x8/T6y99pWh3HgHmHFfKnOP2e68bT5p1f3OYs7xeAXXM9P8620/Xnh+KTv4wUu/bwzRkrDmum6SsrpNOKzdyzhU3aEUm5xClO85nv7+bc05m+eWoe7/ky8kDOu3eWdmcu/zKd8gV8kf6/OHZJ7Mr32p13+1KmGWP83YZbtfOvmn3ac/5pYQqVjiuHbu8MzH34E+ae/CmuzO9jkufB+35wq/zYM3aqv/nBq1ILVM259Gh5jya7ryX3ziF5VhldX6gicpon/7z8TwluKm+Sl7XQUOGDtcHY003souamTvkhLlL0zx9oT+lWg/00ZixAzw7Tso+bQwM15CRwzXmabfQduNWz/x3zdIIs+OrfieNmTRe04e2U83kOE2bl+6AjXOi4pVX6O83t9TJkyf18YzPnP++/XZYbg/I+aZquBPV1aEtmjakvx565hVNWGAOoKkR0BStmGYOensvV/t+wzV90nDnqeyEBV8p0h60zIFs9Hgzvi5X20d7aaTZj4c8GqacxLhSIr/T7JO11Ta8iRqUTVeIWSlc/e6s5ukPqa/uvR5Wv1bmc4Vwtbf5Jf4nrdjhGRwTvcE5KbQOSx9QMLZ9pXG2EPbS+upn8tYHQ+9VnYyOepsX69P1ZdXMLEurq4I8ec4WyJoDc+eBr2rMwHDVDEjSiol2m7jT+Olw6K0aao4FnnnYRZqq+bvcgRnIcrv4JZvf7iwrlPkjK8lH3CcLtuin/3meiKtTNdT5f0plNWtX2fxP1JJfzLHb2hSln8y/kq3DVCdlhT6yFzohYXpxrH3K4mG1CkzU/P8sTnNOSbMvFF+tT+2+bG5AR9pzy9hXNfTB+uZclAF/998de1WqXS/nPNSzqS2sTdKi1eme8kC+KnL5wxyFm7QKc65hlqxa4blgP7RBa21BT/VmuqGCTfDI9NiY7F/+QNFXuPOH9ym0RCWs+kmRNql0ZVW91BnoSHu+v8Ccuz2FK2XCHnSuq3qGlVBK7FK98flaM7dqatWrpfs2aZBadTPXRb3CVdE552c1nbkHWThOoyMTpdAm6j5wgLkW6qXuN5g7TpvXnIBCCTV70qY/qGZm+bbN/Uif+hR8omAqqvljxzfjnIKUgJr2vvhVDbmzsgL+3KBxE9Led6fNP+XU4K5OauXeiNS50+aPTmqQ6TOGuxXx5RZVNPcObVtWUykFq/6D9n7Gc/8+5vG6CkhJVMT/otzxPXYkV1b3Ifa81dIpuEqJWaM19s1ve733qSegUPO+Ps48ht5S1ufBDs962YBC/W6vavpHYzSy8xVKif5KEevdEZCnitT1VaVqamD/H9qteFv1apbXSVGKmBGnlJAmnntfsy+ONNdZFTM9h2Qu8/09i/yS2T38abI/d3llvhzILfJH+vxh+FG+9f2sb6X65rwRXlshxdzE0ySpZJMe5v7azPvJuuZe3dyDT5qlFcn+50G/z4O7UlS1m7l+G9lLHe3b4ylxWrLu7DeGTlAhF0pec68ebmoPaF/p0xXpXtMyKtYxN8jl3cLAktVUxZY3paS/OL9C9etXUzlzAdWgvufJ0oo16qpK2SCVuyo0zc61/7cNsuWntSoGa8cvK7R2T5Jsu6ApsbvT7FQ4d7wHXhvdnb/wB33z3WLt3pOQesAucC68Qm37v6p+t1dTxUCzL5mD8PfTJqhXnwmKPmJH2KDoFebfpRVULnmD1v6yQfuL2X16t3buMfvkujWKMZ9Khj+obs1rq6LZj2s2rZ2zJwaq36oh/Xqo2wMPq2N92xKuj+Bqql/dfXviklDVMQfv+qH2c5CatTYXLubifc16W6C7QT/9aPJg6TA1u8YZO42ETZ4ntau0u131Td4qWfYKXZnhDUZ99X6tj7qbZelubi68ea5keCdzgL5c5ap3UmfnZ9yd4wN1xRp2+5h8beZxpzlu2EaGfvoti3lktV38kvVvdy4UuvyRlaVT9dgz/U03StM2y3nK7OG/nf6mT5l6TZyLhh2rop3jdIz5HVJUQq1vqCttidJP5pRQpmpZpWwyx/RNB8zOZkbaHKt4O7GX777QpLJC7M+48XtN+zZK8SeCVKXKFacH0gz/99/KatLUcx6qVSPYSUk5cdz5j7OnSOUPq2ZL3WkvYlZHaeNJ6Yi9bjEf67QKS3OOyPTY6G/+wHmh8OaPffp0iD1X9Fevd9bqiH1K7sm7nAKRVGnO9wmec7eq6YH7wpzrqmZ33+J54i5yjTaa658q9U2esaOYDFGljrkuMvcRZbzn/Eyn26c1P9nrpRJq29XcWFevrJIVaqtZTXPv4eY1XWfOY01tepge6GAD4klatJYAc2FQ9PLHPkWvsdcpZn/t0kk1y16umrd3UGt7sbM5XUFimvxTXuWuMffR7jV+xeo2f9RVOafNuIy1ftLcB3V7WN26hauKuR6qY+9n3IuqUldVMmmnXxNVrBemOhXseau2qjopJgOdsP+3KGaV/V9fd4ZXU0lzbqsY4ntt6F2vyqpSeovWrrVPwtoTm7R1l+cBFeS9wps/0gksqVJOT4oO22N2ltdJwSpnS0Hj1+rT/y7V1iMlTH6w54rMziGZy3x/zyK/ZHoPn152565TMl8OnAnyh2/+8K98q+bdffXik+a88UAX1fd5SCS9qrXMdPY80LST2jtlwVGK3uJvHszBebB8XTWrY67fytZWHe8zjifsRji7CCrkSgk1uft258m6JTM+0QqnEPYUW+1Eryef8xQ89RzmFDydiRR3x4iO+Egjxthuseeth1Il3AyEc+3CCy/UQ/fd4/z/ev5Cp8V737QC6cLLVf/OPhr53hiNH3i7mtgDY2r98OaiwO52f0ZpsrPPfaQJi239oCUUUPzUPlnxMk9B5NkUULeJbjB5L+Z/5oJ8R7R+OmQOyy2aqGYWmzkghz9BRusXUt4T/DuTA3WZy9yqO/L1YJ/1b3cuFMr8kZk6LdXPPnVjuheHDNfHfTJ5bT24pdqGmf+bo7Tx0Ab9tDTJ7FDN1Mo+RXAyxfmJ9kd+5R7TZ+l7W1pauqQTMM5QYBM9/MLtalY2SWu/mqoX/tlHL/wnSulOP4782n+RP4pU/nBUVv1ml5sdca1WrE9S9C9bTFo1taqf0U2lR5pjY27yB4qswps/vE+h2a6Xxowb7rx2nzn33G2mK1PaSZAuvcJTgHLag0m+spvOdM5bqOZGOv0lm5vXdHmwc79tlQnxPMxAgLlwKHr5I6P9tayudApLzLD8Kkh0qpror4ee9AQ6Hhs4zylcyo2M7zm86xWn2e94rs1H/MeeG83tfElv7kNeK7z5Ix1vGwUBV6iivV/P8jqpsto/97Da15R2LP5Krz/fS73GL/apjSAP5El+ye05D3mF/JE2f+RP+VawynijEn7nQbMc5+I8eAYK0d5SwJRtp+63mQvvP1do/nI3zUpeqk8nblDCpS011FZVlNqQYe4FOE8ZS3UeHe5pkMTb9W6ZehOAcy99VLddeCsn+lvwBahM9Xa6s4VvgfdFNtl5A2CIsx97u3/rAbM/e/fJbTvPwdM1gU3UtrVZ1s1Rmr8kynlF7c4WnrZH0vNeqG/b6ltvXvZSp/NZv3i3P/cX/ylK2ON5sykkODdvIPgr69/OcWCLYtI0Bp+i/bEb0jaWahub27xF+/PoIrTw5o90Qmqrvn3qxnR1MnzyxitA9Rvat2q2aO3XK2SDXzVbhXmeTrgwwPmJSrbt4fP7mM6tBzIzJau0U8+hY/TxGw+rbYUUbftqjiIzeP03f/Zf5Kcikz9cFcM8r/dG/vKFoleb3GA+3+C9aTxNumNjLvMHiq7CmT+8T6HZrrbKeS6bslBCAU4e2W1rpvPYu1tb7f8sA2rZTWe+2Lnby+BtxeIlPfcRPm8+J7hPTZcsnlUABAVJ0cofJVXKeWLOZ389afqdOtfNsHx6OCZl1SyNW5GoMu17ec43I2/P4fnGmw/jtC3DKk69+bCyur/lc14zXb+wrK4lcaYK//VVkqLnLdY20xfQpK5q2aTsrpMubaIHXjD3C2/10gPXlVDCipmKyMOXz848v1i5PechL5E/TuWP/Cnf2qUEpybkIJXJ6rWgNM7NefBMEFQ4AxVve1Dt07/2kpKiw/b/kQNK+CNRCZt/0tozrHKkTMMw1Tf7ePTUtzQtcoXTOv7atQs0e6lbVzcKDHtQrnpVZV17dU21bXOTm1oA7V2gcWMmaHLEAmd/+j5ijCbMtYU6JVSrqn2iua6ahZsbykNL9c57s7TE2edWaMmCeYo+dGqfTFn0//T6f7zzWOxUueK17afFZrqlmv/lEudAn2NlynpeN4tdogiz338ffWp/r9mqmSpqiyLmmoN+xQaq71NPt6+SjcLV1lywpCz9SE8NHa9xQ/17c6ikvdGx6xf5hSbbPBf5kcl7ZkBANTWr43vxv0HfL7DDZ2p2Jk2cbPvxK81fbrbd3PH6yAYgA+rqhus8J62c+GnpPCfff5r+qtBbn1/sGi2K3KCEbH47KUqT+47Syy/317hVniBCyqqJ6vXyGL3Qd2pq2y/RM/rrhddGqdckt170PFBo8kceCWhwk7P//bRgqfldKqt1E/dtgdphamvOHUcWTdXouUud32etzSuLMn7zwPHnCkWY+axdv0X7T5iLpSxiA/7vvyhIilT+cN/UOTLf7NfmAHJDw/rOBb6vTI+NuckfKPKK/vmjtm5wHu7Yrdmf2HP3UkV88q3z9GcZ+zamM465KXUq992t778x116Ra811V3bTXa4bWlVz8t/8ScP0qXMf4d5DVG2i1vY+ZvO3mmrz2vJZmvq1vZkuodaN3Ic13GsM5xpkh+/DCChIik7+CFKdpp79ddGnH+l7e38x4wstMueRgOuaqI5TCJmZy3Wp2zjlT4tMXli+VDHOdW/2UlI8Z5fDB/Yp4dA+xayOSnNPk73aanuHvcbb57RVN+K9Ueo71vfGwJsP4/TRW1Od9XLObZFmOXP2RciFwpc/DmjJlx9p8rQJGvFCf72+yNyjB1TWA3e67QdmeZ20Rd879+YbtCMlwFZs4SOjc0jOZZtfsriHP8Wfcx7OBvKHhz/lW/76KWKm5/w17SP9x74lUfEGNXGeLPQnD57JefDcIKhwJi6srTvvs0+i+igdpvZtgxRwaK1G9+2vPu9tVUB5d1humZvzp/u2VBWz80VMcl+ZHDNL/91+wB0BBYV9Vax3z8f15CP/V7BfGysWoMPr12r+57Oc/WnC5xu07cIgNXu8b+rT7LbOuJ5NgrR/hQ1AePa7cZ9HeVrD9+6TgUmK/sozj4/mxTkFPuXqh6mObachZrGZzhxQSzbwtFKfUxXD9WBzk5dS9pkbYTP/tT77e4UmauWpkE512mXRyFRgfXV75WG1vyZIpQ7s1eFrblZrb31zWfGu34We7x4xaYXZPleoY9+eaua8hlZHTWw+V5KWmJPF6C93q/7fMmqEyhz83Xw77tMN2h9o5/GwmmRRx2t6tZqEOU9w7V/6lUaMX6Ad9Rq4Dfy4Lg3TbbaR3ZQ4zZ6y1KlzPMvfTiVV0jkZlVCZMp6jV0AZs31sT+kAXey+mVCqpOcsWyrYrmfeKDT5I69cWNe5YHbe4m3a0t13DHPueKB/FzUJTtSKT6c6v8+IMVM1be0+HXNHOd0RRX9uxh0xSr1emKCIzQGq0/Vh56LpNNnuvyiIilb+8L6pY5jrorYNTj+KZHpszFX+QFF3Ppw/vOfuw6vsudvs86uSVK5JFw252/s2ZjW16lzfuSbYtsBce01Z47Qbld10ZcJ6auDtVyjgT3OdYM8J3nsIb14rm+TJa+8t0IpDQWricy1Yp0W4qpjvs9cg/9noXESgACpK+cO7vyp2hSaY4/+EBfukKi018ImWWdb/bs8qTf7RztybmP3V5oX3Fmurn7tsyUbt1L6sudKKnKpezwzSO5sCMr+3yES58L4a+kBdVTHXWTsSg9T+72nfok5dr21LnfVyzm1TFmsb0fJ8V/jyR5JiIldo/oK1WrvX3BLXb6l+bwxQWzdolvV10hHtWGjvzceob99RmrDcnA/Cu6uz0/ZgxueQnMo2v2R1D+8j+3Mezgbyh5s/sijfyqlSSRv0kZneOX+Vra2ez3Zy84h/eTD358Fz44Jjx4795fbniReGvKGnu3fTVaGV3JSs/R67Xe9MmKyhLz/vppy5/QcPqswlGbbGevYkJ+pISoBKlvYJf52xFKUcSnKeGg4oaQ7URfOeCuk82+8lvT3iFfdT3ko5kqgUpxA5i301JUlHks1ed2EJlSx5esGQM49iZligz7CTZpojKXmznzr14gWkm0+SlrzznMatqqaeY/uomb8R25NRmtZrvCIO+TudN89lvH2cdVfG2yVhwSvqNW23aj7wkoa0udxsj+O5Px44v4HN9yVytj0z++3s75NyUdrfzByzUgJ8fy+77scVkKfHsLyXn/njbEjNg4FBymA3Oo13fP/yVtb7L4q+c5o/ts1UryGLdfjWXvqg86kbxJwcG3OaP4CcKLDnD++5O4v9PiXFHNkD0g3MbjpzPXXkSFKG5w9PXrNvweXwOgNF1jnPH+69hALS3WP4wz7NkT5/ZMu9ZsrN92Vgf+Qw9ZgUp5LpzoGp68W1WaFWUM4fmV4nOWVR5n8m54MMzyE54kd+yfAePgN+nPNQuBT6/GGnS1++5YfoKT30+iKpbZ/x6naN2a+PXpRhOZHlVx48k/PgWZTnl413tG/rBAme6j3Ar86Oa6cpcuwOmucXCuagXNrOl4AC8oa9sbT7U5b7qj2I2XEyOSA680h/kLOF2Hm1n9p68VLnk6jouR9p8vihmrDKfHeW9XRbUZo2cJQmTJul75fP07RRHynCNuzcOjyb6by8eS7j7eOsuz9XP2Ydzuh44PwGubjRz+y3s79P+t/MHLPSzt+uOzc7+S01D/qxG1ne8f3bF7Lef4F8sWOx80ry628vzrLNG0c2x8ac5g+gSPCeu7PY7zO8Ec1uOie/ZXz+8OQ1AgooQNx7iVwVpOSqsNS9ZsplwU3C4lF6/b2P9OmCpU61siOm2CpfrlDnNunOgd714toMeSDT6ySnLCqDdNeZBRQsP/JLmnv4LPhxzgNyI9f5w06Xy3NBqvQPdabjVx48k/PgWZTnl45NGzdw3jqwkSl/OjuunQYAspeiHWtWaP4K9xWwB9y68zJVVrVqpGjtjws04b2vFLHpuGq2fVijHjy9fu+8FlA8WOVCglSmeME+CQBAnkrcokUL1iraqUalp9qna/OGYyMAoKgpU6mWAravVcS0qU61sjvK1lW3l/ueqpIDAFCkXVwyyLnHKXmetTSe59UfFQQFovojII8U2NfzgQKA/AFkjvwBZI78AWSO/AFkjvwBZI78cX7hJVcAAAAAAAAAAOCXIvmmAgAAAAAAAAAAyHu8qQAAAAAAAAAAAPxCUAEAAAAAAAAAAPiFoAIAAAAAAAAAAPALQQUAAAAAAAAAAOAXggoAAAAAAAAAAMAvBBUAAAAAAAAAAIBfCCoAAAAAAAAAAAC/EFQAAAAAAAAAAAB+uSB+376/3H4AAAAAAAAAAIBMXfCX4fYDAAAAAAAAAABkiuqPAAAAAAAAAACAXwgqAAAAAAAAAAAAvxBUAAAAAAAAAAAAfiGoAAAAAAAAAAAA/EJQAQAAAAAAAAAA+IWgAgAAAAAAAAAA8AtBBQAAAAAAAAAA4BeCCgAAAAAAAAAAwC8EFQAAAAAAAAAAgF8IKgAAAAAAAAAAAL8QVAAAAAAAAAAAAH4hqAAAAAAAAAAAAPxywV+G258nlv20SrPmzNWhQ4fdlKyVLl1KnTrcqhtvaOSmAAAAAAAAAACAgijPgwp9B72mpx/vpqtCK7kpWfs9drvemThZI18d6KYAgH+Sd0VrxZZA1WtWQ8FuWmGUHLdUEd9Ga/9ljXTbrQ0VEugOyI3kBK1bGaPi14Sp5mVuGgCcVYmKWRKlo9UaqV4Fe0BL/zk/me+aO1cLtkqhbW9V+xpBUny0IhYtVawqK/yWdhwbcY6dy/wBFHTkD6DwSda62VMUGdROT7Wp7KYBOB/kefVH9g0FfwMKlh3X37caABQyxxMUOf553dUhXM3veVIDPlytA+4gj0St/PAlPXKPGd7hfvUePU8x6Q4HB36aogFP3K/mbTrprt7vKGJTsjvEDFs+VnfdY6ZxP58mfpEG33u/7krXDf42wR3B+HnKacPvGrxI8e7gVPGrNf21JzMe5qfknyfqkXtf1wLfGWybqUea9tIXsWb4zhjFnlq9LCRq3Uyz3e7tZLaLWd7eZp7b3EF/LNXoe+5XxFb3c3Z2zdMAs84f/ux+VrQ+TL89vN2H0e44WYv/9vVcT1swJGjBYN9ldj971+WJlzRs/ExF5mpHMBfdE85sPwIKiuSf3nHyxLupxw+vTYowx6HRyxMz+ZxfkhU57GY1H79a+81xMnarOeMkL9Wwtu01/n+mf1+cfk9M1IKBTVTv0S9lDrtAvil4+QMoOMgfQEYSFTP79SzvjdPI9l47rQO/fanBmdxXny4Hy5K4VNN7zJbKuwGFHC4XgMKLNhUA5JNELRj0Dz21vLKeGj1D0/u3lv7TSfePjZb38mXdhG56eG0d9R43SxHT3lD7oxPU/ImZpwp6oifq/u6rVO/ZMYqYPVmjOxzV+Jue1HRvAXp2guvqrmeeVm9v92iYiv8Qo+Rip550io9dpUg11CO+491Z99SbD8nRmt73ftWr30vjF5pxd+Xypubwar078HVF/BCnxBNumnEgJloL9JB6D35cT/XoosZB7oBMJWvl6G66//NAhfe122WMhj/YSGXcoTkTp1nDBunDH5Yq8bibpMpq4bstnM4s19GlOpA6Ttb2/DZbkZXbpZ3HTYXrqZXEXUsVeeDUhbb9rEZdPevStbVqH5inp+p30rs5jJUkr5qo/oPn5X4/AgqMZK347mNt/C1G479emnpcz6342U+q/OjV7qfc2qR1CxPU/tE+GtDDHFNvMced31Zrenw7PdqvjznGPq7wKkGq1fYZ9ehQQ+XdqYC8l7f5AyhayB9ARuy9cfNJyQrv/5FmjX5cV60dpE4D5mXyIFL299pp2PvqNh8ruU0fTf9khJ6qtkr97+6niF3u8HRysiwHlszTh3U6qnkd+ymHywWgUCOoAJzHkuM3ad2mBB1I/9RBcqJiN21SfGI2p/7DifIpd00reqaGf1xXA4Y8rfAa5RTaqIuGDX9RycOmaMEfzgiK/Gy17n+wi+qFBCk4qLLCH3xI7Rcu0kr34mbdktla+cBDur9OOTM8SKFtuujRWxdpwVqfNw1c3nVJ9i34Diynes3C1Nx29Ytr5dsfK2j8LA1r41Nyf8KsQN0whXvHs9315ZQadjhwQMG3vqLI2B8169lM2n6x2yEuWivttsxweyRr5YTX9G3VO9TcTfFKPpzJ8+qZzTN6ivqPrKnh77+o+xtVNtulnGo2aqfGVdzhvg4nKCba/I6ZPFUSO3uUhilM7d3PHkGq6bstbFcmXpE/tVOPDs6VoofZRw6Ybb4yOu60/Sf5eILZ3q3TzsNWQVLIBdds5K5Pa3NRPUbDu6zW4K9zUAhqA0uDFyr07jA3ASjEEpcqYmwjDRnXR9eNXaQV2ZwusrMnPs7ty1hyYuKpm9FMj7nJNg6cljknpD/Kht7UVU91rHPqOO+y33HA93uA3Mrj/AEUKeQP4HSJizR9cJz+2d9zjxdSo7X+OfpVhX8+Vl9k9BBTtvfavhK1YOrrin2mjwZ3aajQkBoKf8bcy7T+UqP/k8HMc7QscYqYNlPhj7VTPfsxR8sFoLAjqACcj5Kj9eFDTdT43pc0eGAvPdKhhd5yXz9OXvWO7mp6ne7q/ZKeeqC9+d9Ld135jlZ6Bmvl6CqqN/JLzerdQuVrXqfec08v4LfiY1Zp3U3t1Ny3sLtOI92smfplk/1QWTUbS98tXn2qACcxXrEhdRVawfMxtGojaf5CrUwttE7Unthyuq5yOfeztUrjn+ikTs+aden+D4Xe9Lwi0pdNHY/TrAG9tOHeGXqrY9on5o/aIESp4qcVLqUKCVP7NjUUfJH7OZ114812uKWbHun7uob17qRaTe2r3GnvjpJ/Gqv+C2/V8L5tfNp+SNCsJ8y27DHP9I9S+yurqPyVT2rWrqznGbt2kdY9ZLZrNnWCr5jwpNrf20v9Bz+pm2u2UO856TZK3JcaPDhYwwY/pOvcpIwlK/KrCeYitKvau79L/NznVa9pJz1itvmwwQ+ruZ2/735gtmmw2aZFW5DKh5p/cfGKj56o8CvNfud7oXxaWrJWjh+kbzu8qgG+QS2gkHKeSuvSUTc3s8fIifpiYW7fvlmtt8zxL3ywuUsd2ckcB82x8IkvFe+kN9Gwz79U77AqCr3a8zRdpsdHc+4qf2UnDTNzjOjRxDMf23UYZVLm6alG7mdv53yHK26eerdpYs4f5rj2aCc19h0G5ELe5Q+g6CF/ABmIMffn6qgWjX3uSi+roxa3RmvF+tMfvMj+XtvXJkV9LN3VrJHPPW+Q6jVrp3WrNp1eHWROlmXbUkUsbK32TT332DlbLgCFHUEF4HwUtUgDtj6k6Qun64tPTLfwR/3zepOevFRvPjpKwQN/1Io5Jn3OAn34j2BFeqZKFT9/lfTYLG2M2aB3b/Ut4D8ldus8Kbi40hctlzBdzE5bAB2k8B4fqflPT6j5E+9o1sIvNWzwIt026XE1dsY0k9/yuKY1W62Hb3lSb81epFnDXteC29/XU2leGKis+0fOUoSzHt9p2j8W6pE35/nU25igiH910lNr66j8RZu0cVfaAv/4OLOcn73m1pdv63xcqng/q/mx6j26QHuWzvJsR7O9pt22VIMX+jzC8cciDe4erUfGPq56aQIT5dTp/W1aN76d6e+jiJ3btGfne+pUIet5xu9cajadrePyHfVOXebT66kMvXuEIuxv+NkCRU5tpwVmG58q4I7Wuz1eU+jbLyo8uwZLzfJ/MTZEPW4PS70IDWnzitatXeBZPjP/WcMqa/pss92coQmKNReMK97u5W7T5/XW3E1Frx7NxKX69mspvFkdhdQJ0111ZmqBT32/6xbP1p5n7kjdvge+fV0P/9xV73avc1qeAAqfBH03e6bubxumYHMMbt6htabPX5rLfN5Q/zTHv4i+prfvLHMcNMfC9+9QiDPMfI853Twy+xfFxoxxApuZHh8bPW2mnaUBZqr241d45mO7OX1MSju9u8r97P2uVPZ4+KQ2dnhfG+1xzRzT1qV+P5AbeZk/gKKG/AFkJD4uyvwNVvE0T7qZuwZz/xgRd/pDfNnfa/vYFadfzL8ypdLMXMXtvencuNMepMjJsqz7eooWdOmi9m4QIUfLBaDQI6gAnI8uL6fwTQs1feZqxfuWsW+K1nfx7XRbs1NP8wdflkHRSrVGam6rJDIXJoHmYsNbZYS3S1MFURaSE+MUe7SNnupYWbEzR+mtHUEKtNUReR1OVOyuowp/rKNCt87UsLFxCi4mHXUHe4SoTOqD30EKb9tFmhnl03jzUQVe3V2D722k8jGz9UijcA3weSKqZofpipjyvj6cMEbD+3ZU+cW9dPO/Mqu7MgN2AxhO1RzHA1XmcuejK0ERg/tpz8BXdH9G1RNlJtN5egrsNWeu0w5Ej7fNMj8TpqMfnF5PZfnLTj0NH9zmVt2f+nRIstaNHaQvbnpfA25Ke2GZkXWfjNX0Dt11l0/NR77LZ6seCQ72ffI+SM17TNf0j98z2/QNDe7eUHvGhxeJejRTAyX3hKve1fdrVt0xGua8+VJH7R/zvSmOVuR/4nX/Te7TQLvmqX/feA0Z1kX25Qag0Nu2UF/M6aLwpp68H9q0ncJnzlSEv+3d5EBo0zCnirxAe76xCVkec3Mheqm+WNVOj97d0Nw+A3ngLOYPoNAhfwBFiL3nidYj/7BBQgDnI4IKfrKv5qd5bT61e8cdAyhEqnTR+LldpDm9VK9qCz3w2peKsVUMHU3WOs8YOZCgiL7XqdbVp7p3f5ZCKrdzqsFJGwDwKG+fkrBvRTwwT81Hv6FHbr1D/3z/R218t5EiO3ZzG79NVuTb3RQRNkKjH2mnTr3f04rf3lOTpZ10/wSfNwHSK2afi9ik2NRGpyor3DbYabuB72n6sMr6cMLc1Nc8g2uEqXEN22aDp22Cf/brrvKfz1ZkJo1WpWcb3n0grIlufvRJ3f9gJz010h1gxM95Tf0PPKPebYI9AZcDnq1x9ICnMD4zmc+znEKvNv/u6a5/dgxTzRCzzM26avCgLlo5aZE2ekbKkPfpkOSfJ6r/Z43U/94aOmqXKfGAksywJLtMp7WtsVT/nRCvf3Ztl/apXbeqkOYPPKlHHrpfnQbbKpy8AhVyfZjqVfa0k1GvTRf1f7arVg5blIt9q2Bp8ugrZt95Tx9OmqXI3zZoxeg7FOop31ToLV10/8zZ+s7uN7aQUt11WzM70OSPYYOU+OwzujnYbm93Ox8/6gnA2YmBQiZ2yZdaUOOAVnwyUe+ON93XmxRYY5EilmfdLkJeyOqYmyve814mVdwBOXUu8wdQ0JE/gIyFXFnD/M3ozlmql+4NAyvbe21fFSqrpvmXdMLzMY067kMbPvxdluQlczU+4Wm1v+nUA2Y5Wi7AL56qUjMrj/VW041zg6CCn+yr+amv0qfpnnbHAAqX4Ou7aNjUH7Un6j3dHNdLT02LtlcBaq847clRI0qeanx888U/G0mhVesqZG6UYn1LTbfF6EeFqV5Nc+ERZU4O8Q11nb1mcQVf31F3dVitFTH21chorRyboMbX+IwQVEd33d1OK1dtyvRNguTDB8x61FVNt/7/9Jyn6n9LyPw166CQHDxNHq13H31doa9FKvKz6frik1l616dajdhNXyr+25cUXtcNuLR5XhGyBfKZt0WR3TxDQsLM8qd9TbV4KbNOJiHTAurko9pvfqfrqpbTga1RWrlpoh5o6g0CPay3zChvPWj6J6RtdDh29kS9Vc5bOO6VoIiRTyr2oRmeKrI+ma5Zg20VTplL+yZDIVYq2Gkw3NOluyi+LEztH5qn/5qbYlv1UXlvY2UmP8V8nqAFA9unBt2a950nzX1ezd064oHCJVoRk5eq/YNdFH59HdVzuta6687WWvDBvHwOHmZ9fMyVy8upuRJtbAHIA+cyfwAFHfkDyFTlmuY+fLU2+r61kxyjX+bI3DP43A+7sr3XTqOyaneQVsb4Bu+StTHK3JO0rKNabkoqv5YlWSsWvSM91EbNfW6LcrZcgD88VaX6ljed6p5OrTob5wZBBeB8lJx8qgD6shoK9TaLUDlMd90dr/Ej3tGCTQmK37RIH05d6A7MoUat1aPRRA0b79b3fzxBC6ZOUWQHcyNhqwKqWsOpkmfS5z4XN3EL9d85ddSkpl2gGqrZRZo+9UvFeqtTOh6nBXPnmRuQGj5Pzkfpl2i3OqPETZo2baLqPRTmuTj6Y5PWxfk8Df7HUk2fZKb3DleiYs16plbXlGyX8WNFNGqUaVAiLTNn39J9M33sTrffaNw73Ulv1Rhzgeap2/vDjhm3RZHdPEOb3aHwORM0/ls3KGG2ScTnsxXyTEO3ENvjl6hoHXDWK1Exn0zRu3UeMheBUkjH99Iuk1sH+YA5pr93QzuBy9z4fbBI4amF46eY3eeU42Yb7vRpYM8ub5ptHm1+w5kKeaiO84RM0RWkFrc9rRVzR2n8hMq66yZvFWKnXwQ57Wh0GKN1bhsaQKFi38SJ7mLOFa3VvFlYatf+3o5qHz1bkb4vkh1P95xa+s8+Ai8yx8TY+EwDxh5ZHx9zpUpdhTdaqmkzFp1qT+ew70EOyIF8yh9AkUD+ADJXobXufyhGw9703vt67+H66LamnlL72B/MvfVMt0rZ7O61FafI8aM0PdqOXU43391VG0eO0iz31vvAbzP14fg6GnCrp7rW5OiZZl5LPW/z+7EsTrt7ZvoebX3vH41slwtAUUJQATgPHVgySs2vrKImHe5X+7Da6r2hj4Y/YCvNL6f2w2ZoSM0ovTuwl/pPilOtlmGeiXKsjp4a/5GaLH1CteyraaFN1Pvn1vpimNsA5mXtNPiTh5T4ZguVrx+u5mFmnA5fKnT8GD3i1N8fpPaDpuvRP0apiZm2eRszXmgnfVFhjN59yKeC/zY1lDi5k+rZ77g6XO/qFY3u3tDzGmf8Kg3vcp1Cva/H1e2lHxu9pw+fcYebi60FvTspNNQdXrWJBkS30RcfP35aQXrGGqr96Nb674PN1bxDuJo8OEF7QrJ+aj972cyzShcN+zhM6/o28SxzaAsNS35G05891ZCy1Fo1/5ii9o3tel2n5u9Lw956XI1PjZCtA9/OdF5nte1dpGUuSrs+rqMDzLJ16KQmN/XTL/J5euaA2Xceutlnm3fT+MA+mjWwdZGvazOw2a3qseVLzWrdUTcTLEARtXL+BK17qJ2ap2/k3dyA3tUlWuPn2zee6ujmgWFa8WwLPTLbBkDTfz5dvVv7qP3yJz3H8mcza9cmP4657rlqdT/Vc88F9TpM4YlZ5Ep+5Q+gKCB/AFkJUvjAyeqdbO99vfdwwRr9rvceLlEbTR56a+oqtxrfbO61EzcpYsI7muZWLRZ8y4vmfjFZw5p6rnVqtZmo4NFj9FQjzw1i7PKZemvCPG10nhXLblnMbfYPszX9pq5q79vuniOb5QJQpFzwl+H254m+g17T049301WhldyUrP0eu13vTJyska8OdFMAnB3JOpBon1wIPL0qF18/jVL57sW1YO3Tfha0n842qHk0i+/xDJeKBwX5FIz7OJyoA7YOyMAgBWe2qMlmnONmeCn3sw/v/DOd3k5rN0WxjKfPlrN82WzHnMp2nu7vl+Uy23HMRWReLpeXs82yWD5/fjMAyI38OOZa+TVfAAAAP2V+75ys5OOBCkzXDlSm49vXywPTp9l7OHPfXdLcd6efT4ajZzTvOE1/sIUiOvyoaV3SP4B2SubrAaCoyPOgwrKfVmnWnLk6dCh9i58ZK126lDp1uFU33tDITQFw7iQq9ud4Fa9aWSHm5J/8R7S+GNxN02pO1qxn6mRc4A8AAAAAAIq+6IkKv2WTeke9ofbp3zwCcF7J86ACgMIsWes+fkn935+plbZhppAa6vTQKxrQOywHjRcDAAAAAAAAKKoIKgAAAAAAAAAAAL/QUDMAAAAAAAAAAPALQQUAAAAAAAAAAOAXggoAAAAAAAAAAMAvBBUAAAAAAAAAAIBfCCoAAAAAAAAAAAC/EFQAAAAAAAAAAAB+IagAAAAAAAAAAAD8QlABAAAAAAAAAAD4haACAAAAAAAAAADwC0EFAAAAAAAAAADgF4IKAAAAAAAAAADAD9L/B8J38YPnovlTAAAAAElFTkSuQmCC;" vertex="1" parent="1">
          <mxGeometry x="-1655.5" y="390" width="1557" height="190" as="geometry" />
        </mxCell>
        <mxCell id="UgRBFtctamIXkeDdi4D6-25" value="" style="endArrow=none;dashed=1;html=1;rounded=0;entryX=0.008;entryY=0.567;entryDx=0;entryDy=0;entryPerimeter=0;exitX=1;exitY=0.5;exitDx=0;exitDy=0;" edge="1" parent="1" source="UgRBFtctamIXkeDdi4D6-24" target="UgRBFtctamIXkeDdi4D6-11">
          <mxGeometry width="50" height="50" relative="1" as="geometry">
            <mxPoint x="-500" y="440" as="sourcePoint" />
            <mxPoint x="-450" y="390" as="targetPoint" />
          </mxGeometry>
        </mxCell>
        <mxCell id="UgRBFtctamIXkeDdi4D6-26" value="" style="outlineConnect=0;dashed=0;verticalLabelPosition=bottom;verticalAlign=top;align=center;html=1;shape=mxgraph.aws3.internet_gateway;fillColor=#F58534;gradientColor=none;" vertex="1" parent="1">
          <mxGeometry x="150" y="440" width="69" height="72" as="geometry" />
        </mxCell>
        <mxCell id="UgRBFtctamIXkeDdi4D6-27" value="" style="endArrow=none;html=1;rounded=0;exitX=0.855;exitY=0.145;exitDx=0;exitDy=0;exitPerimeter=0;" edge="1" parent="1" source="UgRBFtctamIXkeDdi4D6-26">
          <mxGeometry width="50" height="50" relative="1" as="geometry">
            <mxPoint x="440" y="310" as="sourcePoint" />
            <mxPoint x="330" y="370" as="targetPoint" />
          </mxGeometry>
        </mxCell>
        <mxCell id="UgRBFtctamIXkeDdi4D6-28" value="users" style="sketch=0;outlineConnect=0;gradientColor=none;fontColor=#545B64;strokeColor=none;fillColor=#879196;dashed=0;verticalLabelPosition=bottom;verticalAlign=top;align=center;html=1;fontSize=12;fontStyle=0;aspect=fixed;shape=mxgraph.aws4.illustration_users;pointerEvents=1" vertex="1" parent="1">
          <mxGeometry x="119" y="630" width="100" height="100" as="geometry" />
        </mxCell>
        <mxCell id="UgRBFtctamIXkeDdi4D6-29" value="sends request to IPv4 Address" style="endArrow=classic;html=1;rounded=0;entryX=0.5;entryY=1;entryDx=0;entryDy=0;entryPerimeter=0;" edge="1" parent="1" source="UgRBFtctamIXkeDdi4D6-28" target="UgRBFtctamIXkeDdi4D6-26">
          <mxGeometry relative="1" as="geometry">
            <mxPoint x="390" y="580" as="sourcePoint" />
            <mxPoint x="490" y="580" as="targetPoint" />
          </mxGeometry>
        </mxCell>
        <mxCell id="UgRBFtctamIXkeDdi4D6-30" value="Label" style="edgeLabel;resizable=0;html=1;align=center;verticalAlign=middle;" connectable="0" vertex="1" parent="UgRBFtctamIXkeDdi4D6-29">
          <mxGeometry relative="1" as="geometry" />
        </mxCell>
        <mxCell id="UgRBFtctamIXkeDdi4D6-31" value="" style="endArrow=none;html=1;rounded=0;exitX=0.5;exitY=0;exitDx=0;exitDy=0;exitPerimeter=0;entryX=1;entryY=1;entryDx=0;entryDy=0;entryPerimeter=0;" edge="1" parent="1" source="UgRBFtctamIXkeDdi4D6-16" target="UgRBFtctamIXkeDdi4D6-2">
          <mxGeometry width="50" height="50" relative="1" as="geometry">
            <mxPoint x="420" y="230" as="sourcePoint" />
            <mxPoint x="470" y="180" as="targetPoint" />
          </mxGeometry>
        </mxCell>
      </root>
    </mxGraphModel>
  </diagram>
</mxfile>
